<svg width="459" height="181" viewBox="0 0 459 181" fill="none" xmlns="http://www.w3.org/2000/svg">
<path d="M36.2808 124.035C32.9073 123.594 31.8375 123.416 30.0002 122.993C25.2766 121.905 21.8224 120.294 16.7804 116.828C13.0285 114.249 11.8603 113.016 10.976 110.7C10.336 109.024 10.2834 105.302 10.872 103.344C11.9313 99.819 14.5433 95.7804 19.2516 90.3873C22.7903 86.3339 27.6067 80.5195 32.036 74.9537C33.8159 72.7172 35.9173 70.1079 36.7058 69.1553C40.699 64.331 43.1208 59.6706 43.7104 55.6757C44.0806 53.1668 44.2192 47.1112 43.9425 45.5281C43.3871 42.3495 41.87 40.8443 37.3066 38.9441C35.1243 38.0354 33.5277 37.6501 31.5834 37.5632C29.2807 37.4602 28.035 37.7804 26.5015 38.8693C23.6981 40.8599 22.6431 43.8604 22.3399 50.7056C22.0665 56.8768 22.9284 59.1848 28.4522 67.0735C30.0724 69.3874 31.398 71.3389 31.398 71.4103C31.398 71.4816 30.5228 72.5332 29.453 73.7471L27.508 75.9542L26.805 75.4539C24.7002 73.9563 18.6492 65.321 15.8081 59.7607C13.6393 55.5159 13.0485 53.01 13.0522 48.07C13.0551 44.0515 13.3456 42.2748 14.5663 38.8075C15.9038 35.0087 16.7643 33.8549 19.9064 31.6486C21.4617 30.5563 22.3574 30.0637 23.6494 29.59C25.5241 28.9026 28.7546 28.1709 31.1951 27.881C32.5859 27.7158 32.9325 27.7248 34.0517 27.9548C36.907 28.5416 40.2418 30.1131 43.7873 32.5425C47.9861 35.4197 50.8186 38.1686 53.1461 41.625C57.6563 48.3231 57.3896 51.6899 51.52 62.1519C49.6264 65.5272 47.1107 69.2666 45.2888 71.4144C44.6212 72.2013 42.6404 74.404 40.887 76.3092C32.6117 85.3007 27.3652 91.4638 24.2984 95.7959C22.2855 98.6393 21.208 101.661 21.208 104.461C21.208 106.307 21.5415 107.292 22.7873 109.125C24.6329 111.841 26.734 113.822 29.0557 115.036C32.5145 116.844 35.1646 117.421 41.2086 117.685C46.7457 117.927 48.6492 117.764 51.2474 116.829C53.8273 115.9 57.3567 113.999 60.0601 112.081C62.5627 110.305 63.2555 109.51 64.2662 107.254C65.4397 104.634 65.6757 103.428 65.6797 100.03L65.6832 96.9427L65.0298 95.8777C63.2777 93.0219 59.6084 90.4435 55.5518 89.2176C54.326 88.8471 53.9902 88.8151 51.3535 88.8172C48.6609 88.8193 48.3826 88.8479 46.7522 89.2894C43.2858 90.2281 40.5292 91.8156 39.3308 93.5631C38.0206 95.4737 36.9176 98.5175 36.9176 100.222C36.9176 101.974 37.9854 103.612 39.514 104.204C40.5566 104.608 45.4099 104.563 47.2746 104.132C50.2397 103.447 53.5096 100.934 54.2106 98.8025C54.6989 97.3173 56.602 96.1781 57.9759 96.5487C58.6706 96.736 59.5284 97.4738 59.8745 98.1814C60.2556 98.9608 60.1982 101.234 59.7649 102.515C58.9328 104.976 56.2748 107.93 53.6689 109.291C49.7779 111.323 43.0057 112.453 39.1187 111.719C35.5052 111.036 32.1116 108.706 30.381 105.72C29.5998 104.372 29.4868 102.35 30.0971 100.638C31.5202 96.645 37.8903 90.3811 43.3195 87.6355C45.3048 86.6315 48.3047 85.609 50.3322 85.2453C51.8414 84.9745 52.507 84.9451 55.685 85.0087C59.8143 85.0914 60.9593 85.2612 63.6192 86.185C66.7166 87.2607 69.4663 89.5941 72.2079 93.4735C76.0706 98.939 76.458 101.823 73.9687 106.582C70.9613 112.33 66.9636 116.012 60.2858 119.185C56.573 120.949 51.1323 122.669 46.4707 123.552C44.2788 123.967 43.6607 124.019 40.4204 124.06C38.4355 124.085 36.5726 124.074 36.2807 124.035H36.2808Z" fill="#AA00D4" stroke="#AA00D4" stroke-width="5"/>
<path d="M37.4479 86.1567C36.9227 85.6506 36.493 85.1058 36.493 84.9459C36.493 84.4178 38.9497 81.4305 39.8697 80.8399C40.2627 80.5875 40.2968 80.6016 40.8169 81.2312C41.5549 82.1245 42.4372 83.8272 42.4372 84.358C42.4372 84.6143 42.1971 84.9973 41.8559 85.2849C41.2469 85.7984 38.9183 87.0769 38.5922 87.0769C38.488 87.0769 37.9731 86.6628 37.4479 86.1567Z" fill="#AA00D4" stroke="#AA00D4" stroke-width="6.60534"/>
<path d="M45.4624 97.8798C44.1488 95.6253 43.0741 93.6944 43.0741 93.589C43.0741 93.3178 44.7047 92.0961 45.7434 91.5891C47.2356 90.8607 47.6093 90.8652 48.3863 91.6208C50.0344 93.2235 51.5658 95.9957 51.5658 97.3765C51.5658 97.8472 51.3336 98.7298 51.0308 99.4097C50.565 100.456 50.3564 100.7 49.4157 101.3C48.8216 101.679 48.2264 101.987 48.0931 101.984C47.9598 101.981 46.776 100.134 45.4624 97.8798Z" fill="#AA00D4" stroke="#AA00D4" stroke-width="6.60534"/>
<path d="M54.111 112.342C53.8796 112.073 53.69 111.768 53.6895 111.665C53.6879 111.385 56.9785 109.592 57.8359 109.406C58.4255 109.277 58.6411 109.288 58.8814 109.459C59.3932 109.822 58.8498 110.55 57.1799 111.74C55.3851 113.018 54.7923 113.135 54.111 112.342Z" fill="#AA00D4" stroke="#AA00D4" stroke-width="6.60534"/>
<path d="M40.6608 157.684C38.6883 157.48 35.1548 156.841 33.7354 156.432C33.0202 156.226 31.7957 155.733 31.0143 155.338C29.0718 154.356 24.6144 151.251 23.1035 149.829C21.053 147.899 20.2745 145.612 20.2714 141.509C20.2698 139.292 20.3152 139.003 20.8395 137.894C21.5644 136.362 22.8994 134.511 24.0367 133.462C24.5976 132.944 25.5531 132.353 26.6387 131.85C29.0651 130.726 33.4985 129.216 34.6363 129.125C36.882 128.945 39.9074 130.136 42.8887 132.372C46.3224 134.947 47.4004 136.933 46.5818 139.174C45.7323 141.5 44.4624 143.189 42.4695 144.644C40.8409 145.832 38.8238 146.692 35.5377 147.599C32.1767 148.527 31.5124 148.858 31.7337 149.494C31.9625 150.152 34.2341 151.659 35.9721 152.307C38.2488 153.155 41.2787 153.385 45.4149 153.024C49.858 152.636 52.3239 151.967 55.1472 150.383C61.2232 146.975 65.1695 140.726 65.5187 133.96C65.7138 130.18 65.0659 127.632 62.9696 123.932L61.8002 121.868L63.9442 120.656C65.1234 119.99 66.1705 119.444 66.271 119.444C66.7759 119.444 69.3838 124.29 70.4462 127.202C72.3049 132.297 72.1214 137.918 69.9196 143.33C67.2549 149.88 61.253 154.255 51.8777 156.48C46.5853 157.736 43.9197 158.022 40.6608 157.684Z" fill="#AA00D4" stroke="#AA00D4" stroke-width="6.60534"/>
<path d="M104.002 134.637C99.3184 134.299 93.7846 133.258 90.8934 132.171C88.4372 131.247 84.2253 129.075 82.4031 127.793C80.7283 126.614 79.7093 125.328 79.0113 123.511C78.4295 121.997 78.4894 118.553 79.1248 116.976C80.0858 114.591 81.913 112.309 83.7553 111.192C85.7047 110.009 91.4093 108.187 95.4172 107.465C98.613 106.89 101.677 106.744 108.46 106.841C118.623 106.986 123.004 107.598 128.786 109.679C130.688 110.364 131.895 110.71 132.384 110.71H133.12L132.976 109.757C132.87 109.054 132.975 108.177 133.379 106.406C133.679 105.087 134.5 100.851 135.202 96.993C136.595 89.3412 137.471 84.9296 138.274 81.516C139.157 77.7629 140.304 71.4455 140.304 70.3343C140.304 70.0493 144.926 70.225 145.763 70.5418C147.151 71.0674 147.12 72.3724 145.598 77.4591C144.382 81.5237 143.541 85.8275 142.954 90.9798C142.047 98.9361 140.44 107.383 138.621 113.747C137.014 119.368 135.668 122.378 133.191 125.883C131.186 128.719 129.466 130.404 127.311 131.639C125.441 132.711 120.431 134.454 118.65 134.652C117.013 134.834 106.581 134.823 104.002 134.637V134.637ZM105.228 130.36C106.686 130.053 108.142 129.261 108.142 128.775C108.142 128.458 108.031 128.4 107.353 128.36C106.92 128.334 105.551 128.487 104.311 128.699C100.913 129.28 100.755 129.263 98.7835 128.1C97.1144 127.115 96.4284 126.867 95.8293 127.03C95.4232 127.14 95.4195 127.77 95.8217 128.321C96.3629 129.064 98.0211 129.968 99.4172 130.282C101.02 130.643 103.716 130.679 105.228 130.36H105.228ZM112.245 125.312C114.557 124.74 116.697 123.173 118.203 120.951C118.917 119.898 118.969 119.725 118.969 118.391C118.969 117.023 118.93 116.903 118.092 115.665C116.969 114.008 116.071 113.357 114.577 113.12C112.697 112.822 109.791 112.745 109.177 112.979C108.474 113.246 106.892 114.751 106.013 115.99C104.742 117.78 104.542 118.495 104.537 121.252C104.533 123.586 104.562 123.771 105.021 124.295C106.232 125.677 109.127 126.084 112.245 125.312ZM94.3174 123.736C97.1946 123.204 99.2984 121.742 100.415 119.498C101.034 118.255 101.197 115.769 100.743 114.515C100.05 112.6 98.692 111.27 96.8031 110.656C95.4696 110.223 93.1944 110.228 92.0075 110.667C89.6652 111.534 87.6097 113.899 86.8947 116.549C86.4853 118.068 86.4998 120.499 86.9226 121.22C87.5579 122.303 89.6425 123.522 91.3707 123.822C92.3812 123.997 93 123.979 94.3174 123.736V123.736Z" fill="#0047D4" stroke="#0047D4" stroke-width="6.60534"/>
<path d="M160.578 135.024C160.344 134.986 159.644 134.882 159.022 134.792C154.442 134.134 150.821 132.015 148.241 128.482C147.431 127.372 147.416 127.324 147.432 125.771C147.447 124.411 147.559 123.925 148.23 122.307C149.313 119.696 150.337 118.294 152.354 116.659C158.323 111.819 162.677 110.252 171.193 109.88C174.06 109.754 178.378 110.02 180.081 110.427C180.766 110.591 181.378 110.688 181.441 110.643C181.672 110.479 180.974 109.219 178.729 105.745C175.449 100.669 174.829 99.6804 170.979 93.3893C169.078 90.2829 165.996 85.2676 164.129 82.244C160.394 76.1924 159.255 74.1467 159.059 73.1346C158.93 72.4662 158.936 72.4584 160.285 71.5437C163.415 69.4195 168.616 66.8849 172.618 65.5333C181.059 62.6822 197.675 59.4524 211.104 58.0526C213.752 57.7765 216.026 57.653 219.648 57.5887C222.363 57.5405 224.584 57.5397 224.584 57.5868C224.584 57.634 225.016 58.6433 225.543 59.8297C226.07 61.0161 226.552 62.0994 226.613 62.237C226.69 62.412 226.354 62.6871 225.495 63.1517C224.819 63.5172 224.149 63.8647 224.007 63.9239C223.837 63.9951 223.535 63.7311 223.118 63.1446C221.725 61.1869 220.831 60.7743 218.283 60.9132C214.579 61.1152 199.108 63.1028 189.874 64.5629C183.117 65.6314 179.477 66.6153 172.261 69.3236C167.973 70.9332 165.338 72.1372 164.688 72.7846C164.051 73.42 163.934 74.5787 164.394 75.7017C164.821 76.7442 166.798 80.1513 168.627 82.9971L169.934 85.0303L170.795 85.0191C171.44 85.0107 172.93 84.57 176.732 83.2631C188.184 79.3262 199.193 76.8446 211.63 75.3966C215.366 74.9616 215.87 74.9411 216.373 75.2029C216.573 75.3065 216.976 75.8826 217.271 76.4832C218.133 78.2436 217.932 78.3361 212.472 78.6934C201.641 79.4022 186.761 82.4931 177.538 85.9496C176.125 86.4795 174.751 86.913 174.486 86.913C174.221 86.913 173.634 86.6758 173.181 86.3858C172.301 85.8215 171.376 85.6915 171.154 86.1011C171.082 86.2345 171.57 87.5053 172.239 88.9251C175.86 96.6159 180.584 103.405 187.459 110.8L190.414 113.978L190.194 116.147C189.701 121.032 188.667 122.739 183.733 126.817C179.819 130.051 178.274 130.951 174.187 132.378C170.956 133.506 168.386 134.224 166.098 134.638C164.408 134.943 161.388 135.155 160.578 135.024ZM170.24 130.73C173.979 129.995 176.324 128.506 175.576 127.341C175.16 126.693 174.252 126.847 172.761 127.819C172.05 128.283 170.928 128.843 170.269 129.062C169.132 129.44 168.897 129.461 165.744 129.461C163.915 129.461 162.354 129.506 162.275 129.562C161.933 129.804 162.483 130.298 163.495 130.656C164.44 130.99 164.865 131.042 166.621 131.042C168.025 131.042 169.145 130.946 170.24 130.73ZM161.406 126.882C162.73 126.562 164.458 125.357 165.254 124.198C166.756 122.011 165.895 118.236 163.5 116.516C162.396 115.723 161.272 115.386 159.714 115.382C157.211 115.375 155.055 116.286 154.548 117.562C154.212 118.408 153.859 121.765 154.002 122.759C154.242 124.431 154.303 124.539 155.526 125.477C157.542 127.022 159.195 127.417 161.406 126.882ZM173.655 124.545C175.444 124.12 176.72 122.922 177.362 121.064C178.113 118.89 177.399 116.854 175.291 115.155C174.154 114.239 173.058 113.879 171.405 113.879C169 113.879 167.496 114.694 167.042 116.243C166.678 117.488 166.892 120.797 167.402 121.807C168.516 124.011 171.113 125.149 173.655 124.545Z" fill="#00D405" stroke="#00D405" stroke-width="6.60534"/>
<path d="M214.028 124.888C212.402 124.608 209.631 123.584 208.153 122.716C205.309 121.046 204.223 119.44 204.066 116.673C203.949 114.603 204.367 113.125 205.681 110.962C206.885 108.981 207.72 108.058 209.58 106.656C212.718 104.291 216.705 102.702 224.049 100.892C226.468 100.296 227.072 100.204 228.639 100.193C229.714 100.186 231.172 100.298 232.248 100.471C234.313 100.802 235.12 100.727 235.477 100.172C235.77 99.7154 235.522 98.9022 233.686 94.3072C231.731 89.4139 230.758 86.6439 230.946 86.5101C231.206 86.326 233.054 86.6657 234.2 87.1082C235.13 87.4674 235.265 87.5946 235.836 88.6443C237.064 90.9053 241.936 102.111 243.335 105.892C243.914 107.457 244.01 107.975 244.017 109.594C244.024 111.218 243.958 111.596 243.536 112.341C240.857 117.071 227.449 123.725 218.237 124.895C216.297 125.141 215.495 125.139 214.028 124.888V124.888ZM225.69 119.726C227.321 119.156 229.488 117.708 229.488 117.188C229.488 116.776 229.002 116.544 228.332 116.635C228.069 116.67 227.104 117.101 226.189 117.591C224.1 118.709 223.629 118.803 221.077 118.606C218.697 118.423 217.6 118.52 217.6 118.916C217.6 119.266 218.119 119.592 219.302 119.984C220.102 120.248 220.577 120.291 222.287 120.251C224.066 120.21 224.492 120.144 225.69 119.726ZM217.027 116.305C219.006 115.804 220.424 114.713 220.768 113.429C221.196 111.828 220.255 107.529 219.249 106.487C218.505 105.716 217.36 105.339 215.716 105.323C214.049 105.307 213.111 105.585 211.876 106.461C210.181 107.664 209.369 109.565 209.644 111.693C210.004 114.483 210.992 115.722 213.329 116.315C214.326 116.567 216.008 116.563 217.027 116.305V116.305ZM230.527 113.113C234.364 111.757 234.758 106.97 231.216 104.758C229.598 103.748 226.123 103.239 224.617 103.792C224.266 103.92 223.803 104.315 223.513 104.733C223.047 105.403 223.013 105.628 223.015 108.013C223.017 110.717 223.182 111.422 224.023 112.32C225.158 113.532 228.27 113.911 230.527 113.113Z" fill="#00D405" stroke="#00D405" stroke-width="6.60534"/>
<path d="M238.677 85.5186C231.075 84.8364 225.212 82.1416 222.127 77.9118C220.466 75.6331 219.384 72.3084 219.905 71.0767C220.596 69.4401 228.628 65.1295 234.686 63.1436C238.187 61.996 244.194 61.3795 248.752 61.7001C250.125 61.7966 252.299 62.0788 253.583 62.3271C256.304 62.8532 257.638 62.9131 257.807 62.5168C258.747 60.3189 259.184 48.65 258.493 44.18C257.478 37.606 257.104 28.9047 257.771 27.3772C258.178 26.4441 259.162 25.3874 259.876 25.1164C260.266 24.9684 260.39 24.9843 260.625 25.2127C260.78 25.3633 260.908 25.6599 260.908 25.8719C260.908 26.529 262.049 28.0106 263.636 29.4138C264.472 30.1527 267.009 32.1847 269.275 33.9293C275.342 38.601 277.445 40.4349 277.988 41.5258C278.514 42.5837 278.602 43.907 278.23 45.1544C277.589 47.302 276.293 48.1893 273.64 48.2961C271.542 48.3806 270.552 48.1292 269.195 47.1676C267.839 46.2065 267.956 46.0232 269.835 46.1626C272.018 46.3244 273.22 45.4956 273.22 43.829C273.22 42.6375 272.621 41.4937 271.188 39.9512C268.603 37.1685 261.909 33.313 260.194 33.6185C259.265 33.7838 259.1 34.4084 259.133 37.6284C259.174 41.5964 259.967 47.1187 261.544 54.4215C263.102 61.6334 263.721 66.4008 263.745 71.3652C263.764 75.3346 263.604 76.4112 262.689 78.4664C261.567 80.9879 260.72 81.8707 258.425 82.9119C256.148 83.9454 252.382 84.8732 248.707 85.3061C246.341 85.5848 240.738 85.7036 238.677 85.5186ZM245.909 82.2106C248.797 81.3548 250.344 80.2279 249.344 79.7088C248.818 79.4361 248.512 79.5012 245.871 80.4458C243.821 81.1788 243.575 81.2303 242.119 81.2303C240.814 81.2303 240.462 81.1744 239.96 80.887C238.637 80.1301 237.173 79.7929 236.507 80.0915C236.246 80.2088 236.257 80.3147 236.586 80.8313C237.486 82.248 239.294 82.8559 242.332 82.7628C243.891 82.715 244.549 82.6136 245.909 82.2106ZM237.323 76.3189C238.878 75.7676 240.082 74.7849 240.667 73.5898C241.252 72.3937 241.212 69.6803 240.588 68.2777C239.88 66.6853 238.91 65.6335 237.776 65.2278C234.904 64.2004 231.168 65.6824 230.223 68.2243C229.5 70.1677 229.663 73.9011 230.522 75.0898C231.36 76.248 232.625 76.7727 234.602 76.7812C235.754 76.7862 236.235 76.7043 237.323 76.3189ZM250.361 75.8727C251.458 75.6565 252.697 74.8288 253.221 73.962C254.182 72.3736 254.378 68.885 253.575 67.6844C253.115 66.9964 250.813 65.311 249.852 64.9584C248.397 64.4244 244.976 65.1026 244.37 66.0451C243.968 66.6714 243.72 68.325 243.72 70.3863C243.719 73.6401 244.419 75.1952 246.133 75.7474C247.116 76.0641 249.092 76.1226 250.361 75.8727Z" fill="#D42E00" stroke="#D42E00" stroke-width="6.60534"/>
<path d="M272.477 110.29C269.458 109.887 267.328 109.488 265.21 108.93C260.149 107.596 258.326 106.303 256.777 102.949C255.345 99.8458 255.086 97.7303 255.906 95.8204C256.646 94.0986 260.096 91.131 262.924 89.7846C267.315 87.6941 271.312 87.0034 279.165 86.9779C286.128 86.9552 287.842 87.2592 290.535 88.9948C293.397 90.8388 293.532 90.6466 293.188 85.2211C292.978 81.9105 292.582 64.5422 292.548 57.1058L292.539 55.121L293.715 54.809C294.947 54.482 296.25 54.3997 296.456 54.6359C297.213 55.505 297.429 60.4889 297.426 77.0882C297.423 99.879 297.255 101.468 294.553 104.351C292.687 106.343 290.548 107.589 286.881 108.821C282.645 110.245 276.684 110.853 272.477 110.29ZM275.874 105.978C277.935 105.659 279.801 104.765 279.801 104.097C279.801 103.572 278.961 103.498 277.402 103.886C272.808 105.03 272.187 105.042 270.527 104.022C268.539 102.802 267.448 102.715 267.319 103.766C267.237 104.435 268.19 105.398 269.306 105.773C270.852 106.294 273.332 106.371 275.874 105.978ZM280.354 100.124C282.808 99.2809 284.708 96.6565 284.396 94.5399C284.212 93.2911 283.512 92.0929 282.653 91.5579C281.738 90.9881 281.153 90.8689 279.271 90.8689C276.534 90.8689 275.159 91.7916 274.123 94.3232C273.849 94.9912 273.569 96.0565 273.499 96.6905C273.388 97.7075 273.428 97.9064 273.839 98.3785C274.447 99.076 275.407 99.6419 276.723 100.078C278.034 100.512 279.181 100.527 280.354 100.124ZM267.616 99.8564C268.918 99.1875 270.467 97.8801 271.129 96.8932C271.639 96.1315 271.734 95.7988 271.734 94.7744C271.735 91.2575 269.072 89.4166 264.877 90.0343C263.344 90.2601 262.604 90.7022 261.912 91.8039C260.817 93.5464 260.599 96.9329 261.491 98.3364C262.601 100.084 265.684 100.849 267.616 99.8564Z" fill="#FF6600" stroke="#FF6600" stroke-width="6.60534"/>
<path d="M364.345 91.7756C362.358 91.5198 360.894 91.1751 359.072 90.534C355.066 89.1245 352.097 86.6324 351.198 83.9237C350.313 81.2564 351.722 77.864 354.479 76.0259C356.421 74.731 360.27 73.7009 364.618 73.3126C367.346 73.069 372.78 73.1951 373.898 73.5279L374.714 73.7708L374.323 74.1295C374.108 74.3267 373.428 74.9091 372.812 75.4237C370.887 77.0325 370.217 78.33 370.217 80.4488C370.217 82.4035 371.342 83.188 374.144 83.1874C375.813 83.187 377.005 82.8445 378.249 82.0073C379.502 81.1643 379.628 80.8519 379.758 78.2673C379.823 76.9692 379.949 75.8558 380.038 75.7929C380.127 75.73 380.481 75.8263 380.825 76.0068C381.718 76.475 382.051 76.422 382.31 75.7701C382.433 75.4595 382.864 72.901 383.268 70.0846C383.671 67.2682 384.246 63.71 384.544 62.1776C385.363 57.9788 385.669 55.4005 385.831 51.3336C386.002 47.0258 386.143 46.5686 387.254 46.723C387.633 46.7757 388.847 47.14 389.951 47.5325C391.635 48.1311 391.988 48.3189 392.139 48.6979C392.353 49.2304 392.219 51.8115 391.652 58.1111C391.424 60.6376 390.95 66.5246 390.597 71.1934C389.765 82.2168 389.519 83.7661 388.376 85.1489C387.626 86.0569 384.764 88.0462 382.898 88.9563C377.928 91.3807 370.292 92.5411 364.345 91.7756ZM373.461 86.8883C374.878 86.4992 376.445 85.703 376.549 85.3195C376.654 84.9327 376.193 84.6185 375.519 84.6185C375.195 84.6185 374.037 84.8682 372.945 85.1734C371.222 85.6551 370.722 85.7293 369.155 85.735C367.179 85.7422 366.825 85.6576 364.486 84.6177C363.05 83.979 362.312 83.8985 362.186 84.3668C361.902 85.4238 363.771 86.7554 366.127 87.1741C366.567 87.2523 368.12 87.2958 369.58 87.2709C371.715 87.2344 372.474 87.1596 373.461 86.8883ZM366.245 82.2489C367.272 81.75 368.179 81.016 368.766 80.209C369.158 79.6693 369.228 79.3222 369.228 77.9163C369.229 74.6321 368.258 73.7323 364.689 73.7104C362.501 73.6969 362.049 73.8639 361.106 75.0333C359.468 77.0637 359.101 80.6081 360.419 81.66C360.867 82.017 362.128 82.4744 363.155 82.6519C364.264 82.8436 365.298 82.7087 366.245 82.2489Z" fill="#FFED55" stroke="#FFED55" stroke-width="6.60534"/>
<path d="M322.324 84.77C314.437 84.2992 309.458 82.9174 306.825 80.4685C306.526 80.1905 306.038 79.4685 305.741 78.8642C304.685 76.7188 305.18 74.2995 307.304 71.224C309.04 68.7097 311.92 67.0477 315.986 66.2152C320.26 65.3399 327.526 66.1251 333.684 68.1277C335.821 68.8225 336.612 68.9388 337.057 68.6234C337.492 68.3145 337.343 66.6375 336.578 63.2459C334.948 56.0178 333.852 46.9531 333.571 38.3733L333.425 33.9226L335.621 32.5245C340.53 29.3984 343.643 28.2837 349.598 27.5191C358.058 26.4328 367.638 26.9898 375.033 28.998C378.007 29.8056 379.023 30.6238 378.278 31.6119C377.62 32.4831 375.604 32.6454 371.172 32.1835C366.644 31.7116 357.476 31.6689 353.764 32.1025C350.486 32.4854 346.668 33.1841 344.423 33.812C341.502 34.6292 337.524 36.1477 337.524 36.4458C337.524 36.5843 337.757 37.3983 338.042 38.2547C339.661 43.1178 342.315 55.1345 343.575 63.3069C344.097 66.6953 344.352 71.0234 344.116 72.4984C343.742 74.8306 341.794 78.7449 340.09 80.5848C338.064 82.7736 335.455 84.0344 331.898 84.5443C329.852 84.8375 325.266 84.9456 322.324 84.77ZM328.214 81.7821C330.67 81.2989 332.824 80.1461 332.915 79.2659C332.951 78.921 332.846 78.8059 332.388 78.6884C331.777 78.5316 331.843 78.512 327.484 80.1511C326.458 80.5371 325.332 80.8529 324.983 80.8529C324.127 80.8529 323.134 80.5429 320.84 79.5596C318.608 78.6026 317.709 78.4609 317.612 79.0504C317.468 79.9236 319.515 81.3759 321.496 81.8062C323.029 82.1393 326.461 82.1269 328.214 81.7821ZM319.848 76.1001C321.071 75.6677 322.196 74.858 322.914 73.894C323.286 73.3949 323.394 73.0062 323.388 72.1928C323.368 69.642 321.222 67.6217 318.378 67.4758C316.81 67.3953 316.253 67.502 315.37 68.0522C314.408 68.6516 313.833 69.6557 313.404 71.4864C313.051 72.9966 313.052 73.0093 313.539 74.0845C314.345 75.8643 315.365 76.4682 317.58 76.4793C318.431 76.4836 319.061 76.3782 319.848 76.1001ZM331.22 75.9188C333.094 74.9555 333.89 73.4952 333.61 71.533C333.44 70.3444 333.033 69.6308 332.153 68.9792C331.141 68.2303 329.98 67.8602 328.668 67.8686C327.264 67.8775 326.247 68.2961 325.542 69.1561C324.827 70.027 323.868 72.7874 324.046 73.4604C324.396 74.786 325.516 75.6519 327.576 76.1918C329.022 76.5706 330.11 76.4891 331.22 75.9188Z" fill="#6600FF" stroke="#6600FF" stroke-width="6.60534"/>
<path d="M424.152 75.1065C421.8 73.5517 419.688 64.3838 418.415 50.192C417.946 44.9763 417.737 43.7611 417.137 42.7977C416.657 42.0249 415.868 41.8194 414.127 42.0131C412.275 42.2191 408.726 43.0167 407.141 43.583C404.094 44.6716 397.036 45.9428 393.884 45.9705C392.119 45.9861 391.859 45.9483 390.528 45.4839C387.404 44.394 384.788 41.9394 384.224 39.5705C383.76 37.6172 384.197 35.8829 385.722 33.6258C386.876 31.9177 388.678 30.408 391.394 28.8742C394.009 27.3969 396.185 26.828 402.804 25.8909C407.671 25.2018 409.502 25.0809 412.07 25.279C414.755 25.4862 418.001 25.9652 419.167 26.3264C419.957 26.571 420.064 26.6731 420.378 27.4804C421.161 29.499 421.515 32.2039 422.014 39.963C422.335 44.9663 423.606 52.5581 425.834 62.7803C427.179 68.9521 427.389 70.311 427.284 72.1635C427.185 73.9245 426.786 74.6984 425.748 75.1475C424.917 75.5073 424.752 75.5031 424.152 75.1065ZM406.586 41.3893C408.503 40.873 411.189 39.1441 411.189 38.4261C411.189 37.9691 410.337 37.5856 409.609 37.7151C409.299 37.7703 408.175 38.3849 407.11 39.0809C406.046 39.7768 404.946 40.3871 404.665 40.4371C404.384 40.4871 403.469 40.3837 402.63 40.2073C399.734 39.5983 398.969 39.8759 400.569 40.9557C401.927 41.8718 404.188 42.0348 406.586 41.3893ZM399.234 37.9205C400.57 37.5632 402.038 36.135 402.36 34.88C402.439 34.5693 402.562 34.3152 402.632 34.3152C402.702 34.3152 403.225 34.624 403.794 35.0015C405.127 35.8861 406.319 36.2656 407.779 36.2698C410.015 36.2762 411.84 35.2471 412.664 33.5148C413.254 32.2761 413.272 29.8504 412.699 28.9685C411.906 27.7502 410.475 27.2049 408.089 27.2115C405.435 27.2189 403.737 27.9482 402.977 29.4078C402.765 29.8151 402.484 30.1738 402.352 30.2048C402.221 30.2359 401.743 29.9819 401.291 29.6403C399.475 28.269 397.516 27.9012 395.473 28.5479C393.294 29.2372 391.058 31.7345 390.86 33.6998C390.658 35.6953 391.784 36.84 394.82 37.7258C396.124 38.1063 398.197 38.1978 399.234 37.9205Z" fill="#00FFCC" stroke="#00FFCC" stroke-width="6.60534"/>
<path d="M410.446 99.5823C406.45 98.9828 401.382 97.4045 399.761 96.2547C398.473 95.3413 397.532 93.9674 397.062 92.3135C396.478 90.263 396.849 88.5777 398.388 86.2903C399.194 85.0926 399.624 84.6749 401.178 83.5756C402.588 82.579 403.387 82.1496 404.608 81.7322C409.397 80.0956 415.77 79.5555 421.091 80.3352C423.393 80.6725 425.011 81.1657 427.035 82.1469C429.51 83.3469 429.741 83.3042 430.786 81.4555C431.23 80.6686 432.888 77.3138 434.468 74.0004C439.311 63.8498 442.847 57.1116 444.574 54.7459C445.989 52.8079 446.801 52.8253 448.631 54.8331C451.466 57.9433 453.652 61.1857 454.497 63.5338C455.274 65.6927 454.95 68.2385 453.776 69.2072L453.281 69.615L453.032 69.2849C452.895 69.1034 452.695 68.0908 452.587 67.0347C452.373 64.9526 452.026 63.9307 451.078 62.5983C450.254 61.4408 449.364 60.7539 448.295 60.4502C445.962 59.7882 444.52 61.0312 444.806 63.4578C444.964 64.7929 445.549 66.055 446.888 67.9489C449.059 71.0177 449.367 73.7594 447.805 76.1026C447.183 77.0342 445.661 78.261 445.38 78.0569C445.263 77.9718 445.306 77.5906 445.489 77.0927C445.882 76.0266 445.873 75.0913 445.455 73.6552C444.864 71.6248 443.626 70.2287 442.515 70.3415C441.841 70.4099 440.716 72.189 438.919 76.0296C437.102 79.9118 435.796 83.2219 434.555 87.0899C433.535 90.2698 432.791 91.8709 431.675 93.2927C429.641 95.8847 424.222 98.5442 419.095 99.4669C416.706 99.8969 412.883 99.9479 410.446 99.5823ZM419.109 95.0168C420.802 94.5557 422.016 93.7213 422.016 93.0188C422.016 91.9217 420.789 91.9065 419.014 92.9815C417.775 93.7315 416.762 94.1085 415.541 94.2739C414.275 94.4455 413.184 94.0105 411.69 92.7386C411.01 92.1591 410.244 91.6478 409.989 91.6023C409.121 91.4477 408.752 91.5937 408.68 92.1202C408.564 92.9791 410.844 94.7833 412.655 95.2647C413.845 95.5812 417.56 95.4385 419.109 95.0168ZM421.365 90.0924C423.456 89.3531 424.543 87.8188 424.55 85.5973C424.557 83.4776 423.801 82.6127 421.524 82.1329C419.326 81.67 418.781 81.8236 417.132 83.3681L416.079 84.3557L415.463 83.3951C414.124 81.3044 411.436 80.4547 408.907 81.3232C405.635 82.4468 404.977 87.7919 407.915 89.3816C409.555 90.2687 411.501 90.1296 413.658 88.9709C414.414 88.565 415.073 88.2329 415.121 88.2329C415.17 88.2329 415.597 88.6048 416.07 89.0594C417.577 90.5064 419.263 90.8354 421.365 90.0924Z" fill="#E9C6AF" stroke="#E9C6AF" stroke-width="6.60534"/>
<path d="M89.306 116.995C89.3216 115.631 92.1257 112.41 93.837 111.791C94.8197 111.435 95.221 111.486 96.0566 112.069C97.004 112.732 97.64 113.589 97.8654 114.507C98.0566 115.286 97.987 116.546 97.7431 116.719C97.6479 116.787 97.2615 116.722 96.6386 116.535C95.5021 116.193 94.0125 116.087 92.9326 116.271C92.5174 116.342 91.6514 116.635 91.0081 116.924C89.5248 117.588 89.2991 117.598 89.306 116.995Z" fill="#F9F9F9" stroke="#F9F9F9" stroke-width="4.67068"/>
<path d="M107.393 118.49C107.849 116.979 109.455 115.429 111.259 114.761C112.992 114.119 114.285 114.572 115.35 116.194C115.613 116.596 115.718 116.94 115.719 117.408C115.721 118.302 115.588 118.368 114.139 118.192C112.748 118.024 111.297 118.103 109.491 118.447C107.118 118.898 107.271 118.895 107.393 118.49Z" fill="#F9F9F9" stroke="#F9F9F9" stroke-width="4.67068"/>
<path d="M157.061 121.797C156.25 121.518 155.878 120.04 156.315 118.831C156.607 118.022 157.253 117.163 157.779 116.885C159.275 116.092 161.274 116.767 162.52 118.484C163.263 119.508 163.481 119.982 163.494 120.599C163.51 121.328 163.34 121.394 161.342 121.434C160.098 121.459 159.369 121.53 158.677 121.694C157.618 121.946 157.513 121.953 157.061 121.797Z" fill="#F9F9F9" stroke="#F9F9F9" stroke-width="4.67068"/>
<path d="M169.651 119.723C169.458 119.388 169.532 116.478 169.744 116.034C169.997 115.507 170.654 115.245 171.269 115.426C172.173 115.691 174.265 117.521 174.265 118.046C174.265 118.368 173.413 118.853 171.938 119.37C170.416 119.904 169.809 119.997 169.651 119.723Z" fill="#F9F9F9" stroke="#F9F9F9" stroke-width="4.67068"/>
<path d="M225.169 108.696C224.734 108.119 225.478 105.929 226.31 105.339C227.144 104.746 228.099 104.924 229.498 105.933C230.902 106.945 231.244 107.774 230.433 108.201C230.197 108.326 229.291 108.5 228.032 108.663C225.548 108.985 225.389 108.987 225.169 108.696Z" fill="#F9F9F9" stroke="#F9F9F9" stroke-width="4.67068"/>
<path d="M212.164 110.888C212.334 108.807 213.698 106.739 215.135 106.384C215.532 106.286 215.64 106.31 216.112 106.604C216.885 107.086 218.006 108.768 218.033 109.485L218.053 110.037L217.232 110.388C216.567 110.673 214.875 111.186 212.363 111.867C212.09 111.941 212.081 111.895 212.164 110.888Z" fill="#F9F9F9" stroke="#F9F9F9" stroke-width="4.67068"/>
<path d="M263.2 95.2246C262.177 94.932 265.076 91.1421 266.322 91.1421C267.537 91.1421 268.987 92.4944 269.131 93.7611C269.237 94.6966 269.028 94.8217 267.195 94.9204C266.422 94.962 265.283 95.0634 264.663 95.1456C263.454 95.3062 263.48 95.3048 263.2 95.2246Z" fill="#F9F9F9" stroke="#F9F9F9" stroke-width="4.67068"/>
<path d="M246.179 70.2781C245.854 70.0918 245.827 70.0027 245.856 69.2366C245.901 68.0664 246.374 67.0315 247.099 66.5174C247.761 66.0481 248.197 66.0095 249.148 66.336C250.37 66.7558 251.248 67.7299 251.755 69.2299C252.222 70.6117 252.477 70.4819 249.293 70.4819C246.798 70.4819 246.499 70.4623 246.179 70.2781Z" fill="#F9F9F9" stroke="#F9F9F9" stroke-width="4.67068"/>
<path d="M232.686 71.2788C232.23 70.8886 232.973 68.5991 233.985 67.2805C234.515 66.5896 235.268 66.1157 235.835 66.1157C236.761 66.1157 237.682 67.2593 238.259 69.1284C238.659 70.4202 238.644 70.4336 236.712 70.5156C234.834 70.5953 234.327 70.6946 233.651 71.116C233.056 71.4867 232.95 71.5046 232.686 71.2788Z" fill="#F9F9F9" stroke="#F9F9F9" stroke-width="4.67068"/>
<path d="M278.219 94.8935C276.167 94.7068 276.155 94.2319 278.162 92.6433L278.748 92.1794L279.403 92.164L280.057 92.1487L280.5 92.5214C281.494 93.3594 281.894 93.8451 281.896 94.2162C281.897 94.4854 281.605 94.6934 281.064 94.8085C280.586 94.9105 278.944 94.9595 278.219 94.8935Z" fill="#F9F9F9" stroke="#F9F9F9" stroke-width="2.33534"/>
<path d="M319.192 72.0496C318.176 71.9771 316.978 71.863 316.753 71.8174C316.327 71.7312 316.001 71.5608 315.885 71.3645C315.723 71.0893 315.752 70.5189 315.949 70.1095C316.375 69.2213 317.495 68.3552 318.217 68.3552C319.085 68.3552 320.12 69.5459 320.539 71.0289C320.776 71.8645 320.679 72.0275 319.929 72.055C319.689 72.0638 319.357 72.0614 319.192 72.0496Z" fill="#F9F9F9" stroke="#F9F9F9" stroke-width="2.33534"/>
<path d="M328.386 71.9525C327.591 71.8648 326.709 71.6727 326.656 71.5758C326.549 71.3771 327.205 70.2137 327.765 69.6086C328.169 69.1733 328.459 69.0577 328.91 69.1534C330.104 69.4074 331.116 70.5947 330.914 71.504C330.814 71.95 330.628 72.0314 329.722 72.0248C329.322 72.0219 328.721 71.9894 328.386 71.9525Z" fill="#F9F9F9" stroke="#F9F9F9" stroke-width="2.33534"/>
<path d="M376.4 79.0736C376.276 79.0618 375.751 78.9944 375.233 78.9239C374.714 78.8534 373.904 78.7598 373.433 78.716C372.441 78.6238 372.348 78.5786 372.415 78.2189C372.565 77.4096 374.646 75.7762 375.819 75.5463C376.63 75.3875 377.145 75.8458 377.343 76.9039C377.449 77.4693 377.402 78.6541 377.265 78.8554C377.182 78.9776 376.818 79.1291 376.67 79.103C376.646 79.0986 376.524 79.0854 376.4 79.0736Z" fill="#F9F9F9" stroke="#F9F9F9" stroke-width="2.33534"/>
<path d="M363.181 78.1077C362.969 78.0558 362.704 77.9709 362.593 77.919C362.361 77.8113 362.177 77.5388 362.177 77.3034C362.177 76.5408 364.395 74.7454 365.338 74.7454C365.788 74.7454 366.16 75.0184 366.603 75.6732C367.01 76.276 367.131 76.578 367.131 76.9964C367.131 77.578 366.553 78.0063 365.582 78.1446C364.917 78.2393 363.637 78.2197 363.181 78.1077Z" fill="#F9F9F9" stroke="#F9F9F9" stroke-width="2.33534"/>
<path d="M420.796 85.9188C419.832 85.7351 418.847 85.6662 418.588 85.7644C418.337 85.8599 418.247 85.7648 418.247 85.4028C418.247 85.1459 418.288 85.0508 418.496 84.8203C419.173 84.072 420.934 83.2919 421.713 83.3955C422.248 83.4667 422.579 84.1309 422.58 85.1313C422.58 85.7287 422.515 85.9461 422.305 86.0454C422.148 86.1198 421.618 86.0754 420.796 85.9188Z" fill="#F9F9F9" stroke="#F9F9F9" stroke-width="2.33534"/>
<path d="M410.739 85.5177C409.528 85.4393 408.473 85.2205 408.259 85.0032C408.085 84.8269 408.127 84.497 408.37 84.132C408.871 83.3815 409.596 82.7847 410.308 82.537C411.124 82.2533 411.972 82.3726 412.545 82.8516C412.999 83.2321 413.628 84.4594 413.628 84.966C413.628 85.2554 413.446 85.4167 413.022 85.5031C412.782 85.5519 411.403 85.5608 410.739 85.5177Z" fill="#F9F9F9" stroke="#F9F9F9" stroke-width="2.33534"/>
<path d="M405.972 32.1296C405.443 32.0764 405.126 31.9585 405.003 31.7692C404.861 31.5504 404.813 30.818 404.918 30.4597C405.121 29.766 405.837 29.0378 406.735 28.6124C407.523 28.239 408.618 28.0777 409.119 28.2613C409.722 28.4826 410.638 29.5557 410.893 30.3406C411.056 30.8406 411.016 31.4277 410.806 31.6272C410.604 31.8195 410.099 31.9966 409.538 32.0717C408.981 32.1463 406.533 32.186 405.972 32.1296Z" fill="#F9F9F9" stroke="#F9F9F9" stroke-width="2.33534"/>
<path d="M393.671 34.792C393.468 34.6478 393.409 34.3785 393.461 33.8334C393.514 33.2808 393.785 32.5032 394.141 31.8827C394.653 30.9929 396.02 29.7361 396.762 29.4731C397.49 29.215 398.225 29.38 399.075 29.9929C400.387 30.9387 400.641 32.2841 399.645 33.0204C399.311 33.2677 399.084 33.3408 398.133 33.5078C397.094 33.6904 396.294 33.9251 395.571 34.26C394.999 34.5251 394.285 34.7963 393.986 34.8619C393.871 34.8872 393.775 34.8658 393.671 34.792Z" fill="#F9F9F9" stroke="#F9F9F9" stroke-width="2.33534"/>
<path d="M457 65.283C457.011 62.0954 455.607 59.4522 451.409 54.7536C448.212 51.1752 446.901 50.5432 443.515 50.949C441.162 51.231 440.848 51.448 439.387 53.7912C438.518 55.1864 436.587 59.4594 435.098 63.2868C432.277 70.5346 431.55 71.058 431.55 65.8446C431.55 64.2764 430.811 60.5846 429.907 57.6408C427.882 51.0492 426.043 42.163 424.939 33.6339C423.747 24.424 422.7 23.6817 410.866 23.6489C400.557 23.6204 393.478 25.0167 387.539 28.2505C384.586 29.8585 384.572 29.8613 381.893 29.2063C380.415 28.8452 378.434 28.2659 377.488 27.9191C374.269 26.7379 365.691 25.4633 358.993 25.1708C353.492 24.9306 351.142 25.0505 345.705 25.8482C334.177 27.5394 329.916 29.6861 327.584 34.9773C327.402 35.3901 324.728 36.7005 321.642 37.8896C318.556 39.0787 313.056 41.4396 309.419 43.1355C294.719 49.9904 290.477 51.1818 280.709 51.2011C274.512 51.2139 266.267 50.6287 264.025 50.0184C262.398 49.5754 260.552 36.2585 262.118 36.2585C262.787 36.2585 267.425 39.7283 269.152 41.5209C270.663 43.0897 270.972 44.5674 269.728 44.2738C269.291 44.1705 268.789 43.4936 268.612 42.769C268.345 41.6746 267.945 41.4278 266.247 41.3112C264.519 41.1926 264.141 41.3462 263.802 42.3034C262.617 45.6543 267.931 49.8048 273.407 49.8048C276.478 49.8048 279.008 48.6931 280.648 46.6232C283.419 43.1248 281.586 39.3663 274.365 33.7431C271.836 31.7738 268.545 28.8333 267.051 27.2081C264.142 24.0417 261.918 22.7123 259.53 22.7123C256.999 22.7123 255.906 23.6835 255.214 26.5506C254.491 29.5416 254.342 48.3286 255.03 49.601C255.394 50.2744 255.219 50.3523 253.924 50.0905C253.078 49.9193 247.086 49.0561 240.61 48.173C229.031 46.594 228.64 46.572 217.061 46.8217C202.876 47.1275 197.939 47.8334 185.874 51.2824C170.959 55.5461 162.74 58.7984 152.393 64.5303C146.511 67.7884 144.912 68.3184 140.962 68.3184C138.462 68.3184 138.138 68.4345 138.129 69.3344C138.115 70.8788 137.47 71.3227 133.738 72.3664C125.656 74.6265 112.861 75.7422 102.713 75.0717C91.3005 74.3175 87.3688 73.338 63.9384 65.4147L54.975 62.384L56.7511 57.5621C58.9903 51.4821 59.1833 46.2232 57.3087 42.3576C54.1269 35.7968 47.3142 29.8487 40.0186 27.2623C36.8073 26.1238 35.3436 25.8761 31.9055 25.8892C28.277 25.9029 26.9847 26.1616 22.3259 27.808C16.2433 29.9575 13.8053 31.8177 11.4139 36.1315C10.1712 38.3732 9.96138 39.6043 9.92872 44.838C9.90776 48.1907 10.1354 51.8186 10.435 52.9003L10.9795 54.8674L8.41929 54.5605C7.0113 54.3921 4.54634 54.3938 2.94186 54.5644C0.62476 54.8109 0.0246259 55.0551 0.0246259 55.7536C0.0246259 56.5292 0.344785 56.6019 2.73024 56.3661C4.21797 56.2191 6.82654 56.3584 8.52746 56.677L11.62 57.2551L13.6692 61.0934C14.7966 63.2044 17.2005 67.0108 19.0105 69.5519C20.8206 72.0929 22.3017 74.3497 22.3017 74.5669C22.3017 74.7841 19.3653 75.0728 15.7772 75.2085C9.01687 75.4642 5.47913 76.0877 5.88523 76.952C6.04093 77.2832 9.16548 77.4733 15.1125 77.5136C20.0583 77.5471 24.3124 77.7223 24.5663 77.9025C25.0415 78.2398 22.7266 81.6685 16.3441 90.0809L12.68 94.9114L7.30701 94.6422C2.87093 94.4201 1.93403 94.4869 1.93403 95.0258C1.93403 95.4774 3.22679 95.8357 6.13043 96.1886C8.43834 96.4691 10.4767 96.8049 10.6597 96.9347C10.8427 97.0645 10.6489 97.8413 10.2317 98.6611C7.46515 104.087 6.63947 108.33 7.92517 110.513C9.69979 113.526 9.46148 113.795 4.82329 114.004C2.56138 114.107 0.527855 114.32 0.304322 114.479C-0.813016 115.271 1.17929 115.73 5.73976 115.73H10.7426L14.4533 118.334C18.5527 121.211 23.6981 123.327 30.342 124.868C33.767 125.662 36.1584 125.878 41.3957 125.869C47.2319 125.859 48.7919 125.679 53.708 124.445L59.3365 123.032L60.5224 124.934C62.2415 127.691 63.3202 132.862 62.6182 134.98C62.0638 136.653 61.9193 136.733 59.1957 136.872C57.6317 136.953 55.1693 136.893 53.7229 136.74C51.1831 136.471 51.0448 136.369 49.6971 133.746C48.4903 131.398 47.7809 130.759 44.4491 129.019C39.7954 126.589 38.4285 126.308 34.5916 126.993C30.3856 127.744 26.31 129.553 22.5478 132.338L19.293 134.748L10.7949 134.965C2.60876 135.174 0.964734 135.479 1.50423 136.692C1.60635 136.921 4.82382 137.138 8.65424 137.173C12.4847 137.209 16.0674 137.384 16.6163 137.563C17.4176 137.824 17.6148 138.711 17.6148 142.061C17.6148 145.841 17.8154 146.541 19.7545 149.526C22.0118 153 25.7591 155.845 30.8464 157.946C36.5908 160.319 52.8791 159.729 59.8735 156.895C66.0757 154.382 71.7159 148.424 73.3009 142.709C73.697 141.281 74.0717 140.113 74.1334 140.113C74.1951 140.113 82.0117 141.23 91.5045 142.596C103.372 144.304 110.263 145.08 113.562 145.08C119.707 145.08 128.024 143.7 134.22 141.651C136.9 140.765 141.195 139.442 143.764 138.711C146.333 137.98 149.534 136.984 150.878 136.497C153.305 135.619 153.341 135.619 156.073 136.499C159.414 137.574 161.482 137.612 167.534 136.71C177.202 135.268 186.56 130.768 189.872 125.97C190.823 124.591 191.602 123.269 191.602 123.031C191.602 122.618 199.203 120.245 200.525 120.245C200.875 120.245 202.006 121.219 203.038 122.409C206.553 126.463 213.395 127.877 222.307 126.393C226.831 125.64 233.966 123.295 238.602 121.037C241.79 119.486 245.783 115.363 246.941 112.429C247.714 110.472 247.864 110.379 251.825 109.457C257.027 108.245 258.115 108.262 261.672 109.605C267.984 111.989 280.373 112.741 287.247 111.158C290.631 110.378 294.46 107.903 296.767 105.003C298.212 103.186 299.343 102.353 301.019 101.869C308.291 99.7707 312.93 97.9548 320.1 94.4007C328.039 90.4653 336.015 87.7662 344.672 86.0845C348.249 85.3898 347.314 84.947 352.319 89.7052C355.767 92.9829 357.411 93.3788 367.594 93.3788C376.404 93.3788 376.567 93.36 380.799 91.8833C383.156 91.061 386.536 89.4357 388.31 88.2712C391.894 85.9181 392.678 84.4178 392.721 79.8326C392.734 78.3425 392.966 76.8771 393.235 76.5763C394.419 75.2545 398.784 74.459 405.137 74.4074C410.982 74.36 411.501 74.2842 411.501 73.4814C411.501 72.7041 410.96 72.5929 406.603 72.4761C403.65 72.3968 400.2 72.6214 397.918 73.0409C395.836 73.4237 393.967 73.7368 393.762 73.7368C393.558 73.7368 393.44 71.3113 393.501 68.3474C393.632 61.9835 392.98 62.3809 402.667 62.7701C407.246 62.9541 409.274 62.8842 409.274 62.5426C409.274 61.6037 407.652 61.3197 401 61.094L394.317 60.8678L394.514 57.9469C394.776 54.0354 395.237 53.7112 400.014 54.0788C402.132 54.2417 404.426 54.4135 405.113 54.4605C406.725 54.5706 407.16 53.1821 405.646 52.7599C405.016 52.5843 402.424 52.3263 399.887 52.1865L395.272 51.9325V50.2537V48.575L399.97 48.2727C402.555 48.1066 406.744 47.5629 409.281 47.0643C411.817 46.5656 413.978 46.2177 414.082 46.2917C414.187 46.3657 414.596 48.9647 414.992 52.0667C416.569 64.4145 418.947 73.2955 421.279 75.5425C422.18 76.4114 423.123 76.7027 425.373 76.8078C427.921 76.9268 428.433 76.795 429.372 75.778C429.965 75.1363 430.553 74.6848 430.679 74.7746C430.904 74.9337 429.13 79.5268 428.607 80.1414C428.462 80.3116 426.989 80.0156 425.333 79.4833C422.829 78.6787 421.087 78.5121 415.002 78.4965C407.146 78.4762 405.175 78.8992 399.811 81.754C397.189 83.1497 394.107 87.6275 393.575 90.8177C392.838 95.2279 397.523 99.7532 405.577 102.413C408.176 103.272 410.011 103.53 413.521 103.534C417.634 103.538 418.6 103.352 423.28 101.649C426.136 100.61 429.856 98.832 431.547 97.698C435.027 95.3639 435.403 94.6269 439.517 82.09C440.821 78.1165 442.12 74.5604 442.404 74.1879C443.354 72.9429 443.928 75.089 443.056 76.6252C441.496 79.3729 441.508 79.5492 443.263 79.8617C446.581 80.4525 450.209 77.5889 450.961 73.785C451.31 72.0197 451.679 71.6022 453.393 71.0275C456.074 70.1282 456.989 68.6719 457 65.2829V65.283ZM455.124 66.3169C455.088 67.0839 454.893 67.7877 454.54 68.4315C453.461 70.3975 452.555 69.8858 452.54 67.3024C452.522 64.3829 450.644 61.2798 448.467 60.5762C444.463 59.2819 443.534 63.5586 446.909 67.7443C449.293 70.7004 449.594 74.1905 447.667 76.5308C446.192 78.3227 444.537 78.8555 445.311 77.2895C446.491 74.9024 444.596 70.3503 442.422 70.3503C441.369 70.3503 436.481 80.9207 434.695 87.0576C433.143 92.3902 431.443 94.6639 427.508 96.6689C420.569 100.204 414.24 100.862 406.459 98.8583C400.809 97.4034 399.189 96.5642 397.779 94.3598C395.446 90.7148 396.929 86.1445 401.42 83.1392C407.171 79.2914 421.609 78.7457 427.329 82.1603C428.601 82.9198 429.394 83.1239 429.841 82.8065C430.201 82.5514 432.305 78.4249 434.518 73.637C436.73 68.8491 440.046 62.2318 441.885 58.9319C446.038 51.4814 446.284 51.4458 451.121 57.5978C453.908 61.1433 455.232 64.0158 455.124 66.3169ZM450.644 66.7739C450.644 68.2753 449.61 67.7907 448.389 65.7176C446.771 62.9698 446.575 61.997 447.642 61.997C448.727 61.997 450.644 65.0483 450.644 66.7739ZM443.007 147.001C443.007 146.637 439.576 145.214 434.892 143.636C427.872 141.27 415.702 137.404 415.276 137.404C415.198 137.404 413.762 138.965 412.086 140.873C409.419 143.909 398.885 154.859 398.087 155.425C397.926 155.539 396.725 154.894 395.419 153.991C390.914 150.877 385.532 150.06 383.225 152.14C378.963 155.984 384.932 159.992 394.044 159.406C396.072 159.276 398.015 159.045 398.361 158.893C398.708 158.741 400.927 156.435 403.292 153.768C412.976 142.849 415.646 140.113 416.622 140.113C417.833 140.113 434.69 146.126 436.674 147.266L438.064 148.064L435.806 151.2C434.565 152.926 432.223 156.608 430.601 159.383L427.652 164.429L424.033 162.619C420.803 161.003 420.106 160.832 417.57 161.027C415.335 161.2 414.281 161.592 412.637 162.865C409.916 164.971 409.954 166.292 412.786 168.056C415.534 169.767 417.329 170.113 421.577 169.75C429.003 169.115 429.166 169.027 431.175 164.614C433.71 159.049 439.609 149.897 441.455 148.666C442.309 148.098 443.007 147.348 443.007 147.001ZM427.502 71.5779C427.539 73.4785 427.087 74.5344 426.132 75.0968C423.55 76.6169 421.915 73.6834 420.114 64.3001C419.418 60.6739 418.598 54.373 418.291 50.2982C417.625 41.4637 417.578 41.4049 411.951 42.4443C409.954 42.8131 408.013 43.2936 407.64 43.5118C406.528 44.1613 399.017 45.7179 395.544 46.0187C393.244 46.2178 391.778 46.1 390.451 45.6086C387.739 44.6042 385.155 42.5121 384.44 40.7431C382.965 37.0961 384.876 32.8627 389.277 30.0245C393.383 27.3762 394.715 26.9567 402.552 25.8376C408.553 24.9807 409.911 24.928 414.238 25.3845C416.93 25.6686 419.498 26.1606 419.946 26.4778C420.958 27.1963 421.992 33.3614 422.001 38.7422C422.009 42.7818 423.932 54.1041 426.538 65.4451C427.151 68.1107 427.474 70.0998 427.502 71.5779ZM424.549 85.7545C424.549 83.4426 423.614 82.4965 420.938 82.1041C419.188 81.8473 418.726 81.9921 417.476 83.1915L416.034 84.5759L415.231 83.2206C413.596 80.4625 408.643 80.2667 407.031 82.8965C404.119 87.648 408.436 91.7851 413.41 89.0095L415.172 88.0259L416.413 89.235C419.205 91.9543 424.549 89.6682 424.549 85.7545ZM422.64 85.0203C422.64 86.2388 422.528 86.2944 420.778 85.9384C419.754 85.73 418.752 85.6765 418.551 85.8194C418.349 85.9622 418.184 85.7454 418.184 85.3372C418.184 84.4497 421.032 83.0193 421.975 83.4329C422.341 83.5931 422.64 84.3073 422.64 85.0204V85.0203ZM422.003 92.8947C422.003 91.9527 420.146 92.1079 418.923 93.1521C418.342 93.648 416.965 94.1766 415.864 94.3274C413.858 94.6021 413.392 94.398 410.668 92.0468C410.209 91.651 409.565 91.4454 409.236 91.5897C408.219 92.0358 408.563 92.718 410.498 94.0906C412.053 95.1934 412.876 95.4109 415.504 95.4109C418.813 95.4109 422.003 94.1757 422.003 92.8947ZM413.687 84.8841C413.758 85.5957 412.981 85.6668 410.866 85.5475C407.785 85.3737 407.407 84.9252 408.992 83.3198C410.338 81.9556 412.335 82.0307 413.109 83.4746C413.447 84.105 413.654 84.5606 413.687 84.8841ZM413.093 31.2574C413.093 29.6364 412.749 28.7899 411.82 28.1314C409.51 26.4922 403.895 27.2149 403.177 29.244C402.689 30.622 402.257 30.6689 400.844 29.498C398.209 27.315 394.204 28.1423 391.961 31.3321C390.005 34.1139 390.695 36.1755 393.986 37.383C396.868 38.4404 399.425 38.2546 400.954 36.8756C401.68 36.2213 402.273 35.2687 402.273 34.759C402.273 33.8927 402.389 33.911 404.058 35.0454C408.047 37.7571 413.093 35.6418 413.093 31.2574ZM411.11 38.3407C411.081 38.1016 410.786 37.9284 410.245 37.7811C409.674 37.6259 408.43 38.1836 407.077 39.2019C405.438 40.4347 404.549 40.7898 403.719 40.5427C403.099 40.3578 401.947 40.1076 401.159 39.9864C399.473 39.7269 399.355 39.9941 400.728 40.9679C402.465 42.2004 406.374 41.8708 408.934 40.2761C410.466 39.3218 411.158 38.7393 411.11 38.3407ZM411.068 31.0742C411.061 31.2356 411.026 31.3831 410.958 31.5094C410.702 31.9827 409.695 32.1953 407.703 32.1953C404.935 32.1953 404.819 32.1413 404.819 30.8658C404.819 29.4715 406.722 28.1314 408.702 28.1314C409.77 28.1314 411.115 29.9442 411.068 31.0742ZM400.307 31.8639C400.308 32.6755 399.669 33.3613 398.472 33.4811C397.607 33.5677 396.326 33.9235 395.626 34.2716C394.925 34.6196 394.129 34.9046 393.857 34.9046C392.935 34.9046 393.449 32.4282 394.647 31.098C396.418 29.1316 397.546 28.8416 399.109 29.9504C399.92 30.5255 400.307 31.2327 400.307 31.8639ZM392.35 50.2816C392.341 51.4285 392.246 52.9921 392.064 54.7788C391.725 58.1277 391.172 64.7289 390.836 69.4474C389.744 84.8212 389.853 84.3779 386.537 86.8935C383.051 89.5369 378.607 91.1317 372.768 91.8345C363.086 92.9997 354.632 90.3451 351.594 85.1857C349.764 82.0793 351.267 77.6268 354.812 75.6484C357.606 74.0892 362.699 73.0872 367.904 73.0728C370.529 73.0651 373.224 73.2178 373.892 73.4114C375.046 73.7457 375.025 73.8252 373.492 74.9916C371.198 76.7374 370.395 78.0182 370.277 80.1217C370.201 81.4662 370.5 82.1286 371.388 82.5896C373.215 83.5375 375.894 83.3488 377.887 82.1325C379.489 81.1549 379.662 80.7708 379.615 78.2948C379.562 75.519 379.807 75.1378 381.07 76.034C382.17 76.8142 382.43 76.0691 383.162 70.0408C383.54 66.9237 384.267 62.5683 384.776 60.3626C385.286 58.1569 385.707 54.3879 385.713 51.9868C385.728 46.1665 385.8 46.0591 389.001 47.0756C390.4 47.52 391.8 48.065 392.113 48.2868C392.28 48.405 392.358 49.1348 392.35 50.2816ZM390.367 119.27L388.523 119.419C386.831 119.556 386.645 119.754 386.258 121.826C386.026 123.068 385.811 125.727 385.78 127.734C385.75 129.741 385.555 131.505 385.347 131.652C385.139 131.8 384.065 131.53 382.96 131.052C380.22 129.866 377.918 129.959 375.59 131.349C374.134 132.218 373.632 132.899 373.632 134.002C373.632 136.667 376.665 137.408 383.036 136.3C385.408 135.888 387.715 135.39 388.162 135.194C388.73 134.945 389.03 133.164 389.165 129.235C389.271 126.154 389.584 122.651 389.862 121.451L390.367 119.27ZM383.455 45.2554C383.464 45.9249 383.419 46.7218 383.341 47.6729L383.018 51.6363L374.028 51.3393C365.58 51.0604 364.657 51.1149 358.68 52.2481C355.183 52.9112 350.787 54.0684 348.911 54.8198C347.034 55.5711 345.387 56.1067 345.25 56.0097C345.114 55.9127 344.575 54.1215 344.053 52.0292C342.5 45.7986 342.453 45.8693 349.409 43.9385C358.071 41.5339 368.56 40.6658 378.612 41.5222C382.364 41.8419 383.415 42.3539 383.455 45.2554ZM382.698 31.9459C382.695 32.0288 382.685 32.1165 382.669 32.2092C382.564 32.8223 382.321 34.7565 382.129 36.5072L381.78 39.6901L372.455 39.5035C364.017 39.3348 362.465 39.4311 356.138 40.5142C352.257 41.1785 347.649 42.3109 345.781 43.0588C342.102 44.5317 342.263 44.596 341.205 41.2259C340.09 37.6733 340.174 37.527 344.171 36.0872C350.067 33.963 366.62 33.0957 373.793 34.5355C378.82 35.5447 379.84 35.276 380.363 32.8025C380.685 31.2756 381.035 30.8307 381.824 30.9445C382.427 31.0316 382.72 31.3666 382.698 31.9459ZM382.554 55.5275C382.568 56.3331 382.417 57.4826 382.136 59.1416L381.74 61.4791L376.891 61.7794C369.862 62.2142 360.095 63.7018 354.229 65.2315C346.774 67.1753 347.061 67.1383 346.677 66.215C346.487 65.7577 346.138 63.725 345.902 61.698L345.473 58.0125L347.301 57.3465C348.306 56.9799 352.135 56.0117 355.811 55.1948C361.577 53.9133 363.648 53.6822 370.91 53.5114C375.539 53.4026 380.05 53.4426 380.934 53.6001C382.045 53.7979 382.53 54.1849 382.554 55.5276V55.5275ZM381.27 63.5038C381.27 64.2279 379.336 72.5502 379.135 72.6931C378.991 72.7954 377.049 72.4205 374.82 71.8604C371.935 71.1354 369.38 70.8474 365.951 70.8603C354.83 70.902 347.355 75.0964 347.355 81.2958V83.671L344.74 84.1519C337.543 85.4761 325.69 89.5856 312.624 95.2872C309 96.8688 304.632 98.6434 302.918 99.23L299.801 100.296L299.903 99.0951C300.623 90.5132 300.765 89.9368 302.366 89.067C303.231 88.5972 305.606 87.5769 307.645 86.8003C310.745 85.6192 311.787 85.4352 314.01 85.6752C315.472 85.8329 320.275 86.076 324.683 86.2149C332.346 86.4563 332.836 86.4171 335.822 85.3325C340.623 83.5888 343.949 80.8082 345.193 77.4985C345.77 75.9663 346.428 73.5842 346.656 72.205C346.982 70.2363 347.403 69.5428 348.614 68.9798C351.928 67.4393 361.714 65.1483 368.723 64.2717C375.286 63.4508 381.27 63.0845 381.27 63.5038ZM378.637 31.0239C378.609 32.4596 376.023 32.8894 371.03 32.2819C360.929 31.0531 349.193 32.042 341.738 34.7511L337.531 36.2803L338.371 38.8659C340.353 44.9677 343.795 61.7805 344.16 67.143C344.541 72.7575 344.488 73.1049 342.704 76.8139C339.49 83.4952 334.979 85.3801 323.373 84.89C312.88 84.4469 306.975 82.4225 305.549 78.7797C304.753 76.7455 304.772 76.3148 305.784 73.6483C307.527 69.0551 311.732 66.4301 318.386 65.7831C321.806 65.4506 329.566 66.5466 333.263 67.8838C337.794 69.5224 337.959 69.2619 336.389 62.9634C335.025 57.4936 333.506 44.9845 333.475 38.9684L333.448 33.7755L336.794 31.6311C338.679 30.4234 341.686 29.0701 343.679 28.5329C351.73 26.3637 364.835 26.3432 373.467 28.486C377.454 29.4756 378.445 29.9062 378.608 30.7229C378.629 30.8276 378.639 30.9282 378.637 31.0239L378.637 31.0239ZM377.451 77.7214C377.451 79.2127 377.379 79.2582 375.461 78.986C374.367 78.8308 373.222 78.7036 372.916 78.7036C371.786 78.7036 372.41 77.4834 374.142 76.3059C376.291 74.8451 377.451 75.3408 377.451 77.7214ZM376.492 85.1956C376.477 85.0969 376.401 85.0037 376.269 84.9099C375.74 84.5345 374.967 84.6005 373.298 85.1652C370.29 86.183 367.162 86.1294 365.184 85.0256C364.294 84.5289 363.253 84.1221 362.87 84.1221C361.592 84.1221 362.156 85.4006 363.852 86.3472C366.169 87.64 371.843 87.6409 374.831 86.3485C376.026 85.8316 376.535 85.4915 376.492 85.1956V85.1956ZM372.152 159.511C372.141 158.82 372.025 157.937 371.782 156.865C370.719 152.184 367.292 148.238 359.291 142.484C353.229 138.124 351.941 137.404 350.201 137.404C349.086 137.404 348.173 137.507 348.173 137.634C348.173 137.997 354.517 164.137 354.925 165.455C355.272 166.576 355.128 166.657 352.21 166.963C347.159 167.494 343.468 168.846 341.929 170.729C339.858 173.264 340.059 175.968 342.446 177.662C344.069 178.813 344.668 178.971 346.424 178.708C351.418 177.962 355.218 175.684 358.037 171.749C359.442 169.789 359.22 168.171 355.835 155.716C354.422 150.514 353.265 146.184 353.265 146.093C353.265 146.002 354.72 146.489 356.498 147.176C358.276 147.862 361.213 149.559 363.024 150.947C365.716 153.009 366.654 154.19 368.159 157.403C370.263 161.894 372.197 162.507 372.152 159.511ZM369.177 77.7584C369.177 74.7811 367.999 73.7369 364.638 73.7369C362.476 73.7369 362.066 73.9249 360.946 75.4302C359.51 77.3605 359.248 80.426 360.425 81.5465C360.862 81.9631 362.14 82.4323 363.264 82.5889C364.978 82.8277 365.619 82.6524 367.242 81.5008C368.906 80.3203 369.177 79.7964 369.177 77.7584ZM367.191 77.0606C367.134 77.8519 366.208 78.2525 364.423 78.2525C361.764 78.2525 361.39 77.2149 363.474 75.6279C365.142 74.3572 365.856 74.3816 366.728 75.7397C367.063 76.2601 367.216 76.7009 367.191 77.0606V77.0606ZM333.814 65.3161C333.791 65.8119 333.625 66.049 333.315 66.0404C332.91 66.0289 331.293 65.5424 329.72 64.9589L326.859 63.898L329.865 62.8622C331.518 62.2925 332.98 61.9159 333.114 62.0248C333.249 62.1337 333.515 63.0859 333.704 64.1414C333.792 64.6277 333.829 65.0187 333.814 65.3161ZM333.535 72.1567C333.535 70.5578 333.177 69.83 331.972 68.9752C329.241 67.0378 325.725 67.7918 324.887 70.4945C324.681 71.1601 324.417 71.9084 324.3 72.1567C323.653 73.5324 324.617 75.0658 326.582 75.7867C329.088 76.7058 330.171 76.6156 331.972 75.3376C333.177 74.4827 333.535 73.7556 333.535 72.1567ZM332.9 79.1593C332.905 78.8825 332.611 78.7036 331.971 78.7036C331.462 78.7036 329.99 79.2118 328.701 79.8327C327.411 80.4536 325.72 80.9618 324.942 80.9618C324.165 80.9618 322.474 80.4536 321.184 79.8327C319.895 79.2118 318.544 78.7036 318.184 78.7036C316.988 78.7036 317.915 80.1745 319.71 81.1245C322.168 82.425 327.485 82.3583 330.611 80.9876C332.055 80.3543 332.892 79.6207 332.9 79.1593ZM332.768 59.8599C332.77 59.928 332.765 59.9672 332.753 59.9744C332.658 60.0322 331.291 60.5388 329.716 61.1001C328.141 61.6615 326.169 62.4995 325.334 62.9621C324.238 63.5693 322.754 63.8027 319.997 63.8027C317.897 63.8027 315 64.0505 313.56 64.3531C309.953 65.1104 305.313 68.5433 303.944 71.4681C302.279 75.0245 301.278 74.4189 300.79 69.5599C300.56 67.2627 300.232 64.862 300.061 64.2248C299.778 63.1639 300.385 62.7866 307.255 59.7594C311.382 57.9409 316.764 55.3897 319.214 54.0895C324.613 51.2253 328.663 49.72 329.998 50.0832C330.543 50.2317 330.989 50.4345 330.989 50.5337C330.989 50.6329 331.424 52.7738 331.957 55.2914C332.424 57.4943 332.757 59.3834 332.768 59.8599H332.768ZM330.989 71.2327C330.989 72.0733 330.695 72.1767 328.761 72.0165C327.536 71.915 326.556 71.702 326.583 71.5429C326.686 70.9507 327.361 69.8808 327.983 69.3231C328.857 68.5394 330.989 69.8935 330.989 71.2327ZM330.28 47.0532C330.288 47.1901 330.278 47.2737 330.248 47.2906C330.13 47.3582 328.353 47.9513 326.298 48.6089C324.243 49.2665 318.515 51.911 313.569 54.4851C304.24 59.3397 300.881 60.806 300.2 60.3229C299.981 60.1673 299.801 58.7778 299.801 57.2353C299.801 54.0355 299.201 53.4553 295.53 53.108C293.688 52.9336 292.706 53.1106 291.368 53.8587C289.681 54.8023 289.618 54.9906 289.618 59.0788C289.618 63.0138 289.515 63.3589 288.186 63.8662C286.39 64.5521 271.002 64.9524 268 64.3914C265.829 63.9857 265.782 63.9259 265.066 60.6173C264.665 58.7683 264.129 56.0631 263.875 54.6055L263.413 51.9551L265.854 52.2514C267.197 52.4144 272.329 52.6635 277.259 52.805C285.182 53.0325 286.806 52.9493 291.261 52.0847C297.51 50.8722 304.829 48.1469 312.333 44.2394C319.153 40.6878 326.152 37.6138 327.417 37.6138C328.034 37.6138 328.455 38.3715 328.736 39.9844C328.963 41.2882 329.445 43.4378 329.806 44.7613C330.077 45.7539 330.257 46.6425 330.28 47.0532ZM326.533 158.876C326.533 157.18 319.565 143.168 318.394 142.509C316.357 141.363 310.506 142.3 299.643 145.512C294.962 146.896 294.71 147.043 294.717 148.396C294.722 149.18 295.136 150.838 295.637 152.08C298.263 158.576 300.437 164.329 300.437 164.778C300.437 165.056 299.364 165.407 298.051 165.557C295.217 165.881 291.073 168.163 290.741 169.584C290.456 170.804 291.278 172.133 292.528 172.474C294.77 173.084 298.228 172.064 301.297 169.887C304.842 167.371 304.801 168.31 301.768 159.387C300.687 156.204 299.801 153.313 299.801 152.962C299.801 152.611 301.01 151.886 302.486 151.351C306.753 149.807 316.179 147.435 316.839 147.738C317.329 147.965 321.441 157.005 321.441 157.857C321.441 157.993 320.449 158.337 319.237 158.621C315.7 159.449 313.167 161.411 313.167 163.323V164.948H316.485C319.688 164.948 319.92 164.861 323.168 162.424C325.194 160.904 326.533 159.492 326.533 158.876ZM323.351 72.3948C323.351 67.1643 315.138 65.4392 313.795 70.3874C313.099 72.9501 313.1 73.1008 313.844 74.4883C314.669 76.0274 315.491 76.4299 317.831 76.4388C320.344 76.4491 323.351 74.2463 323.351 72.3948H323.351ZM320.706 71.6196C320.736 72.1692 320.242 72.1425 318.312 72.0118C316.089 71.8614 315.713 71.6847 315.713 70.7869C315.713 69.7678 317.189 68.3184 318.227 68.3184C319.098 68.3184 320.143 69.4695 320.535 70.8603C320.628 71.189 320.696 71.4364 320.706 71.6196ZM316.236 145.465C316.276 146.144 315.444 146.462 311.762 147.293C309.209 147.87 305.188 148.92 302.825 149.626C298.712 150.856 298.529 150.872 298.529 150.009C298.529 149.313 300.032 148.59 305.14 146.828C312.501 144.289 315.915 143.825 316.218 145.324C316.228 145.373 316.234 145.42 316.236 145.465ZM308.01 84.2392C308.017 84.2661 308.012 84.2849 307.995 84.2941C306.769 84.9814 301.719 87.2831 301.437 87.2831C300.823 87.2831 301.056 76.7137 301.686 76.007C302.208 75.4218 302.315 75.4218 302.582 76.007C302.749 76.3725 303.363 77.7446 303.947 79.0562C304.531 80.3677 305.734 82.0527 306.621 82.8006C307.397 83.4549 307.968 84.0511 308.01 84.2392L308.01 84.2392ZM297.635 74.7416C297.632 76.7221 297.62 78.8678 297.601 81.1873C297.433 101.626 297.427 101.669 293.916 105.182C290.427 108.675 281.384 111.114 274.115 110.523C268.294 110.049 262.509 108.639 260.019 107.088C258.418 106.09 257.457 104.902 256.529 102.771C254.246 97.5264 254.961 95.1033 259.86 91.4945C263.767 88.6168 268.996 87.116 275.837 86.9088C284.459 86.6475 288.244 87.1111 290.311 88.6807C293.234 90.901 293.569 90.5033 293.097 85.3643C292.863 82.8187 292.629 74.9498 292.577 67.8785L292.483 55.0222L294.22 54.5869C295.176 54.3478 296.178 54.3083 296.448 54.499C297.309 55.1082 297.663 60.8779 297.635 74.7416V74.7416ZM290.248 84.5176C290.255 86.0008 290.2 86.0329 288.186 85.7281C281.316 84.6879 278.338 84.6074 272.434 85.3008C266.094 86.0453 262.29 87.0091 258.881 88.7343C256.994 89.6891 256.185 89.7668 248.143 89.7668C243.359 89.7668 239.314 89.6648 239.152 89.5406C238.991 89.4164 238.674 88.8866 238.448 88.3632C238.051 87.4463 238.285 87.403 244.892 87.1627C255.212 86.7875 261.968 84.611 264.874 80.7256C266.544 78.491 267.279 78.3427 272.434 79.2043C274.009 79.4676 278.486 79.6832 282.384 79.6832H289.469L289.855 81.3388C290.067 82.249 290.244 83.6795 290.248 84.5176ZM289.618 77.2775L287.624 77.5884C284.347 78.0991 273.617 77.8776 270.244 77.2299L267.1 76.6267L266.985 73.7144H266.986C266.924 72.1126 266.652 69.8061 266.384 68.5889L265.897 66.3757L269.961 66.6522C272.196 66.8042 277.275 66.7014 281.246 66.424C287.316 66.0001 288.557 66.0206 289.033 66.5543C289.345 66.9035 289.604 69.4593 289.609 72.2334L289.618 77.2775ZM284.336 95.057C284.344 94.6814 284.297 94.3068 284.188 93.9418C283.543 91.7885 282.149 90.8952 279.435 90.8952C276.512 90.8952 275.049 91.9587 274.022 94.8288C273.603 95.9991 273.395 97.3248 273.561 97.7748C273.977 98.9031 276.763 100.378 278.48 100.378C281.511 100.378 284.278 97.6863 284.336 95.057ZM281.96 94.2745C281.908 94.7522 281.089 94.9591 279.472 94.9591C276.253 94.9591 275.845 94.4313 277.837 92.8471L279.438 91.5725L280.709 92.6388C281.578 93.3678 282.001 93.903 281.96 94.2745ZM279.803 104.058C279.734 103.625 278.48 103.543 276.67 104.152C273.735 105.14 271.605 105.087 270.205 103.99C269.572 103.494 268.669 103.087 268.198 103.087C266.716 103.087 267.269 104.755 269.021 105.57C271.09 106.532 276.002 106.312 278.512 105.146C279.459 104.706 279.844 104.319 279.803 104.059V104.058ZM278.585 43.74C278.546 45.2704 277.917 46.8179 276.843 47.5803C275.168 48.7687 271.205 48.742 269.371 47.53C267.49 46.2865 267.619 45.8601 269.809 46.0881C271.167 46.2295 271.893 46.0218 272.622 45.2838C274.806 43.0718 270.769 38.3417 263.73 34.8648C259.241 32.6476 258.812 33.1253 259.267 39.8322C259.48 42.9581 260.504 49.2748 261.544 53.8693C263.963 64.5526 264.615 73.7934 263.217 77.5752C262.666 79.0653 261.709 80.792 261.09 81.4128C259.252 83.2581 253.647 84.9695 247.72 85.4952C235.255 86.6009 226.167 83.8672 221.751 77.6836C220.861 76.4381 219.982 74.3767 219.796 73.1025C219.48 70.9305 219.593 70.6918 221.601 69.2807C224.52 67.2308 230.415 64.4165 234.774 62.9925C239.538 61.4363 248.487 61.0538 253.41 62.1961C255.207 62.6131 257.027 62.8588 257.454 62.7424C258.56 62.4412 259.272 49.2668 258.434 44.6124C258.076 42.6257 257.609 38.1552 257.395 34.6783C257.077 29.5016 257.187 28.0503 258.004 26.6637C258.993 24.986 260.977 24.3231 260.977 25.6702C260.977 27.1271 263.145 29.2078 269.998 34.3291C273.886 37.2352 277.482 40.3164 277.989 41.1763C278.42 41.9096 278.609 42.8218 278.585 43.74V43.74ZM271.712 94.9306C271.733 94.4415 271.664 93.9202 271.514 93.3505C270.971 91.3003 269.119 89.9924 266.758 89.9924C263.936 89.9924 262.827 90.4441 261.885 91.9787C261.413 92.7486 261.016 94.4229 261.002 95.6992C260.973 98.3412 262.185 99.7167 264.951 100.181C266.384 100.422 267.089 100.195 268.891 98.9171C270.779 97.5777 271.649 96.3981 271.712 94.9306ZM269.251 93.8803C269.251 94.7547 268.919 94.9606 267.501 94.9657C266.538 94.9696 265.106 95.0944 264.319 95.2442C263.342 95.4299 262.892 95.3197 262.901 94.8989C262.926 93.8201 264.871 91.423 265.962 91.1261C267.293 90.7635 269.251 92.4028 269.251 93.8803ZM265.031 162.092C265.02 161.169 264.901 160.572 264.673 160.27C263.501 158.716 262.924 160.376 262.104 167.654L261.335 174.488L258.347 174.197C255.187 173.888 253.482 174.286 250.953 175.92C248.734 177.354 249.053 179.137 251.686 180.023C255.748 181.391 258.876 180.79 262.807 177.889C264.907 176.338 264.945 176.241 264.546 173.448C264.322 171.877 264.41 168.469 264.74 165.874C264.945 164.265 265.042 163.015 265.031 162.092ZM256.329 106.725C254.505 107.105 247.273 108.391 247.225 108.345C247.187 108.309 245.724 104.927 243.973 100.829C242.221 96.7316 240.602 93.0741 240.375 92.7016C240.021 92.1224 241.021 92.0219 247.286 92.0058C251.315 91.9955 254.612 92.1226 254.612 92.2889C254.612 92.4551 254.183 93.3208 253.658 94.2123C253.133 95.1039 252.703 97.1402 252.703 98.7372C252.703 101.079 253.067 102.131 254.579 104.17C255.61 105.561 256.397 106.711 256.329 106.725ZM254.93 52.3189V56.3675C254.93 60.155 254.848 60.4086 253.658 60.2971C252.957 60.2316 249.807 60.0589 246.657 59.9135C241.22 59.6625 239.621 59.8051 230.108 61.3892C229.048 61.5657 228.587 61.1435 227.351 58.8631C225.5 55.4493 225.055 55.3512 214.499 56.0275C200.733 56.9095 186.12 59.6347 171.553 64.0369C163.597 66.4412 155.323 70.9741 155.323 72.9279C155.323 73.5526 156.469 75.798 157.869 77.9178C159.27 80.0377 160.415 81.8992 160.415 82.0551C160.415 82.2111 158.255 83.0375 155.614 83.8913C152.973 84.745 149.993 85.8572 148.992 86.3631C147.99 86.8689 147 87.2831 146.792 87.2831C146.286 87.2831 146.452 83.0022 147.044 80.7355C147.304 79.7421 148.024 77.1011 148.645 74.866C149.266 72.6308 149.745 70.2474 149.711 69.5698C149.659 68.5399 150.506 67.8688 154.873 65.4788C160.687 62.297 171.214 57.7936 177.73 55.7008C183.613 53.8112 197.833 50.3875 204.197 49.3285C210.598 48.2632 222.822 48.1575 231.382 49.093C239.429 49.9726 248.69 51.1834 252.066 51.7977L254.93 52.3189ZM253.976 70.0117C253.976 68.0564 253.695 67.5771 251.735 66.1866C249.806 64.8176 249.209 64.6369 247.439 64.8835C246.309 65.0411 245.025 65.5107 244.588 65.9273C244.104 66.3876 243.793 68.1234 243.793 70.3516C243.793 74.5877 244.92 75.9944 248.314 75.9944C252.32 75.9944 253.976 74.2442 253.976 70.0117ZM252.226 70.5759H248.963C245.819 70.5759 245.703 70.5312 245.742 69.3344C245.804 67.4335 246.805 66.0609 248.129 66.0609C249.737 66.0609 251.326 67.3855 251.82 69.1379L252.226 70.5759ZM249.521 80.2011C249.521 79.3564 248.234 79.4699 246.02 80.51C243.756 81.5736 240.448 81.6852 239.337 80.7355C238.901 80.363 237.997 80.0582 237.327 80.0582C236.312 80.0582 236.222 80.2065 236.783 80.9512C237.712 82.1824 239.468 82.7675 242.232 82.7675C244.843 82.7675 249.521 81.1206 249.521 80.2011ZM244.296 109.792C244.269 112.327 242.779 114.249 239.319 116.633C231.764 121.839 220.063 125.804 214.468 125.055C210.703 124.55 206.329 122.286 204.947 120.127C203.04 117.146 203.536 113.568 206.407 109.593C209.184 105.75 214.046 103.265 223.213 101.002C228.008 99.8183 228.641 99.7625 231.373 100.281C234.517 100.878 235.518 100.73 235.518 99.6705C235.518 99.3107 234.377 96.2373 232.982 92.8412C231.588 89.445 230.565 86.5825 230.709 86.4801C231.305 86.0574 234.933 86.9606 235.441 87.6581C236.431 89.0181 243.045 104.233 243.854 107.012C244.151 108.034 244.305 108.947 244.296 109.792ZM241.053 71.4245C241.155 68.7777 239.664 65.815 237.465 65.1686C235.186 64.4989 232.205 65.4543 230.787 67.3084C229.624 68.828 229.516 73.5524 230.609 75.0842C232.56 77.8205 238.495 77.0825 240.388 73.8685C240.809 73.1541 241.02 72.3067 241.053 71.4245ZM238.575 70.0857C238.559 70.5617 238.07 70.5759 236.562 70.5759C235.329 70.5759 234.143 70.7793 233.927 71.0276C233.71 71.276 233.264 71.4794 232.935 71.4794C232.175 71.4794 232.245 70.2838 233.108 68.5439C234.879 64.9725 237.18 65.2204 238.357 69.1088C238.493 69.558 238.583 69.8694 238.575 70.0857ZM233.545 108.995C233.696 106.223 231.298 104.048 227.44 103.681C224.837 103.433 223.869 103.866 223.216 105.571C223.026 106.067 222.941 107.634 223.028 109.053C223.225 112.298 224.535 113.473 227.954 113.473C230.744 113.473 232.675 112.301 233.321 110.215C233.45 109.798 233.523 109.391 233.545 108.995ZM232.481 98.5719H227.734C224.632 98.5719 221.696 98.8873 219.257 99.4827C214.654 100.606 207.932 103.662 205.895 105.557C203.059 108.194 201.015 112.144 200.771 115.456C200.646 117.168 200.464 118.6 200.369 118.64C199.961 118.808 193.043 120.246 192.642 120.246C192.401 120.246 192.389 118.962 192.615 117.392C193.084 114.145 192.747 113.513 187.69 108.187H187.689C185.99 106.398 184.601 104.838 184.601 104.721C184.601 104.192 189.372 101.803 193.622 100.203C204.518 96.1012 215.8 93.5365 225.864 92.8729C230.948 92.5377 231.24 92.7063 232.026 96.4268L232.481 98.5719ZM231.028 107.577C231.056 108.126 230.377 108.474 228.995 108.61C227.857 108.721 226.514 108.896 226.009 108.997C224.852 109.231 224.626 108.248 225.403 106.361C226.13 104.596 227.696 104.441 229.679 105.938C230.557 106.602 231.007 107.15 231.028 107.577ZM229.465 117.098C229.461 117.079 229.453 117.063 229.44 117.049C228.864 116.387 228.113 116.553 226.017 117.805C224.268 118.849 223.711 118.942 220.876 118.665C217.546 118.34 216.586 118.889 218.928 119.778C221.389 120.712 224.899 120.331 227.423 118.855C228.649 118.138 229.524 117.378 229.465 117.098V117.098ZM229.367 89.4923C229.354 90.3687 228.116 90.3733 223.744 90.6293C213.615 91.2225 198.775 95.2679 188.255 100.304C185.577 101.586 183.232 102.636 183.046 102.636C182.86 102.636 181.701 101.218 180.472 99.486C179.242 97.7537 178.236 96.1549 178.236 95.9334C178.236 95.407 182.11 93.602 186.993 91.853C195.395 88.8442 217.469 84.1241 223.144 84.1228C226.629 84.1219 227.753 84.8223 228.805 87.6515C229.126 88.5154 229.373 89.094 229.367 89.4923ZM226.876 62.5268L225.309 63.3669L223.744 64.2062L222.653 62.7028C222.026 61.8389 220.896 61.0812 219.995 60.9209C218.479 60.651 197.939 63.2599 186.788 65.1389C183.251 65.7348 178.965 66.9391 174.6 68.5631C162.336 73.1263 162.621 72.7513 166.474 79.2863C168.115 82.0703 169.729 84.5846 170.061 84.8735C170.501 85.2576 172.064 84.8744 175.881 83.4488C185.435 79.8799 199.258 76.6976 210.901 75.3865C216.514 74.7545 216.518 74.7549 217.061 75.7688C218.495 78.4441 218.478 78.4548 212.287 78.7651C202.873 79.2371 185.665 82.8378 177.643 86.0145C174.535 87.2451 174.11 87.3101 173.436 86.6561C172.624 85.869 171.235 85.671 171.235 86.3426C171.235 86.5703 172.395 89.0596 173.814 91.8742C176.683 97.5664 181.679 104.498 186.991 110.161L190.498 113.901L190.196 117.186C189.82 121.267 188.51 123.159 182.977 127.606C179.292 130.568 178.056 131.223 172.937 132.925C165.323 135.456 160.852 135.768 155.786 134.122C152.359 133.009 150.129 131.385 148.079 128.509C146.745 126.637 146.828 125.235 148.501 121.385C149.68 118.672 150.458 117.81 154.104 115.177C159.022 111.625 162.096 110.525 168.739 109.94C173.157 109.551 179.217 109.851 180.78 110.537C181.927 111.039 181.464 110.063 178.301 105.299C176.587 102.716 173.848 98.3682 172.214 95.6364C170.58 92.9046 166.78 86.7323 163.769 81.9202C159.592 75.2442 158.447 72.9971 158.935 72.4378C160.019 71.1954 166.683 67.5777 170.654 66.0761C180.942 62.186 207.589 57.4814 219.337 57.4814H224.633L225.754 60.0041L226.876 62.5268ZM221.436 81.7475C221.466 82.0917 220.685 82.2949 218.956 82.491C214.938 82.9469 192.972 88.1472 188.738 89.6451C186.637 90.3881 183.249 91.7091 181.208 92.5806C179.168 93.4521 177.273 93.988 176.997 93.7718C176.721 93.5556 176.051 92.426 175.508 91.2617C174.325 88.7257 174.227 88.7937 182.867 86.248C193.389 83.1478 218.317 79.64 220.537 80.9472C221.109 81.284 221.419 81.541 221.436 81.7475ZM220.796 112.382C220.783 111.972 220.733 111.483 220.655 110.879C220.106 106.624 218.913 105.364 215.421 105.352C213.182 105.344 210.95 106.771 210.049 108.785C209.337 110.377 209.75 113.585 210.824 114.804C212.725 116.965 217.315 117.009 219.686 114.89C220.544 114.124 220.835 113.611 220.796 112.382V112.382ZM220.243 63.9648C220.243 64.4292 218.581 64.6341 213.401 64.8094C207.785 64.9995 205.323 65.3354 199.659 66.6813C193.033 68.2559 178.309 73.5154 171.564 76.7166L168.393 78.2214L167.608 77.2213C166.26 75.5005 166.706 74.9388 171.557 72.2467C177.653 68.8634 186.099 66.751 203.514 64.2532C210.95 63.1868 220.243 63.0265 220.243 63.9648ZM220.243 66.8758C220.243 67.0759 219.53 67.9253 218.659 68.7629C217.788 69.6004 216.907 70.9225 216.701 71.701C216.331 73.0996 216.255 73.1256 210.17 73.9128C198.833 75.3796 186.357 78.2505 175.516 81.8878C173.397 82.5989 171.423 83.0757 171.131 82.9474C170.075 82.4846 170.633 81.1066 172.348 79.9418C174.973 78.1597 188.12 72.0895 193.193 70.3172C199.314 68.1793 208.969 66.512 215.233 66.512C217.988 66.512 220.243 66.6757 220.243 66.8758ZM218.227 109.779C218.222 109.845 218.207 109.903 218.184 109.954C218.064 110.208 216.617 110.779 214.968 111.223L211.969 112.031L212.024 111.058C212.162 108.608 213.906 106.248 215.58 106.248C216.466 106.248 218.313 108.796 218.227 109.779H218.227ZM208.15 18.9156C208.15 17.6108 207.611 15.2393 206.951 13.6453C206.291 12.0513 205.413 9.16949 204.999 7.24125C203.946 2.34138 202.843 -0.110245 201.742 0.00380351C195.916 0.606689 179.87 5.71581 179.052 7.22803C178.831 7.63701 179.015 9.71372 179.462 11.8429C179.909 13.972 180.517 17.1781 180.813 18.9679C181.109 20.7577 181.541 22.9423 181.773 23.8222L182.197 25.4222H179.407C177.232 25.4222 176.094 25.7273 174.244 26.8092C171.524 28.3996 171.244 29.6313 173.256 31.1502C175.696 32.993 179.263 32.5515 184.084 29.8108C186.802 28.2654 187.455 27.3582 186.46 26.5076C185.68 25.8407 182.563 13.292 183.041 12.7431C183.955 11.6948 198.408 6.90855 200.66 6.90855C201.702 6.90855 204.935 16.473 203.971 16.7038C200.129 17.6241 196.7 20.6082 196.696 23.0357C196.693 24.7968 198.276 25.5345 201.626 25.3349C203.522 25.2219 204.352 24.8305 206.055 23.2421C207.809 21.6061 208.15 20.9017 208.15 18.9156ZM201.044 4.31571C201.015 4.79074 200.703 5.2425 200.08 5.40047C199.442 5.56198 195.429 6.78027 191.161 8.10774C186.893 9.43522 183.098 10.5213 182.728 10.5213C182.358 10.5213 182.055 10.1197 182.055 9.62905C182.055 8.09466 196.815 2.5374 199.815 2.94258C200.65 3.0554 201.081 3.70496 201.044 4.31571ZM177.6 119.326C177.585 117.775 176.683 116.357 174.863 114.94C172.587 113.167 167.942 113.785 167.225 115.956C166.542 118.027 166.849 121.016 167.895 122.476C170.023 125.447 174.88 125.345 176.678 122.291C177.3 121.236 177.61 120.257 177.6 119.326ZM177.568 108.114L172.566 107.804C166.573 107.433 163.098 108.109 157.289 110.773C152.821 112.822 148.311 116.87 146.726 120.255C145.581 122.702 144.098 123.532 139.867 124.095C137.073 124.467 136.986 124.205 138.831 120.978C139.524 119.767 140.451 117.125 140.891 115.108L141.691 111.441L146.12 109.687C153.905 106.606 164.443 102.082 168.042 100.276L171.533 98.5256L172.941 100.694C173.716 101.886 175.073 104.043 175.958 105.488L177.568 108.114ZM175.601 127.794C175.634 126.819 174.266 126.737 173.109 127.726C171.404 129.184 168.618 129.837 165.405 129.535C162.189 129.232 161.293 129.756 163.556 130.615C166.925 131.895 175.139 130.108 175.575 128.001C175.59 127.928 175.599 127.859 175.601 127.794L175.601 127.794ZM174.397 118.162C174.373 118.728 170.181 120.251 169.661 119.881C169.246 119.587 169.31 116.613 169.747 115.843C169.924 115.533 170.453 115.278 170.924 115.278C171.887 115.278 174.428 117.388 174.397 118.162ZM169.962 96.5221C169.962 96.8914 169.031 97.5304 167.894 97.9415C166.756 98.3527 162.531 100.223 158.505 102.099C150.989 105.6 144.795 108.038 143.389 108.048C142.952 108.051 142.628 107.597 142.671 107.038C142.841 104.79 145.512 90.4832 145.793 90.3138C149.705 87.9573 160.164 83.9574 161.478 84.3152C162.464 84.5836 169.962 95.3719 169.962 96.5221ZM165.95 121.67C165.966 120.947 165.826 120.183 165.525 119.391C164.699 117.214 163.073 115.881 160.737 115.465C158.64 115.092 155.66 115.978 154.807 117.23C154.438 117.771 154.117 119.601 154.093 121.296C154.054 124.121 154.206 124.489 155.911 125.699C158.394 127.46 161.146 127.472 163.599 125.732C165.118 124.655 165.914 123.26 165.95 121.67V121.67ZM163.617 120.581C163.653 121.276 163.201 121.632 162.281 121.462C161.557 121.327 160.094 121.433 159.03 121.696C157.515 122.07 156.974 122.038 156.537 121.548C155.335 120.201 156.387 117.086 158.202 116.619C159.889 116.185 161.471 116.831 162.636 118.43C163.266 119.294 163.589 120.04 163.617 120.581ZM159.142 15.7414C159.142 15.1188 156.233 13.1042 154.342 12.417C152.692 11.8172 138.665 10.8698 138.037 11.3157C137.778 11.4993 135.44 14.2915 132.841 17.52L128.116 23.3903L124.376 23.6509C120.67 23.9093 117.888 24.6437 116.986 25.6021C116.166 26.4732 116.464 28.0251 117.505 28.3087C119.036 28.7254 121.817 28.6373 123.975 28.1036C126.922 27.3749 133.807 21.1228 137.743 15.6012C139.085 13.719 139.752 13.2306 140.982 13.2306C143.116 13.2306 148.663 14.3083 152.316 15.4332C155.123 16.2971 155.324 16.4651 154.944 17.6219C154.477 19.0419 149.601 28.1314 149.306 28.1314C149.2 28.1314 148.047 27.8149 146.743 27.4283C142.082 26.0468 137.714 28.032 139.536 30.7038C140.343 31.8879 140.652 31.9683 144.32 31.9658C150.211 31.9607 151.305 31.1951 153.728 25.3759C154.809 22.7788 156.47 19.6687 157.418 18.4652C158.366 17.2617 159.142 16.0362 159.142 15.7414ZM150.218 134.373C150.223 134.638 150.027 134.794 149.679 134.962C147.615 135.962 131.807 140.088 125.656 141.231C113.899 143.415 109.823 143.31 90.7213 140.326C85.4705 139.506 79.5636 138.606 77.5951 138.326L74.0168 137.816L73.7166 132.981C73.4823 129.206 73.0343 127.406 71.6693 124.761C68.6325 118.876 68.6303 118.882 73.3782 119.818C75.6665 120.269 75.765 120.369 75.765 122.242C75.765 127.021 78.9063 130.227 86.841 133.544C97.9927 138.206 114.309 139.727 122.163 136.836C127.462 134.886 132.879 131.224 134.773 128.311C136.378 125.843 136.518 125.758 139.352 125.522C140.96 125.389 142.884 125.146 143.627 124.982C144.83 124.718 145.027 124.908 145.407 126.707C145.642 127.819 146.933 130.018 148.276 131.594C149.639 133.193 150.209 133.933 150.218 134.373ZM146.927 72.2844C146.881 73.5124 146.327 75.4427 145.421 78.4781C144.531 81.4582 143.541 86.4362 143.222 89.5406C141.745 103.88 138.328 117.937 134.972 123.478C131.502 129.208 128.873 131.52 123.717 133.377C119.512 134.891 119.275 134.921 111.44 134.921C105.819 134.921 101.941 134.667 98.359 134.066C92.2404 133.039 90.7088 132.523 85.2225 129.64C81.8505 127.869 80.7254 126.957 79.6537 125.127C77.3446 121.185 78.2137 116.252 81.8782 112.5C83.1577 111.191 84.7716 110.331 87.7565 109.371C94.8369 107.094 97.6176 106.699 106.59 106.699C116.712 106.699 123.818 107.585 128.398 109.419C132.335 110.995 133.318 111.095 132.867 109.872C132.686 109.382 132.776 108.213 133.068 107.275C133.359 106.337 134.339 101.303 135.246 96.0882C136.153 90.8729 137.45 84.3702 138.126 81.6384C138.803 78.9066 139.549 75.1987 139.784 73.3982L140.212 70.1241L142.199 70.1305C145.667 70.1407 147.002 70.2374 146.927 72.2841V72.2844ZM136.76 74.6325C136.879 76.8503 133.895 91.8288 133.157 92.3524C131.788 93.3235 107.14 92.7585 96.5391 91.513C88.6794 90.5896 84.2645 89.2988 71.7196 84.2564C56.8205 78.2677 54.2938 77.3898 49.2887 76.466C46.9047 76.0259 44.8706 75.4862 44.7688 75.2661C44.6671 75.046 45.4572 73.9516 46.5253 72.834C47.5934 71.7164 49.4575 69.4305 50.6676 67.7542C51.9601 65.9638 53.2766 64.7063 53.859 64.7063C54.4043 64.7063 61.8978 66.8505 70.5113 69.4719C88.2776 74.8789 94.0008 76.1871 102.911 76.8754C111.486 77.5379 125.464 76.5811 133.248 74.7985C134.933 74.4124 136.484 74.2184 136.693 74.3672C136.731 74.3936 136.752 74.4846 136.76 74.6325H136.76ZM132.72 95.1106C132.777 96.7595 130.746 107.127 130.249 107.48C130.113 107.577 128.467 107.348 126.592 106.973C116.601 104.972 99.9023 104.631 91.676 106.261C84.3525 107.712 83.0957 107.777 79.5931 106.883C77.2944 106.297 76.476 105.871 76.6824 105.367C78.1659 101.747 77.2925 95.6096 74.7711 91.9377C73.8856 90.6482 71.8133 88.5211 70.1663 87.211C67.8107 85.3371 67.58 85.031 69.082 85.7764C71.5733 87.0127 86.0991 91.9903 89.8571 92.8954C98.329 94.936 114.44 96.1483 123.881 95.4552C127.417 95.1956 130.753 94.862 131.295 94.7144C131.838 94.5667 132.46 94.6518 132.679 94.9029C132.702 94.9298 132.716 95.0007 132.72 95.1106H132.72ZM119.045 118.494C119.045 116.465 116.801 113.532 115.059 113.284C110.201 112.59 109.657 112.617 108.385 113.608C106.923 114.748 105.721 116.298 105.009 117.961C104.737 118.597 104.49 120.184 104.46 121.487C104.418 123.291 104.71 124.074 105.679 124.761C107.358 125.952 110.957 125.935 113.724 124.722C116.371 123.561 119.045 120.432 119.045 118.494V118.494ZM115.862 117.447C115.862 118.394 115.653 118.478 113.955 118.214C112.906 118.05 111.025 118.156 109.775 118.449C108.525 118.741 107.403 118.91 107.281 118.823C107.159 118.736 107.435 118.031 107.895 117.255C108.812 115.708 111.076 114.376 112.786 114.376C114.176 114.376 115.862 116.059 115.862 117.447ZM108.203 128.681C108.178 128.492 107.88 128.374 107.279 128.374C106.758 128.374 105.045 128.618 103.471 128.917C100.736 129.436 100.527 129.405 98.8121 128.239C97.8244 127.568 96.674 127.019 96.2556 127.019C94.9953 127.019 95.3961 128.15 97.0462 129.25C99.111 130.626 103.511 130.982 106.21 129.992C107.533 129.507 108.246 128.996 108.203 128.681ZM100.97 116.654C101.013 113.833 99.2592 111.111 95.8296 110.5C92.2312 109.86 89.3453 111.49 87.4629 115.227C87.0106 116.125 86.627 117.84 86.6126 119.039C86.5893 120.86 86.8909 121.435 88.4455 122.538C90.6812 124.124 93.5612 124.278 96.5782 122.973C99.4963 121.711 100.933 119.144 100.97 116.654ZM100.735 31.7402C100.76 29.5903 100.036 26.7553 98.6526 24.7449C97.0103 22.3573 91.9613 19.7524 88.1994 19.3522C86.6134 19.1835 85.0282 19.1711 84.6771 19.3251C83.4724 19.8533 84.0444 21.816 87.585 29.2976C89.5357 33.4194 90.9923 37.0496 90.822 37.3644C90.6517 37.6793 89.654 38.0588 88.604 38.2078C87.5541 38.3568 85.524 39.2683 84.0934 40.2338C81.1467 42.2225 80.7222 43.84 82.7658 45.2898C84.2719 46.3583 87.193 46.46 89.7228 45.5319C91.722 44.7984 94.5715 42.5795 95.1368 41.3159C95.438 40.6427 93.6927 36.4035 87.4311 22.5998C86.2618 20.0219 94.8791 24.1999 97.146 27.3099C97.6428 27.9915 98.111 29.9856 98.1855 31.7409C98.294 34.2926 98.5113 34.9064 99.2698 34.8027C100.241 34.67 100.715 33.4124 100.735 31.7403V31.7402ZM98.041 115.319C98.041 116.956 97.9317 117.075 96.8104 116.649C95.0681 115.987 92.7652 116.07 91.3208 116.845C90.6413 117.209 89.8707 117.514 89.6081 117.522C87.8993 117.574 91.3844 112.602 93.6339 111.779C95.0077 111.277 95.3336 111.342 96.609 112.369C97.5817 113.153 98.041 114.099 98.041 115.319ZM80.738 109.821C80.7179 110.056 80.39 110.364 79.7367 110.953C78.9966 111.621 77.7779 113.474 77.0283 115.072C76.2786 116.67 75.3807 118.102 75.0331 118.255C74.6854 118.407 73.1329 118.397 71.5825 118.232C70.0321 118.067 68.7632 117.79 68.7632 117.615C68.7632 117.441 69.7671 116.241 70.9933 114.95C72.2195 113.658 73.7412 111.665 74.3748 110.52C75.0085 109.376 75.724 108.454 75.9645 108.472C76.2049 108.491 76.919 108.505 77.5522 108.505C78.1854 108.505 79.2391 108.783 79.8933 109.122C80.4707 109.422 80.7581 109.586 80.738 109.821V109.821ZM75.6838 101.43C75.6284 103.816 74.4882 106.313 72.2417 109.763C69.177 114.469 63.279 118.58 56.0341 121.061C46.6355 124.281 40.5331 124.95 32.6318 123.628C26.5835 122.617 22.4819 120.916 17.0386 117.162C13.0515 114.412 11.9126 113.316 11.1519 111.498C8.76006 105.784 10.9359 99.5937 18.2171 91.3973C20.2884 89.0655 22.7376 86.2203 23.66 85.0752C24.5824 83.9301 26.3558 81.7745 27.6 80.2844C28.8443 78.7944 31.2082 75.8478 32.8537 73.7369C34.4992 71.6259 36.6422 68.9842 37.616 67.8666C39.9039 65.241 42.4107 60.6278 43.2594 57.4814C43.6278 56.1155 43.978 52.6614 44.0379 49.8054C44.1753 43.2482 43.2347 41.6598 37.7736 39.2363C31.067 36.2602 26.3577 37.242 23.8651 42.1354C23.2441 43.3547 22.6946 46.3175 22.4853 49.5792C22.0443 56.4518 22.9094 59.0841 27.9235 66.1303L31.6687 71.3927L29.7677 73.5808C28.7226 74.7842 27.7678 75.8487 27.6457 75.9461C26.3469 76.9832 16.4695 62.7586 14.2472 56.6506C12.2063 51.0413 12.3671 44.0103 14.6724 38.0669C15.949 34.7754 16.5978 33.9028 19.2417 31.9195C21.6859 30.086 23.1792 29.4081 26.4626 28.6434C28.7392 28.1132 31.4669 27.6797 32.5236 27.6797C37.9318 27.6797 48.3807 34.4375 52.7701 40.7741C57.9879 48.307 57.7503 51.5425 51.131 63.1254C48.0284 68.5545 46.1895 70.8874 38.8495 78.7036C33.0116 84.9202 25.5411 93.8875 23.6619 96.9335C21.5089 100.423 20.6612 104.491 21.607 106.799C22.727 109.532 26.0712 113.336 28.5174 114.661C32.6 116.873 35.9035 117.583 42.5256 117.673C48.2844 117.751 48.9482 117.665 52.0699 116.441C53.9152 115.717 57.1132 113.991 59.1761 112.605C62.403 110.437 63.1203 109.645 64.3122 106.925C65.1747 104.957 65.7194 102.481 65.7555 100.364C65.8047 97.4709 65.5548 96.6293 64.0838 94.7197C61.9226 91.914 57.0023 89.2473 53.2492 88.8481C49.655 88.4657 45.8837 89.2346 42.5359 91.0322C40.3287 92.2173 39.5334 93.0599 38.3945 95.4221C36.5802 99.1852 36.537 101.699 38.2594 103.252C39.4082 104.288 40.0452 104.441 43.1923 104.44C45.6262 104.439 47.4566 104.157 48.8003 103.576C51.2903 102.498 54.1248 99.9093 54.1248 98.7121C54.1248 97.5529 56.2383 96.1886 57.7208 96.3911C61.1534 96.8601 61.2202 102.12 57.8438 106.072C55.4547 108.869 52.5867 110.382 47.7374 111.404C41.278 112.765 36.8278 112.063 33.1586 109.106C28.107 105.034 28.2838 100.877 33.759 94.9591C37.8812 90.5036 42.1157 87.6157 46.8051 86.0634C50.067 84.9837 51.372 84.8079 55.7498 84.855C63.8872 84.9425 67.9463 87.0886 72.6119 93.7685C74.7088 96.7707 75.7392 99.0443 75.6839 101.43H75.6838ZM71.8557 134.922C71.7521 139.205 70.4391 143.589 68.0462 147.112C65.1256 151.413 59.5848 154.729 52.453 156.446C49.6968 157.11 46.2958 157.765 44.8956 157.901C42.1271 158.17 35.4277 157.223 32.4957 156.147C29.3928 155.009 23.0937 150.562 21.7468 148.559C20.2544 146.34 19.55 141.097 20.4146 138.639C21.2272 136.329 23.1402 133.771 24.9448 132.581C25.7665 132.039 28.2757 130.95 30.521 130.161C34.3049 128.831 34.788 128.766 37.1377 129.265C40.4338 129.966 45.5553 133.666 46.5766 136.084C47.214 137.593 47.1635 138.29 46.2671 140.307C44.659 143.926 41.3958 146.233 35.9854 147.574C33.2452 148.254 31.6088 148.899 31.7349 149.251C32.1694 150.462 35.4026 152.341 37.8649 152.815C41.3687 153.489 48.7289 152.957 51.8974 151.8C63.3262 147.63 68.9141 134.429 63.3333 124.783L61.6477 121.869L63.7734 120.618C64.9426 119.93 66.0809 119.361 66.3028 119.355C66.9281 119.336 69.3584 123.849 70.7071 127.533C71.5445 129.82 71.9178 132.353 71.8557 134.922ZM63.6233 102.861C63.682 104.148 62.5613 106.821 61.5526 107.8C60.8191 108.511 60.6403 108.532 60.3219 107.943C60.117 107.564 60.3704 106.828 60.8859 106.305C61.4015 105.783 62.2195 104.591 62.7031 103.657C63.2499 102.6 63.5975 102.3 63.6233 102.861ZM63.4564 98.306C63.4889 99.4059 62.7229 99.1582 61.8705 97.4858C60.8456 95.475 58.3895 94.3382 55.7311 94.6442C53.8238 94.8638 53.5859 94.7385 52.1706 92.7744C51.3363 91.6166 50.552 90.5173 50.4271 90.331C50.3023 90.1448 51.3285 89.9924 52.7076 89.9924C54.599 89.9924 55.9402 90.3855 58.1682 91.5924C61.3898 93.3375 62.6331 94.7285 63.2969 97.3297C63.3982 97.7261 63.4488 98.0521 63.4564 98.306H63.4564ZM63.035 83.2563C63.035 83.5577 62.5107 83.5967 61.6029 83.3628C59.7865 82.8946 50.7246 82.882 47.6665 83.3436C45.3568 83.6922 45.3362 83.6822 43.6883 81.3361C41.2958 77.93 41.418 77.6335 45.055 78.0177C50.8661 78.6314 63.035 82.1769 63.035 83.2562V83.2563ZM60.3732 139.853C60.3961 141.2 56.3405 146.6 54.0184 148.247C50.2394 150.928 46.1486 151.57 41.4087 150.224C40.0014 149.825 38.8495 149.321 38.8495 149.104C38.8495 148.888 39.951 148.312 41.2968 147.825C44.5826 146.636 47.2173 144.417 48.9606 141.37C50.2752 139.072 50.5977 138.834 52.6274 138.666C56.3039 138.361 60.1293 138.89 60.3582 139.735C60.3673 139.77 60.3727 139.809 60.3727 139.853L60.3732 139.853ZM59.2245 109.724C59.2007 110.177 58.6712 110.892 57.5063 111.754C55.5774 113.183 54.4421 113.355 53.8748 112.307C53.6623 111.914 53.4879 111.558 53.4879 111.516C53.4879 111.474 54.4944 110.871 55.7237 110.175C57.8985 108.944 59.2641 108.97 59.2245 109.724ZM51.8974 113.924C51.8974 118.049 34.4619 117.103 28.1659 112.636C26.9601 111.781 25.4392 110.247 24.7872 109.228C23.9752 107.96 23.6137 106.381 23.6385 104.216C23.6835 100.314 24.4915 98.5719 26.2556 98.5719C27.47 98.5719 27.5283 98.7533 27.1273 101.268C26.5005 105.199 27.5368 107.408 31.182 109.914C35.3428 112.773 41.2345 114.18 46.0498 113.463C51.5826 112.639 51.8974 112.664 51.8974 113.924ZM51.7193 97.2331C51.7697 98.2164 51.3973 99.1706 50.6229 100.503C50.233 101.174 47.7597 102.528 47.7597 102.07C47.7597 101.99 46.7372 100.205 45.4867 98.1029C44.2363 96.0013 43.0751 94.0553 42.906 93.7784C42.5388 93.177 46.1881 90.8952 47.5173 90.8952C48.0489 90.8952 49.2361 92.1388 50.2789 93.7877C51.1956 95.2373 51.669 96.2499 51.7193 97.2331ZM45.0504 102.667C45.0594 102.706 45.0576 102.742 45.0432 102.775C44.6333 103.648 42.6679 103.678 41.3484 102.831C40.0267 101.982 39.7055 100.829 40.7908 100.829C42.0794 100.829 44.9029 102.084 45.0506 102.667L45.0504 102.667ZM43.9391 99.1361C43.9427 99.5446 42.5129 99.5777 41.129 99.2008V99.2C40.0303 98.9008 39.8065 97.3668 40.7132 96.3505C41.1598 95.85 41.5737 96.0475 42.6105 97.254C43.3399 98.1028 43.9378 98.9496 43.9391 99.1358V99.1361ZM42.6571 84.476C42.6517 84.9022 41.7209 85.7134 40.5892 86.2784L38.5316 87.3056L37.4174 86.3412C36.8048 85.8108 36.3081 85.1452 36.3136 84.8623C36.3262 84.2587 39.6375 80.5184 40.1641 80.5133C40.7205 80.5082 42.6697 83.6063 42.6571 84.476ZM40.9593 49.0487C40.9756 49.9832 40.9021 51.1118 40.7589 52.639C40.5078 55.3151 40.1199 57.6338 39.8974 57.7916C39.6749 57.9495 37.5577 57.5377 35.1929 56.8768C32.8281 56.216 29.748 55.4213 28.3478 55.1108L25.8016 54.5459L25.7224 52.0629C25.4462 43.4124 27.9859 39.1067 33.0617 39.6186C36.2062 39.9358 38.686 41.8621 40.0485 45.0464C40.6589 46.4729 40.9329 47.4913 40.9594 49.0487H40.9593ZM39.3268 60.1523C39.3739 61.3866 33.7058 69.2837 32.8565 69.0863C32.4771 68.9981 30.9675 67.0114 29.502 64.6712C28.0364 62.331 26.6353 59.6226 26.389 58.6528L25.9415 56.8894L28.7571 57.1632C32.4599 57.5233 38.8886 59.2855 39.3045 60.0544C39.3189 60.0798 39.3254 60.1125 39.3268 60.1523L39.3268 60.1523ZM35.8166 88.2905C35.7589 88.9885 34.9292 90.0928 32.795 92.5045C30.8739 94.6753 29.3025 96.6238 29.3025 96.8343C29.3025 97.0447 28.73 97.2172 28.0299 97.2172C26.0906 97.2172 26.4498 95.9939 29.4917 92.2393C34.3485 86.2446 34.4729 86.1518 35.6367 87.6945C35.7693 87.8703 35.8359 88.0578 35.8166 88.2905H35.8166Z" fill="black"/>
</svg>
