<?xml version="1.0" encoding="UTF-8"?>
<svg version="1.1" viewBox="0 0 116.72959 78.993713" xmlns="http://www.w3.org/2000/svg" xmlns:xlink="http://www.w3.org/1999/xlink">
 <defs>
  <pattern id="e" xlink:href="#d" patternTransform="matrix(.17701 -.077166 .0098878 .022682 198.71 276.46)"/>
  <pattern id="d" width="3" height="1" patternTransform="translate(0) scale(10)" patternUnits="userSpaceOnUse">
   <rect y="-.5" width="1" height="2"/>
  </pattern>
  <radialGradient id="f" cx="239.93" cy="287.38" r="8.0602" gradientTransform="matrix(1.2507 -.14099 .25078 2.2245 -132.23 -316.78)" gradientUnits="userSpaceOnUse">
   <stop stop-color="#241d11" offset="0"/>
   <stop stop-color="#bc9818" offset=".47136"/>
   <stop stop-color="#ffde00" offset="1"/>
  </radialGradient>
 </defs>
 <g transform="translate(-139.19 -264.8)">
  <path d="m237.16 276.4c-1.7186 1.9271-11.705 8.9378-18.943 11.758-11.543 4.497-27.18 8.9776-40.718 13.796-6.4234 2.2863-14.895 5.5428-20.032 9.5023-4.1702 3.2142-4.7079 11.296-2.8306 16.548 1.9348 5.4134 6.8658 9.4275 10.016 10.452 4.589 1.4917 6.3899 0.83427 8.4919 0.43549 17.941-3.4036 34.617-6.6151 52.911-11.976 2.9755-0.87192 6.2154-2.3663 7.8387-5.008 2.2912-3.7289 2.1516-8.7703 1.3064-13.064-0.50788-2.5805-1.6503-5.3219-3.7016-6.9677-2.7606-2.2149-6.7219-3.0921-10.234-2.6521-2.9031 0.36375-5.0413 2.7957-7.6209 4.1763-1.7171 0.91896-3.3388 2.131-5.2258 2.6129-17.254 4.4061-46.877 11.027-48.817 11.612-0.37335 1.2483-0.72816 2.6478-0.47739 3.3511 16.881-4.3701 36.405-7.4959 52.56-12.329 3.2468-0.9712 4.4047-1.9621 6.3318-3.4839 1.6301-1.9997 6.4618-2.9699 9.7811-1.0887 2.2527 1.4197 2.6843 3.432 3.4839 6.0749 0.71186 2.3529 0.3495 6.5554-0.43548 8.2742-1.1845 2.5937-3.2691 3.9156-7.438 5.0299-16.788 4.4876-32.783 7.3886-49.175 11.083-3.8752 0.8734-7.2749 1.3635-11.323-3.7016-2.5096-3.1404-4.4825-6.7191-3.8802-11.026 0.4429-3.1672 0.80654-5.8848 9.3237-9.0057 4.0571-1.4867 24.308-5.8908 36.581-8.2742 8.8788-1.7243 17.743-4.0513 26.782-4.3548 3.8617-0.12967 11.54 1.0887 11.54 1.0887-3.8816-6.958-5.6992-11.972-6.0968-22.863z" fill="#ffe200" fill-rule="evenodd" stroke="#000" stroke-width="1.7717"/>
  <path d="m153.55 319.09-4.6722 1.2423c0.16381 0.58024 0.52503 2.4152 0.45726 3.227l4.1518-1.1486z" fill="#ffe200" fill-rule="evenodd" stroke="#000" stroke-linejoin="bevel" stroke-width="1.7717"/>
  <path d="m149.13 321.74c-0.57925-3.1453-0.98214-1.3393-0.98214-1.3393h-2.6339c0.91156 1.1839 1.1994 2.8356 1.1607 4.7322l2.2321-1.2946s0.94589 1.826 0.22321-2.0982z" fill="#ffe200" fill-rule="evenodd" stroke="#000" stroke-linejoin="round" stroke-width="1.7717"/>
  <path d="m146.44 322.98a2.9851 1.3671 79.697 0 1 -0.89376 3.0588 2.9851 1.3671 79.697 0 1 -1.841 -2.8311 2.9851 1.3671 79.697 0 1 0.89377 -3.0588 2.9851 1.3671 79.697 0 1 1.841 2.8311z" color="#000000" fill="#815903" fill-rule="evenodd" stroke="#000" stroke-linecap="round" stroke-linejoin="round" stroke-width="1.7717"/>
  <path d="m238.66 288.34c-1.5054-5.8473-1.4675-10.016-1.5179-15.357-0.0139-1.4701 0.85554-3.8616 2.3214-3.75 4.0508 0.30834 7.5318 8.8441 9.6428 14.286 1.7909 4.6164 2.6204 11.407 2.3214 15.089-0.17657 2.175-0.29003 4.2396-1.3393 4.7322-1.9761 0.9276-4.1669-1.4111-5.625-3.0357-2.6876-2.9944-4.6526-7.4936-5.8036-11.964z" fill="url(#f)" fill-rule="evenodd" stroke="#000" stroke-width="1.7717"/>
  <path d="m238.48 277.09c3.8926 0.835 7.2244 6.8626 7.3214 7.4107 0 0 1.8084 5.5645 1.5179 8.5714-0.12711 1.3155-1.5179 2.6786-1.5179 2.6786-0.92535 0.66786-1.9891 1.138-4.5536-0.53571-1.3377-3.1888-2.8241-5.9809-3.4821-10.982-0.30267-2.3005-0.87199-7.488 0.71429-7.1428z" fill="url(#e)" fill-rule="evenodd"/>
  <path d="m238.04 277.27c0.55446-0.99802 6.2076 2.2671 8.125 8.3928 2.4773 7.9146-0.0893 9.9107-0.0893 9.9107" fill="none" stroke="#000" stroke-linecap="round" stroke-width="1.063"/>
  <path d="m230.09 285.4c-10.521 5.5714-22.588 10.524-37.857 14.196" fill="none" stroke="#000" stroke-linecap="round" stroke-width=".99921"/>
  <path d="m155.82 317.22c-1.1817 3.5414-0.2262 6.6821 1.2627 9.7227" fill="none" stroke="#000" stroke-linecap="round" stroke-width="1px"/>
  <path d="m183.97 327.01 34.913-7.513c1.8312-0.60339 1.4417-2.7815-0.82075-2.5885l-12.248 2.336c-2.2128 0.3625-2.8347-0.72132-3.2199-2.0203l-0.56821-2.5254-2.1466 0.44194 0.82074 6.0609c0.25268 1.3969-0.6262 2.0866-1.7046 2.6516l-3.7881 0.75762c-1.2065 0.0419-2.3136-0.0652-2.5254-1.5152l-1.1996-5.8715c-0.43586-0.96832-1.0584-1.2832-1.8309-1.0733-1.3779 0.30014-1.4532 1.2516-1.5152 2.2097l1.7678 7.3867-4.2932 0.88388-1.5784-8.0181 2.7148-0.44194c0.3626-1.1746 0.19287-2.3936 2.4622-3.4093 1.7632-0.88571 3.4558-0.50143 5.0508 1.6415l0.75762 3.1567c0.67393 1.6844 2.5835 1.5143 2.5885-0.56821l-1.4521-6.4397 5.8715-1.389c1.45-0.64188 1.9929 0.66004 2.2728 2.5254 0.23713 2.4823 1.6421 1.8504 2.8411 1.7678l11.049-1.5784s4.8359-0.66225 5.5558 3.0936c0.71169 3.7126-4.1038 4.7351-4.1038 4.7351-11.179 3.1538-23.359 5.6404-35.04 8.46 0 0-2.1371 0.3799-2.4622-1.0733-0.38066-1.7012 1.8309-2.0834 1.8309-2.0834z" fill="#ded86e" fill-rule="evenodd" stroke="#000" stroke-width="1px"/>
  <path d="m184.86 312.93c1.4735-0.42849 3.7796 0.49023 4.23 1.9572 0.45981 1.4974-1.091 3.2025-2.5885 3.6618-1.5121 0.46372-3.8521-0.50146-4.2932-2.0203-0.43798-1.5082 1.1436-3.1601 2.6517-3.5987z" fill="#fffb86" fill-rule="evenodd" stroke="#000" stroke-width="1.063"/>
  <path d="m191.96 311.5c1.4985-0.3306 2.9354 0.0837 3.283 1.5784 0.33354 1.4343-0.20709 3.1394-1.7046 3.5987-1.5121 0.46372-3.4842-0.48188-3.8512-2.0203-0.37484-1.5713 1.1436-2.9076 2.2728-3.1567z" fill="#fffb86" fill-rule="evenodd" stroke="#000" stroke-width="1.063"/>
  <path d="m198.46 309.86c1.4735-0.42849 3.1482 0.49023 3.5987 1.9572 0.45981 1.4974-0.77529 3.2025-2.2728 3.6618-1.5121 0.46372-3.5364-0.50146-3.9775-2.0203-0.43798-1.5082 1.1436-3.1601 2.6517-3.5987z" fill="#fffb86" fill-rule="evenodd" stroke="#000" stroke-width="1.063"/>
  <path d="m185.43 319.18 0.94702 3.8512" fill="none" stroke="#000" stroke-linecap="round" stroke-width="1.063"/>
  <path d="m185.99 314.13c1.18 0.23815 2.2603 2.9343-0.0631 3.0936" fill="none" stroke="#000" stroke-linecap="round" stroke-width="1.063"/>
  <path d="m192.32 313.15c0.80119 0.11188 1.6921 0.97709 0.94705 1.894" fill="#fffb86" fill-rule="evenodd" stroke="#000" stroke-linecap="round" stroke-width="1px"/>
  <path d="m199.54 311.22c0.80119 0.11188 1.6921 0.97709 0.94705 1.894" fill="none" stroke="#000" stroke-linecap="round" stroke-width="1px"/>
  <path d="m187.51 324.11c-0.90152 0.78624-0.62727 1.7684-0.56821 2.7148 0.23899 1.1625 0.25377 2.1754 1.4521 3.9775 0 0-0.70494 1.3422-0.44194 1.9572 0.33778 0.78978 1.3551 1.4122 2.2097 1.3258 1.0225-0.10339 2.186-1.0594 2.2728-2.0834 0.11028-1.3003-2.3991-3.0936-2.3991-3.0936-0.52807-0.53755-0.92145-1.2547-0.94702-2.4622 0.21045-0.19931 0.4209-0.47641 0.63135-1.0102 0.0763-1.1206-0.34099-1.2542-0.75762-1.389-0.69742-0.0856-1.4104-0.17909-1.4521 0.0631z" fill="#fffb86" fill-rule="evenodd" stroke="#000" stroke-width="1.063"/>
  <path d="m192.61 323.1c-0.77914 0.76666-0.98406 1.6613-0.93302 2.584 0.20655 1.1335 0.66127 2.1844 1.6969 3.9415 0 0-0.60925 1.3088-0.38195 1.9084 0.29193 0.7701 1.1712 1.3771 1.9098 1.2928 0.88373-0.10081 1.8892-1.033 1.9643-2.0315 0.0953-1.2679-2.0734-3.0165-2.0734-3.0165-0.45639-0.52416-0.79637-1.2234-0.81847-2.4009 0.18188-0.19434 0.36377-0.46454 0.54565-0.98499 0.0659-1.0927-0.2947-1.2229-0.65478-1.3544-0.60275-0.0835-1.255-0.17735-1.255 0.0615z" fill="#fffb86" fill-rule="evenodd" stroke="#000" stroke-width="1.063"/>
  <path d="m196.88 322.6c-0.84033 0.78624-0.3953 1.3896-0.34024 2.336 0.22277 1.1625 0.23654 2.1754 1.3535 3.9775 0 0-0.65709 1.3422-0.41194 1.9572 0.31485 0.78978 1.2631 1.4122 2.0597 1.3258 0.95314-0.10339 2.0376-1.0594 2.1186-2.0834 0.10279-1.3003-2.2363-3.0936-2.2363-3.0936-0.49223-0.53755-0.73264-1.1284-0.75648-2.336 0.0699-0.32558 0.3292-0.66581 0.27283-1.0102 0.13423-0.42615-0.12844-0.74908-0.5168-1.1996-0.49889-0.13025-1.0072 0.16274-1.5429 0.12627z" fill="#fffb86" fill-rule="evenodd" stroke="#000" stroke-width="1.063"/>
  <path d="m188.27 331.05c0.24807-0.89732 0.36888-1.2294 0.94702-1.1364" fill="none" stroke="#000" stroke-linecap="round" stroke-width="1.063"/>
  <path d="m193.16 330.17c0.18494-0.45538 0.62142-1.04 1.0102-1.2627" fill="none" stroke="#000" stroke-linecap="round" stroke-width="1.063"/>
  <path d="m197.83 329.1c0.18494-0.45538 0.43201-0.78742 1.0102-0.88388" fill="none" stroke="#000" stroke-linecap="round" stroke-width="1.063"/>
 </g>
</svg>
