<svg width="142" height="144" viewBox="0 0 142 144" fill="none" xmlns="http://www.w3.org/2000/svg">
<path d="M140.794 72C140.794 111.497 109.379 143.5 70.6469 143.5C31.9147 143.5 0.5 111.497 0.5 72C0.5 32.5027 31.9147 0.5 70.6469 0.5C109.379 0.5 140.794 32.5027 140.794 72Z" fill="white" stroke="black"/>
<path d="M39.8604 36C64.1138 23.3011 83.7413 23.7014 104.35 40.2936" stroke="white" stroke-width="10"/>
<path d="M115.373 68.9694C115.747 68.4629 115.813 68.3404 115.812 68.1559C115.809 67.8727 115.784 67.8508 114.658 67.1404C113.231 66.2396 112.44 65.611 111.698 64.7883C110.357 63.3008 109.425 61.3525 109.058 59.2705C108.894 58.3365 108.886 58.1891 108.887 56.2174C108.887 53.9603 108.934 53.1734 109.113 52.37C109.288 51.5809 109.297 51.4762 109.217 51.1143C109.189 50.9909 109.107 50.7273 109.035 50.5285C108.679 49.553 108.348 48.1063 108.348 47.5237V47.3456L108.512 47.3459C108.704 47.3461 108.908 47.4008 109.51 47.6127C110.015 47.7906 110.205 47.827 110.311 47.7655C110.35 47.7426 110.624 47.5257 110.919 47.2834C112.288 46.1623 113.06 45.6645 113.924 45.3458C114.466 45.1457 114.571 45.1281 115.223 45.1279C116.023 45.1276 116.314 45.2 117.033 45.5776C118.831 46.5215 120.645 48.2191 122.231 50.441C122.878 51.3472 123.717 52.7249 124.288 53.8184C124.615 54.4433 125.076 55.5163 125.246 56.0461C125.492 56.8129 125.655 57.6862 125.717 58.5831C125.752 59.0741 125.752 60.3584 125.718 60.8993C125.672 61.6379 125.594 61.9227 125.167 62.9127C124.445 64.5894 124.005 65.2486 122.773 66.5005C122.458 66.8206 122.29 67.012 122.304 67.033C122.316 67.051 122.44 67.2339 122.58 67.4394C122.719 67.6449 122.829 67.818 122.824 67.8241C122.814 67.8353 122.049 68.1068 122.027 68.1068C122.021 68.1068 122.024 68.0913 122.034 68.0722C122.044 68.0532 122.097 67.8359 122.151 67.5894C122.248 67.1446 122.248 67.1412 122.192 67.1412C122.02 67.1412 121.3 67.3181 120.785 67.4868C119.792 67.8122 119.53 67.8603 118.227 67.956C117.217 68.0302 116.979 68.0614 116.824 68.1403C116.553 68.2778 116.43 68.5354 116.43 68.9637V69.2148L116.271 69.2339C116.183 69.2444 115.892 69.2621 115.623 69.2733L115.134 69.2936L115.373 68.9694Z" fill="#E3DEDB" stroke="#E3DEDB" stroke-width="1.9816"/>
<path d="M116.88 67.7923C116.75 67.7607 116.599 67.7345 116.544 67.7338C116.482 67.7331 116.323 67.6711 116.124 67.5698C115.861 67.4357 115.753 67.3981 115.516 67.3576C115.357 67.3305 115.184 67.295 115.131 67.2787C114.983 67.233 114.758 67.0438 114.414 66.6753C114.071 66.3085 113.998 66.251 113.669 66.0894C113.548 66.0301 113.271 65.8478 113.053 65.6843C112.834 65.5208 112.63 65.3716 112.598 65.3527C112.308 65.1796 111.592 64.4863 111.347 64.1419C111.259 64.0175 111.062 63.751 110.911 63.5497C110.496 62.9981 110.264 62.6543 110.049 62.2708C109.695 61.6378 109.671 61.5272 109.82 61.1913C109.919 60.9668 110.021 60.8706 110.339 60.7007C110.558 60.5836 110.871 60.5437 110.972 60.6199C111.006 60.6461 111.128 60.8007 111.241 60.9637C111.354 61.1266 111.512 61.3326 111.592 61.4214C111.832 61.6885 111.958 61.7411 112.475 61.7894C112.661 61.8068 112.931 61.8555 113.076 61.8978C113.39 61.9898 113.519 61.9814 113.668 61.8595C113.804 61.7477 113.803 61.7483 114.025 61.6353C114.324 61.483 114.43 61.5469 114.744 62.0713C115.038 62.5621 115.208 62.6754 115.458 62.5483C115.556 62.4982 115.594 62.4527 115.684 62.2752C115.744 62.1581 115.818 62.0412 115.85 62.0156C115.997 61.8973 116.291 62.0177 116.476 62.2718C116.73 62.6215 116.796 62.6936 116.894 62.7273C117.07 62.788 117.171 62.7421 117.374 62.5085C117.698 62.1367 117.712 62.1379 118.076 62.5698C118.388 62.9405 118.461 62.983 118.744 62.9572C118.92 62.941 119.098 62.8499 119.347 62.6476C119.433 62.5772 119.557 62.4894 119.622 62.4524C119.687 62.4155 119.796 62.3232 119.864 62.2474C119.986 62.1109 119.988 62.1099 120.09 62.1449C120.348 62.234 120.567 62.1304 120.921 61.7509C121.13 61.5279 121.35 61.4041 121.686 61.322C122.091 61.2228 122.266 61.1264 122.447 60.9027C122.522 60.8109 122.629 60.7087 122.685 60.6757C122.797 60.6099 122.955 60.4245 123.018 60.2846C123.04 60.2358 123.146 60.077 123.254 59.9317C123.453 59.6653 123.625 59.5078 123.828 59.4059C124.031 59.3039 124.155 59.1748 124.243 58.9743C124.301 58.8407 124.386 58.7193 124.534 58.5591C124.712 58.3667 124.762 58.2899 124.866 58.0463C124.97 57.8026 125.004 57.7497 125.095 57.6925L125.201 57.6253L125.305 57.7823C125.361 57.8687 125.465 58.0128 125.536 58.1027L125.663 58.2661L125.641 58.4352C125.608 58.6772 125.616 59.2907 125.655 59.5481C125.732 60.0555 125.693 60.4386 125.486 61.1996C125.422 61.4319 125.351 61.7305 125.327 61.863C125.297 62.0282 125.238 62.2038 125.139 62.4213C124.959 62.8184 124.904 62.9785 124.855 63.2486C124.808 63.5061 124.711 63.7519 124.545 64.0361C124.477 64.1523 124.344 64.4222 124.249 64.6359C124.056 65.0721 123.994 65.1555 123.589 65.5155C123.137 65.9182 122.837 66.1382 122.22 66.5185C121.546 66.9338 121.337 67.0348 120.514 67.3408L119.924 67.5605L119.386 67.5659L118.848 67.5713L118.455 67.7009C118.066 67.8289 118.055 67.8306 117.589 67.84C117.202 67.8478 117.074 67.8392 116.88 67.7923V67.7923Z" fill="url(#paint0_radial_3:2)"/>
<path d="M4.77368 81.3187C4.77368 81.0312 5.13523 79.5455 5.27191 79.2711C5.27406 79.2668 5.63454 79.136 6.07301 78.9804C6.51149 78.8248 7.64671 78.412 8.59574 78.0631C11.7723 76.8952 14.0862 76.0787 15.0553 75.7839C17.5442 75.0268 20.7629 74.5488 21.3885 74.8434C21.5384 74.914 21.5411 74.9941 21.3984 75.1322C21.174 75.3493 20.558 75.5307 19.4125 75.7169C18.6769 75.8365 17.9788 76.0045 16.8521 76.3329C14.0572 77.1477 9.67142 78.6849 7.72372 79.5324C6.80427 79.9325 5.92675 80.455 5.14603 81.0673C4.78171 81.3531 4.77367 81.3585 4.77368 81.3187Z" fill="#C87137" stroke="#C87137" stroke-width="2.80241"/>
<path d="M26.3459 75.9676C26.1182 75.9487 25.8722 75.9045 25.7994 75.8695C25.6376 75.7918 25.5171 75.5771 25.5169 75.3663C25.5168 75.1916 25.5837 75.0913 25.7328 75.0433C25.8819 74.9952 28.6699 75.0119 28.8008 75.0617C28.9034 75.1007 28.912 75.1193 28.91 75.299C28.9075 75.5345 28.7819 75.7699 28.6081 75.8654C28.3523 76.0058 27.3516 76.051 26.3459 75.9676V75.9676Z" fill="#C87137" stroke="#C87137" stroke-width="2.80241"/>
<path d="M29.7536 75.9492C29.6505 75.8976 29.6344 75.8717 29.6557 75.7908C29.688 75.6672 29.8834 75.4278 30.0179 75.3468C30.1555 75.2639 30.2466 75.3034 30.3183 75.4771C30.4702 75.8453 30.1244 76.1344 29.7536 75.9492V75.9492Z" fill="#C87137" stroke="#C87137" stroke-width="2.80241"/>
<path d="M36.881 77.0355C36.7534 77.0165 36.4362 76.9519 36.176 76.8921C35.5537 76.749 34.6944 76.6025 33.532 76.4413C32.0827 76.2403 31.3591 76.1124 31.2097 76.0309C31.0426 75.9397 30.9716 75.7627 30.9716 75.4375C30.9716 75.2391 30.9874 75.1813 31.0665 75.0904C31.1997 74.9371 31.3165 74.9701 32.0181 75.3594C32.7077 75.7421 32.8953 75.7892 33.036 75.6147C33.1501 75.4733 33.3173 75.4675 33.8283 75.5872C34.3213 75.7028 35.6314 76.1333 36.4412 76.4459C37.0214 76.6699 37.6881 76.9983 37.6881 77.0602C37.6881 77.0916 37.1449 77.075 36.881 77.0355Z" fill="#C87137" stroke="#C87137" stroke-width="2.80241"/>
<path d="M24.0782 75.7573C23.7543 75.703 23.6569 75.5543 23.754 75.2621C23.8538 74.9615 24.0307 74.912 24.3499 75.0952C24.4887 75.1748 24.9583 75.5828 25.1426 75.7838C25.1698 75.8135 24.2812 75.7913 24.0782 75.7573V75.7573Z" fill="#C87137" stroke="#C87137" stroke-width="2.80241"/>
<path d="M22.307 75.7722C22.1893 75.7359 22.1092 75.6327 22.1295 75.5434C22.176 75.339 22.7959 74.8574 22.934 74.9183C22.9609 74.9302 22.9938 75.0029 23.0072 75.0798C23.0369 75.2502 22.9127 75.5633 22.7676 75.6843C22.6679 75.7675 22.4356 75.8118 22.307 75.7722Z" fill="#C87137" stroke="#C87137" stroke-width="2.80241"/>
<path d="M33.0806 81.5912C32.9641 81.5607 32.7764 81.4644 32.6596 81.3752C32.5437 81.2867 32.0705 80.7716 31.6082 80.2306C30.3581 78.7679 29.49 77.9177 28.6338 77.3174C28.2537 77.0509 27.9659 76.8007 27.9659 76.7368C27.9659 76.678 28.1816 76.6883 28.4127 76.7581C28.5241 76.7918 28.7906 76.9093 29.0049 77.0194C29.2192 77.1294 29.6868 77.3489 30.0439 77.507C30.4011 77.6652 30.8185 77.8668 30.9716 77.955C31.6881 78.3682 32.2534 78.9095 32.6359 79.5484C33.0115 80.1759 33.2769 80.4468 33.9892 80.9299C34.234 81.0959 34.4938 81.2944 34.5664 81.371L34.6985 81.5102L34.5513 81.5592C34.3238 81.6351 33.3305 81.6567 33.0806 81.5912V81.5912Z" fill="#C87137" stroke="#C87137" stroke-width="2.80241"/>
<path d="M12.6035 75.6847C12.6035 75.5866 12.8021 75.2473 13.0291 74.9574C13.3876 74.4996 14.1498 74.0817 15.3309 73.6953C15.9122 73.5051 16.6538 73.2829 16.7071 73.2829C16.7219 73.2829 16.627 73.362 16.4963 73.4586C16.2489 73.6416 16.0552 73.8206 15.5513 74.3319C14.9205 74.9722 14.2637 75.3403 13.29 75.5993C12.6493 75.7697 12.6035 75.7754 12.6035 75.6847Z" fill="#C87137" stroke="#C87137" stroke-width="2.80241"/>
<path d="M18.0211 82.0756C17.3292 81.8055 16.8666 81.6997 16.1601 81.6499C15.445 81.5994 15.0838 81.4945 14.1434 81.0639C13.3965 80.7219 12.9303 80.5822 12.5292 80.5804C12.3965 80.5798 11.9745 80.6026 11.5914 80.631C10.4639 80.7148 9.62339 80.6091 8.94919 80.2987C8.81983 80.2391 8.68699 80.1561 8.654 80.1142C8.57662 80.0158 8.61431 79.9055 8.73906 79.8652C8.91544 79.8082 9.97543 79.8417 10.544 79.9221C10.9996 79.9866 11.3899 80.0018 12.6962 80.0057C14.4094 80.0109 14.5401 80.0201 15.2195 80.1827C16.1894 80.4148 17.2744 80.9258 18.0902 81.5347C18.4542 81.8063 18.8375 82.1735 18.8375 82.2506C18.8375 82.3385 18.5208 82.2707 18.0211 82.0756V82.0756Z" fill="#C87137" stroke="#C87137" stroke-width="2.80241"/>
<path d="M105.149 76.1469C105.149 75.9815 105.943 74.9917 106.708 74.2035C108.304 72.5584 109.662 71.6348 111.346 71.0499C112.462 70.6622 114.1 70.3574 114.258 70.508C114.296 70.544 114.315 70.6373 114.315 70.7859C114.315 71.2463 114.164 71.3231 112.849 71.534C111.819 71.6991 111.083 71.9483 110.094 72.4658C108.837 73.1243 107.659 74.0057 106.244 75.3469C105.596 75.9615 105.149 76.2876 105.149 76.1469Z" fill="#C87137" stroke="#C87137" stroke-width="2.80241"/>
<path d="M108.594 71.0685C108.178 70.7332 107.752 70.4831 107.498 70.4251C107.4 70.4027 107.103 70.3634 106.838 70.3377C106.572 70.312 106.021 70.2427 105.613 70.1838C104.231 69.9841 103.461 69.7797 103.487 69.6195C103.513 69.4593 104.302 69.2822 105.431 69.1835C106.627 69.0788 108.238 69.3389 109.361 69.8179C109.67 69.9498 110.529 70.3762 110.575 70.421C110.607 70.4513 109.081 71.3636 109.005 71.3601C108.976 71.3588 108.791 71.2276 108.594 71.0685V71.0685Z" fill="#C87137" stroke="#C87137" stroke-width="2.80241"/>
<path d="M110.998 76.288C110.957 76.166 110.975 75.9129 111.048 75.5593C111.218 74.7467 111.746 73.6973 112.257 73.1612C112.667 72.7293 113.406 72.2563 113.894 72.1125C114.29 71.9957 114.686 72.0364 114.686 72.194C114.686 72.2583 114.373 72.5251 113.988 72.79C113.325 73.2456 112.816 73.7882 112.414 74.4683C111.977 75.2094 111.147 76.3556 111.049 76.3556C111.033 76.3556 111.01 76.3252 110.998 76.288Z" fill="#C87137" stroke="#C87137" stroke-width="2.80241"/>
<path d="M115.037 71.3431C114.849 71.1266 114.945 70.314 115.212 69.8634C115.346 69.6386 115.427 69.5729 115.429 69.6888C115.436 70.0663 115.511 70.9172 115.554 71.0964C115.622 71.3841 115.578 71.4478 115.312 71.4478C115.166 71.4478 115.109 71.4262 115.037 71.3431Z" fill="#C87137" stroke="#C87137" stroke-width="2.80241"/>
<path d="M116.368 71.1722C116.134 71.0553 116.05 70.7386 116.067 70.0379L116.077 69.5914L116.296 70.0822C116.555 70.6654 116.696 71.0791 116.666 71.1692C116.64 71.2493 116.524 71.2504 116.368 71.1722V71.1722Z" fill="#C87137" stroke="#C87137" stroke-width="2.80241"/>
<path d="M117.971 71.1855C117.609 71.1322 117.425 71.0173 117.208 70.7076C117.106 70.5638 117.024 70.4239 117.024 70.3966C117.024 70.3522 117.22 70.3113 117.821 70.2302C118.164 70.1841 119.501 70.0825 120.104 70.0568C121.059 70.0162 121.301 70.0902 121.405 70.4559C121.442 70.5827 121.438 70.6196 121.377 70.7164C121.203 70.9913 120.727 71.1233 119.662 71.1912C118.893 71.2402 118.329 71.2384 117.971 71.1855V71.1855Z" fill="#C87137" stroke="#C87137" stroke-width="2.80241"/>
<path d="M123.195 70.3339C122.939 70.2486 122.842 69.9535 122.858 69.3057L122.868 68.8696L123.132 69.2519C123.535 69.8343 123.642 70.1466 123.496 70.3139C123.432 70.3882 123.371 70.3923 123.195 70.3339V70.3339Z" fill="#C87137" stroke="#C87137" stroke-width="2.80241"/>
<path d="M122.036 70.4821C121.795 70.1293 121.863 69.2838 122.136 69.2368C122.203 69.2254 122.217 69.2519 122.237 69.4289C122.25 69.5418 122.292 69.807 122.33 70.0182C122.392 70.359 122.394 70.4131 122.346 70.4983C122.272 70.629 122.132 70.6216 122.036 70.4821V70.4821Z" fill="#C87137" stroke="#C87137" stroke-width="2.80241"/>
<path d="M128.387 72.6627C128.387 72.6267 128.431 72.4971 128.484 72.3746C128.842 71.5547 129.401 70.9457 130.236 70.4647C130.632 70.2367 130.836 70.1576 131.66 69.9111C132.041 69.7969 132.458 69.6495 132.587 69.5835C132.811 69.4685 132.845 69.4634 133.396 69.464C133.976 69.4647 134.373 69.5233 134.621 69.6446L134.751 69.7083L134.591 69.7914C134.503 69.8371 134.11 69.9674 133.719 70.0808C132.587 70.409 132.23 70.6038 131.077 71.5255C130.172 72.2487 129.592 72.5629 128.973 72.6642C128.477 72.7451 128.387 72.7449 128.387 72.6627V72.6627Z" fill="#C87137" stroke="#C87137" stroke-width="2.80241"/>
<path d="M124.315 69.7591C124.159 69.6671 123.943 69.3912 123.911 69.2445C123.892 69.1591 123.904 69.1151 123.956 69.0712C124.054 68.9889 124.486 68.8409 125.437 68.5633C126.89 68.1392 127.692 67.8222 128.665 67.2864C130.009 66.5465 130.632 66.4863 132.394 66.9258C132.755 67.0157 136.527 68.0647 136.621 68.1014C136.661 68.1169 136.652 68.1487 136.582 68.2378C136.532 68.3016 136.442 68.4307 136.383 68.5246C136.324 68.6184 136.169 68.8329 136.039 69.001L135.802 69.3068L135.604 69.2286C134.971 68.978 133.889 68.8443 132.257 68.8149C129.81 68.7707 128.028 68.9899 125.604 69.6331C124.896 69.8209 124.487 69.8609 124.315 69.7591V69.7591Z" fill="#C87137" stroke="#C87137" stroke-width="2.80241"/>
<path d="M114.569 50.0264C114.343 49.9704 114.281 49.5811 114.465 49.3645C114.551 49.264 114.635 49.2527 114.734 49.3289C114.866 49.4316 114.94 49.7354 114.865 49.8718C114.799 49.9916 114.68 50.0537 114.569 50.0264V50.0264Z" fill="#008000" stroke="#008000" stroke-width="1.4012"/>
<path d="M109.45 49.6916C109.221 49.3132 108.861 48.4839 108.825 48.2486C108.796 48.0623 108.891 47.9705 109.111 47.9733C109.416 47.9772 109.922 48.1577 110.129 48.3366C110.186 48.386 110.191 48.3978 110.181 48.477C110.169 48.5811 109.88 49.2577 109.733 49.5262C109.63 49.7153 109.562 49.8143 109.537 49.8143C109.53 49.8143 109.491 49.7591 109.45 49.6916Z" fill="#D40000" stroke="#D40000" stroke-width="1.4012"/>
<path d="M27.1422 39.5073C26.7486 39.5104 26.3812 39.5338 26.2123 39.5762C25.5839 39.7341 24.9702 40.2038 23.9623 41.2981C22.543 42.839 21.7593 43.8638 21.3107 44.7655C20.5676 46.2587 19.1895 49.8883 17.8552 53.8658C17.0725 56.199 16.7503 57.0728 16.1349 58.5314C15.0705 61.0546 14.12 62.7596 12.6612 64.7624C12.3707 65.1612 12.0738 65.5897 12.0014 65.7147C11.8347 66.0023 11.8656 66.0347 12.2735 65.9992C12.9123 65.9437 14.085 65.6045 15.1493 65.1673C15.4452 65.0458 15.871 64.8713 16.0955 64.7797C16.8277 64.4808 16.8486 64.4866 18.8971 65.5517C19.9134 66.0802 21.1487 66.6472 22.4595 67.1871C23.2044 67.4939 23.5282 67.6319 23.6852 67.7194C23.8095 67.4866 23.973 67.3772 24.1236 67.371C24.3076 67.3635 24.4717 67.5101 24.5213 67.7722L25.6216 67.7808L26.8027 67.7902C26.8625 67.5862 27.0025 67.4686 27.1624 67.4666C27.2739 67.4652 27.3946 67.5201 27.5039 67.6402C27.5055 67.6399 27.507 67.6395 27.5085 67.6392C27.5507 67.6307 27.5929 67.6228 27.6352 67.6149C27.6752 67.6076 27.7151 67.5999 27.7551 67.5926C27.797 67.5849 27.8389 67.5776 27.8809 67.5705C27.9208 67.5639 27.9607 67.5573 28.0006 67.5505C28.0427 67.5434 28.0848 67.5366 28.127 67.5301C28.1687 67.5235 28.2104 67.517 28.252 67.5105C28.2969 67.5035 28.3417 67.4964 28.3866 67.4896C28.3943 67.4884 28.402 67.4873 28.4097 67.4861C28.4677 67.4773 28.5226 67.4733 28.5743 67.4735C28.6036 67.4736 28.6316 67.4756 28.6588 67.4783C29.0969 67.2574 29.6392 66.9496 29.9577 66.732C30.8988 66.089 32.1102 64.7913 32.8912 63.5894C33.7212 62.312 34.3255 60.2868 34.7569 57.3365C35.0762 55.1523 35.189 53.3824 35.2622 49.4081C35.2828 48.2865 35.3171 47.1726 35.3383 46.9328C35.4301 45.8936 35.8118 44.7038 36.7417 42.5572C37.0093 41.9396 37.2283 41.4052 37.2283 41.3697C37.2283 41.3343 37.1777 41.2471 37.1159 41.176C36.9766 41.0159 36.9747 41.0162 36.0645 41.3536C35.6943 41.4908 35.286 41.6344 35.157 41.6727C34.7927 41.7811 34.2016 41.8261 33.7495 41.7799C33.0035 41.7037 32.4314 41.475 30.8458 40.6191C29.3233 39.7973 29.0127 39.6716 28.2297 39.5603C27.9557 39.5213 27.5358 39.5042 27.1422 39.5073V39.5073Z" fill="#E3DEDB" stroke="#E3DEDB" stroke-width="2.80241"/>
<path d="M26.2751 67.6348C26.1221 67.618 25.7995 67.5441 25.5583 67.4705C25.0956 67.3294 24.6685 67.2967 24.3641 67.379C24.2825 67.401 24.0059 67.432 23.7495 67.4479L23.2834 67.4767L22.6951 67.2764C22.2976 67.1411 21.9975 67.0084 21.7696 66.8671C21.5842 66.7521 21.2321 66.5787 20.9872 66.4817C19.9557 66.0733 19.1821 65.6315 18.3477 64.9742C17.758 64.5097 17.4805 64.2335 17.4811 64.1118C17.4815 64.0653 17.6896 63.7751 17.9593 63.4455C18.2221 63.1243 18.5808 62.6697 18.7564 62.4351C18.932 62.2006 19.3448 61.6856 19.6738 61.2907C20.7176 60.038 20.8773 59.7701 21.0273 59.0213C21.1735 58.2915 21.2951 57.9442 21.6679 57.1931C21.9677 56.5889 22.416 55.448 22.416 55.2889C22.416 55.2095 22.731 54.8755 22.806 54.8755C22.8377 54.8755 22.9256 54.9053 23.0013 54.9417C23.077 54.978 23.2137 55.0271 23.305 55.0506C23.5535 55.1147 23.7124 55.2462 23.7888 55.4512C23.8256 55.5499 23.9033 55.6742 23.9615 55.7273C24.058 55.8155 24.0948 55.8219 24.3827 55.8015C24.5853 55.7871 24.794 55.7396 24.9664 55.6687C25.3477 55.5119 25.4369 55.5201 25.5481 55.7227C25.5977 55.8131 25.7215 55.9715 25.8233 56.0748C25.925 56.178 26.0751 56.3605 26.1569 56.4803C26.3483 56.761 26.5272 56.8477 26.8846 56.833C27.1192 56.8233 27.165 56.8352 27.3141 56.945C27.406 57.0126 27.5588 57.153 27.6538 57.257C27.8649 57.4881 28.0176 57.5288 28.4618 57.4722C28.6368 57.4499 28.8819 57.421 29.0067 57.4079L29.2335 57.3842L29.342 57.5702C29.4017 57.6724 29.4916 57.7783 29.5419 57.8055C29.6602 57.8693 30.4922 57.9908 30.8107 57.9908C31.1274 57.9908 31.2205 58.0343 31.4591 58.294C31.7435 58.6032 31.8293 58.6335 32.3881 58.6215C32.8348 58.6119 32.8818 58.6191 33.2148 58.748C33.4089 58.8231 33.6373 58.9434 33.7223 59.0152C33.8835 59.1516 34.0198 59.4177 34.0545 59.6638C34.084 59.8729 33.8711 60.5737 33.6504 60.9936C33.3786 61.5109 33.3343 61.621 33.1525 62.232C32.9547 62.8968 32.8569 63.1029 32.431 63.752C32.0932 64.2669 31.2482 65.2553 30.9378 65.4986C30.8389 65.5761 30.4966 65.7981 30.1771 65.9919C29.8576 66.1857 29.3875 66.4853 29.1324 66.6577C27.8097 67.5515 27.2527 67.742 26.2751 67.6348V67.6348Z" fill="url(#paint1_radial_3:2)"/>
<path d="M28.3659 45.5547C28.2647 45.5041 28.1754 45.348 28.1752 45.2214C28.1748 44.8476 28.7603 44.737 28.8194 45.0998C28.8426 45.2418 28.7548 45.4596 28.6427 45.5382C28.5411 45.6094 28.4823 45.6129 28.3659 45.5547Z" fill="#008000" stroke="#008000" stroke-width="1.9816"/>
<g opacity="0.87" filter="url(#filter0_f_3:2)">
<path d="M109.474 48.1314C109.52 48.0788 109.938 48.4967 110.737 49.3955L111.6 50.3653L111.839 50.8266C112.301 51.7165 112.631 52.436 112.716 52.7383C112.888 53.3498 113.054 53.6354 113.759 54.5362C114.475 55.4523 114.405 55.3701 115.383 56.4445L116.108 57.2409L116.318 57.7433C116.734 58.7409 116.81 59.0394 116.71 59.2962C116.647 59.4575 116.107 60.2191 115.66 60.776C115.438 61.0523 115.204 61.3261 115.139 61.3845C114.932 61.5717 113.259 62.2234 113.003 62.2163C112.853 62.2121 112.321 62.0803 111.511 61.8469C110.768 61.6328 110.491 61.5266 110.4 61.422C110.336 61.3481 110.068 60.6415 109.978 60.3109C109.95 60.2066 109.753 59.7365 109.541 59.2662L109.187 58.4825C109.183 58.4619 109.178 58.4414 109.174 58.4207C109.157 58.3319 109.141 58.2426 109.126 58.1533L109.091 57.828C109.056 57.5072 108.992 56.9478 108.948 56.5848C108.849 55.7607 108.846 55.4285 108.929 54.7592C109.029 53.9559 109.106 53.0065 109.106 52.566C109.106 52.3489 109.068 51.9009 109.02 51.5704C108.966 51.1968 108.944 50.8432 108.962 50.6357C108.997 50.2237 109.004 50.1981 109.161 49.8954C109.434 49.3704 109.58 48.6406 109.486 48.2739C109.469 48.2074 109.463 48.1433 109.474 48.1314V48.1314Z" fill="url(#paint2_radial_3:2)"/>
</g>
<path d="M80.9255 26.9839C80.6696 26.9847 80.3445 27.0057 80.0121 27.0466L78.8033 27.1954L78.8008 28.4232C78.7969 30.2844 78.6768 30.5895 77.8467 30.8465C77.4478 30.9701 77.0344 31.2387 76.9282 31.4436C76.8219 31.6484 76.7555 32.0596 76.7807 32.3573C76.8376 33.0293 77.4196 33.1692 78.208 32.7003C79.245 32.0836 79.397 31.7661 79.3449 30.325L79.297 29.0014L80.1798 28.9354L81.0625 28.8694V29.9368C81.0625 31.4718 80.8739 32.3573 80.5469 32.3573C80.3927 32.3573 79.9373 32.5701 79.5349 32.8302C79.0139 33.167 78.8033 33.4474 78.8033 33.8045C78.8033 34.2612 78.8865 34.306 79.7358 34.306C80.2487 34.306 80.8841 34.1929 81.1478 34.0547L81.6273 33.8034V30.495C81.6273 28.3609 81.5551 27.1353 81.4241 27.0421C81.3682 27.0024 81.1814 26.9831 80.9255 26.9839H80.9255ZM69.771 27.1594C69.4698 27.159 69.0448 27.2842 68.4471 27.5283L67.5477 27.8958L67.4215 29.2063C67.1981 31.5264 66.9445 32.3678 66.3989 32.6003C66.1285 32.7155 65.7982 32.9753 65.6648 33.1774C65.5315 33.3796 65.4467 33.7406 65.4765 33.9797C65.5434 34.5159 66.6066 34.6705 67.3192 34.2476C67.7654 33.9828 67.79 33.8716 67.7934 32.1087C67.7972 30.0746 67.9342 29.7158 68.8468 29.35L69.4112 29.1237L69.3535 30.0242C69.3015 30.8378 69.2369 30.9423 68.6841 31.106C68.2122 31.2458 68.0722 31.4035 68.0722 31.7957C68.0722 32.0755 68.2032 32.4294 68.3633 32.5822C68.6046 32.8124 68.7407 32.7859 69.1583 32.4274C69.5405 32.0992 69.719 31.6716 69.8976 30.6571C70.0271 29.9214 70.2257 29.1204 70.3389 28.8771C70.4521 28.6338 70.49 28.1481 70.4231 27.7978C70.341 27.3679 70.1583 27.1599 69.771 27.1594V27.1594ZM80.3206 27.3904C80.3417 27.3902 80.3625 27.3904 80.3829 27.3912C80.7416 27.4049 80.978 27.574 81.0287 27.877C81.0843 28.2094 80.973 28.2544 80.2309 28.1993C79.2945 28.1299 79.0509 27.6938 79.8239 27.4707C80.0056 27.4183 80.1725 27.392 80.3206 27.3904V27.3904ZM72.2998 27.6326C72.2858 27.632 72.2712 27.6336 72.2559 27.637C71.9742 27.7 71.3173 29.4699 71.2874 30.2463C71.2668 30.7804 71.5557 30.7173 71.7827 30.1381C71.9574 29.6923 71.9851 29.7284 72.1092 30.5631C72.2656 31.6145 72.1555 31.9243 71.6258 31.9243C71.418 31.9243 71.0841 32.0252 70.8838 32.1484C70.4734 32.401 70.4064 33.0064 70.7456 33.3966C71.0996 33.8037 72.1146 33.7087 72.4886 33.2334C72.7857 32.8559 72.8068 32.5281 72.6847 30.1911C72.5771 28.1309 72.5096 27.6407 72.2998 27.6326V27.6326ZM69.4545 27.7668C69.6899 27.7651 69.8567 27.8175 69.8908 27.9283C69.9564 28.1413 68.4618 29.1096 68.0673 29.1096C67.6715 29.1096 67.8979 28.2267 68.3436 28.0318C68.736 27.8603 69.1519 27.7689 69.4545 27.7668ZM86.9101 28.506C86.8263 28.5091 86.7588 28.5343 86.714 28.5859C86.6125 28.7026 86.4727 29.7938 86.4034 31.0107C86.334 32.2277 86.2015 33.2234 86.1088 33.2234C86.0161 33.2234 85.7266 33.469 85.4656 33.7693C84.4631 34.9221 85.3555 35.8598 86.6765 35.0417C87.2411 34.692 87.2933 34.5825 87.1773 33.9914C86.9602 32.8854 86.8794 29.8858 87.0583 29.5752C87.2889 29.1747 88.1108 29.6715 88.5808 30.4954C89.0168 31.2598 89.2063 30.9538 88.8688 30.0305C88.6249 29.3635 87.4919 28.5252 86.9469 28.506C86.9343 28.5055 86.922 28.5055 86.9101 28.506V28.506ZM61.3226 28.9245C61.2329 28.923 61.1336 28.9275 61.0221 28.9369L60.2593 29.0014L60.1192 30.95C59.9473 33.3403 59.9157 33.4399 59.3303 33.4399C59.0717 33.4399 58.5607 33.6041 58.1947 33.8048C57.4497 34.2134 57.425 34.2755 57.7833 34.8389C57.9983 35.1771 58.2122 35.2198 59.1825 35.1187C59.8124 35.053 60.4146 34.9376 60.5207 34.8622C60.6429 34.7753 60.6748 33.955 60.6078 32.6211C60.4815 30.1077 60.6917 29.1963 61.3452 29.4243C62.636 29.8748 62.5604 29.8817 62.1517 29.3497C61.9194 29.0475 61.7113 28.9307 61.3226 28.9245V28.9245ZM46.8747 32.1409C46.8131 32.1409 46.1876 32.3417 45.4848 32.5872L44.2068 33.0336L43.7995 35.3478C43.5755 36.6206 43.3514 37.8846 43.3016 38.1568C43.2499 38.4385 42.9928 38.7469 42.7046 38.8729C42.4261 38.9947 42.0896 39.1981 41.9568 39.3248C41.824 39.4516 41.7153 39.8291 41.7153 40.1638C41.7153 40.9347 42.246 41.1612 43.0008 40.7123C43.6728 40.3127 43.8137 39.9543 43.9021 38.4197C43.9398 37.7648 44.0774 36.7418 44.2078 36.1464C44.4295 35.1346 44.4988 35.0442 45.2661 34.765C46.2962 34.3903 46.445 34.5884 46.3765 36.2418C46.3295 37.3753 46.3044 37.4266 45.7085 37.6033C45.0503 37.7985 44.5943 38.5741 44.791 39.1637C44.9527 39.6485 45.9008 39.5871 46.4906 39.0536L46.9867 38.6049V35.3729C46.9867 33.5953 46.9363 32.1409 46.8747 32.1409V32.1409ZM98.9005 32.1417C98.6221 32.141 98.5707 32.3504 98.5685 33.494C98.5645 35.6215 98.4765 35.8216 97.545 35.8216C97.1084 35.8216 96.6947 35.8865 96.6257 35.9659C96.4012 36.2241 96.4931 36.8443 96.7992 37.1364C97.1665 37.487 98.2946 37.4744 98.6707 37.1154C98.8665 36.9285 98.9483 36.399 98.9502 35.3079C98.9545 32.7106 99.2884 32.1664 100.102 33.4314C100.549 34.1281 100.956 34.1157 100.631 33.4152C100.391 32.8996 99.3625 32.1427 98.9005 32.1417V32.1417ZM53.3752 32.7904C53.1319 32.7904 53.0926 32.9643 52.8193 35.2479C52.5903 37.1616 52.589 37.1647 51.9063 37.4916C51.5303 37.6716 51.1603 37.9297 51.0843 38.0651C50.673 38.7975 51.1109 39.5023 51.9773 39.5023C53.1234 39.5023 53.2865 39.1523 53.356 36.5431C53.3904 35.2532 53.5022 34.1003 53.6045 33.9812C53.7279 33.8375 53.9411 33.9649 54.2389 34.3601C54.7684 35.0631 54.8938 35.0984 54.8938 34.5449C54.8938 34.1348 53.7302 32.7904 53.3752 32.7904ZM46.1881 32.8447C46.353 32.8485 46.4218 32.9299 46.4218 33.0861C46.4218 33.4218 45.8055 33.8859 44.9628 34.1849C44.3249 34.4112 44.3771 33.5001 45.0182 33.2198C45.6054 32.963 45.9762 32.8398 46.1881 32.8447ZM92.9556 35.6287C92.6355 35.6387 92.5461 36.0867 92.3904 37.3529C92.2722 38.3142 92.1269 39.191 92.0676 39.3015C92.0082 39.4119 91.696 39.5023 91.3737 39.5023C91.0515 39.5023 90.6328 39.6636 90.4435 39.8607C90.0257 40.2954 89.9961 41.0829 90.3834 41.4527C90.6955 41.7506 92.0902 41.6295 92.3958 41.2779C92.6791 40.9522 92.9138 39.5154 92.9187 38.0769C92.9211 37.3525 92.9804 36.694 93.0504 36.6135C93.1204 36.533 93.3637 36.6682 93.5911 36.9139C93.9465 37.2978 94.0204 37.3133 94.1169 37.0241C94.282 36.5292 94.0929 36.1286 93.5629 35.8509C93.2942 35.7101 93.1011 35.6241 92.9556 35.6287ZM48.5104 37.6681C48.4939 37.6676 48.4802 37.6708 48.4698 37.6782C48.3789 37.7428 48.3036 38.3015 48.3024 38.9197C48.2993 40.6283 48.0997 41.6916 47.7595 41.8122C47.5933 41.871 47.2667 42.0066 47.0337 42.1135C46.4966 42.3598 46.4594 43.2916 46.9742 43.6085C47.4992 43.9316 47.646 43.8953 48.2747 43.2869L48.8386 42.7412L48.7322 40.6887C48.6736 39.5598 48.6889 38.6363 48.7661 38.6363C48.8433 38.6363 49.1439 38.9285 49.4341 39.2858C50.0018 39.9847 50.3754 40.1209 50.3754 39.6289C50.3754 39.2606 48.8467 37.6785 48.5104 37.6681V37.6681ZM101.647 38.3683C101.272 38.3543 100.549 38.6676 99.047 39.3875C97.286 40.2317 97.1616 40.3326 97.0403 41.0151C96.9691 41.4152 96.9879 41.9757 97.0821 42.2604C97.1762 42.5452 97.2532 43.2458 97.2532 43.8173C97.2532 44.8444 97.2438 44.8605 96.4324 45.2169C95.9694 45.4203 95.5292 45.787 95.4228 46.0582C95.174 46.6926 95.3118 47.0551 95.862 47.2139C97.2285 47.6083 97.8598 46.3852 97.775 43.5078L97.7239 41.7757L98.4407 41.3731C98.8349 41.1516 99.2158 41.0376 99.2871 41.1197C99.3585 41.2017 99.4473 42.0406 99.4846 42.9838C99.5431 44.4651 99.51 44.6987 99.2414 44.6987C98.7187 44.6987 98.0063 45.6959 98.0063 46.4277C98.0063 47.5271 98.5236 47.5222 99.3794 46.4148C100.115 45.4622 100.119 45.448 100.013 44.0491C99.9542 43.275 99.8507 42.245 99.7831 41.76L99.6601 40.878L100.544 40.4901C101.033 40.2749 101.494 40.1854 101.578 40.2893C101.749 40.502 102.148 43.0304 102.148 43.9044C102.148 44.2861 102.047 44.4821 101.851 44.4821C101.688 44.4821 101.301 44.7735 100.991 45.1296C99.7928 46.508 100.824 47.7869 102.122 46.5312C102.68 45.9907 102.713 45.8762 102.713 44.4486C102.713 43.6178 102.626 42.7514 102.52 42.5234C102.414 42.2953 102.297 41.498 102.26 40.7514C102.224 40.0049 102.135 39.141 102.064 38.8316C101.996 38.5408 101.903 38.3779 101.647 38.3683V38.3683ZM27.0345 38.6514C25.6626 38.6668 25.0274 39.1768 23.2491 41.213C21.6364 43.0596 21.3346 43.5327 20.5419 45.4565C19.4955 47.9961 18.5931 50.4635 17.6121 53.4675C16.016 58.3548 14.3941 61.6756 12.2884 64.3675C11.3128 65.6148 11.5223 65.8934 13.1459 65.5078C14.2687 65.2411 14.9049 65.0096 16.2407 64.3821C16.8008 64.119 16.9513 64.1606 18.4999 65.0057C19.4124 65.5037 20.9581 66.2328 21.9348 66.626L23.7107 67.3408L23.6736 68.74C23.6177 70.8479 23.4349 72.7465 23.2559 73.0796C23.1405 73.2944 22.6102 73.3829 21.3452 73.3984C20.3821 73.4103 19.0012 73.4991 18.2764 73.5959L16.9585 73.7719L17.8801 72.8215C18.3869 72.2988 19.0435 71.6911 19.3391 71.471C20.5487 70.5705 19.6048 70.1478 18.2864 70.9996C17.7632 71.3378 16.4161 71.9335 15.293 72.3235C13.0792 73.0923 12.7366 73.3457 12.0262 74.7397C11.7683 75.246 11.4256 75.6602 11.2647 75.6602C10.8958 75.6602 7.30468 77.074 5.99209 77.7361C5.44848 78.0102 5.00373 78.3374 5.00373 78.463C5.00373 78.5886 5.0672 78.6923 5.14486 78.6931C5.22251 78.694 6.85336 78.1122 8.76895 77.4001C10.6845 76.6881 13.2767 75.7644 14.5292 75.3476C17.4696 74.3691 21.571 73.7973 21.571 74.3658C21.571 74.7034 20.8811 74.9406 19.1235 75.2073C17.0729 75.5184 8.51609 78.4521 6.79223 79.435C6.06741 79.8483 5.15663 80.4905 4.76833 80.8621C4.06761 81.5326 3.84275 82.1556 4.30142 82.1556C4.4329 82.1556 5.04566 81.721 5.66313 81.1899C6.76627 80.241 6.80544 80.2263 7.91854 80.3457C8.54158 80.4125 9.37415 80.5601 9.76864 80.6737C10.1631 80.7873 11.0588 80.8153 11.7589 80.736C12.8872 80.6081 13.1697 80.6589 14.2422 81.1827C15.047 81.5759 15.8308 81.7862 16.582 81.8106C17.336 81.8352 17.9774 82.0079 18.5111 82.3303C19.358 82.8419 20.7911 83.1629 21.275 82.9494C21.7429 82.7429 21.4096 82.2096 20.7195 82.0607C20.3691 81.9851 19.6095 81.4801 19.0313 80.9384C18.4531 80.3968 17.4536 79.6997 16.8103 79.3895C15.7947 78.8996 15.3344 78.8185 13.3161 78.7734C12.0376 78.7449 10.9633 78.689 10.9286 78.6491C10.8207 78.525 17.6365 76.3154 19.1235 75.9925C21.0311 75.5782 24.4197 75.7501 26.1834 76.3506C28.368 77.0944 29.2646 77.7376 31.1004 79.8776L32.8168 81.8785L34.2068 82.0063C34.9712 82.0766 35.7628 82.1633 35.9659 82.199C36.1867 82.2378 36.3608 82.1227 36.3987 81.9128C36.4626 81.5593 35.218 80.3922 34.0129 79.6755C33.6866 79.4815 33.1151 78.8352 32.743 78.2395C32.3278 77.5749 31.7298 76.9549 31.1957 76.6349C30.1567 76.0125 30.2832 75.9978 33.067 76.4189C35.7322 76.822 38.3883 77.473 39.6911 78.0425C40.7494 78.5051 41.3387 78.5918 41.3387 78.2849C41.3387 77.9971 41.0048 77.7378 39.3757 76.761C38.5548 76.2688 37.7924 75.7805 37.6813 75.6759C37.3764 75.3888 35.0857 74.6524 32.8668 74.1281C31.6135 73.8319 30.7418 73.5052 30.4849 73.2354C30.0539 72.7828 27.7837 68.1213 27.7837 67.689C27.7837 67.548 27.8994 67.4327 28.0408 67.4327C28.1822 67.4327 28.8873 67.0935 29.6076 66.6791C31.137 65.7991 32.9422 63.7729 33.6679 62.1217C34.8154 59.5102 35.4986 54.7419 35.501 49.3254C35.5024 46.3411 35.5456 45.9168 35.9858 44.5621C36.2516 43.7441 36.7246 42.5504 37.0369 41.9096C37.538 40.8812 37.5719 40.7069 37.3262 40.4242C37.0804 40.1416 36.923 40.1576 35.9856 40.5609C34.241 41.3116 33.2239 41.1395 30.7018 39.6664C29.4784 38.9519 28.9443 38.7676 27.8565 38.6849C27.6062 38.6659 27.3793 38.6536 27.1697 38.6514C27.1238 38.6509 27.0788 38.6509 27.0345 38.6514V38.6514ZM101.138 39.1421C101.229 39.1405 101.303 39.1507 101.356 39.1745C101.625 39.2956 101.588 39.3733 101.131 39.6512C100.678 39.9271 98.082 41.0179 97.8792 41.0179C97.8455 41.0179 97.818 40.8838 97.818 40.7198C97.818 40.2666 100.26 39.1573 101.138 39.1421ZM27.7829 39.6344C28.7238 39.6315 29.7689 40.0201 31.4536 40.9255C32.7364 41.6149 33.4759 41.884 34.0874 41.884C34.5551 41.884 34.9377 41.9783 34.9377 42.0937C34.9377 42.209 35.0648 42.2473 35.2201 42.1788C35.5881 42.0164 35.5829 42.054 35.0452 43.4522C34.5997 44.6109 34.5887 44.7737 34.6153 49.8122C34.6439 55.2367 34.5193 57.1599 34.0966 57.8248C33.8542 58.206 33.8249 58.2071 33.4793 57.8474C33.2222 57.5798 32.9479 57.5084 32.5383 57.6027C32.0677 57.7109 31.9188 57.6468 31.7378 57.2579C31.5436 56.8404 31.4141 56.7976 30.7117 56.9187C29.988 57.0436 29.8757 57.001 29.5858 56.4922C29.2726 55.9424 29.2507 55.937 28.7774 56.2937C28.3092 56.6465 28.2789 56.6419 27.9691 56.1697C27.7269 55.8004 27.5196 55.7071 27.1312 55.7925C26.6963 55.8881 26.5559 55.7907 26.2394 55.1739C26.0329 54.7712 25.8396 54.4418 25.8099 54.4418C25.7803 54.4418 25.4788 54.5759 25.14 54.7397C24.543 55.0284 24.5034 55.014 23.8631 54.2777L23.2023 53.5177L23.6384 51.977C23.8782 51.1296 24.1997 50.0466 24.3529 49.5702C24.5062 49.0939 24.6957 48.4119 24.774 48.0546C24.8523 47.6974 24.9775 47.2346 25.0523 47.0262C25.1455 46.7664 25.1014 46.6473 24.9119 46.6473C24.548 46.6473 23.6383 48.6814 22.9753 50.9776C22.683 51.9898 22.3244 52.9325 22.1786 53.0726C22.0249 53.2202 21.8942 53.8117 21.8676 54.48C21.8195 55.6913 20.9975 57.9285 20.8631 57.2137C20.8252 57.0116 20.8911 56.6378 21.0095 56.3832C21.128 56.1286 21.1757 55.8637 21.1155 55.7945C20.9839 55.6431 20.9785 55.6518 20.603 56.607C20.3904 57.1478 20.3599 57.4644 20.4965 57.7128C20.7348 58.1458 19.6986 60.3446 19.0129 60.8613C18.7649 61.0482 18.6086 61.2879 18.6656 61.3939C18.7226 61.5 18.6649 61.5868 18.5374 61.5868C18.4098 61.5868 17.8185 62.0739 17.2233 62.6694C16.6139 63.279 15.9559 63.7519 15.7174 63.7519C15.4844 63.7519 15.1451 63.9066 14.9635 64.0957C14.7818 64.2847 14.4944 64.4065 14.3247 64.3663C14.0848 64.3094 14.1655 64.1273 14.6873 63.5471C15.0563 63.1367 15.3582 62.6878 15.3582 62.5497C15.3582 62.4116 15.6547 61.852 16.0171 61.3061C16.3796 60.7603 16.6761 60.1559 16.6761 59.9631C16.6761 59.7703 16.755 59.6687 16.8513 59.7372C16.9477 59.8057 17.0752 59.7713 17.1346 59.6607C17.194 59.5501 17.1025 59.4833 16.9311 59.5122C16.7597 59.5411 16.2904 59.9954 15.8881 60.5217L15.1567 61.4785L16.3305 58.7318C16.9761 57.2212 17.5597 56.0246 17.6274 56.0728C17.8189 56.2089 18.166 55.1823 18.0799 54.7343C18.0376 54.5139 18.2478 53.749 18.5471 53.0345C19.0458 51.8438 19.0939 51.7895 19.1234 52.3849C19.1502 52.9268 19.1939 52.855 19.3869 51.9519C19.5142 51.3565 19.7188 50.6565 19.8416 50.3964C19.9644 50.1363 20.0649 49.6839 20.0649 49.3911C20.0649 49.0983 20.192 48.8027 20.3473 48.7342C20.5026 48.6656 20.6296 48.5033 20.6296 48.3734C20.6296 48.2436 20.5452 48.1973 20.4419 48.2707C19.8735 48.6747 22.1377 43.7039 23.0871 42.4635C24.0321 41.2289 25.432 40.1991 26.6943 39.8101C27.0626 39.6966 27.4148 39.6355 27.7829 39.6344V39.6344ZM25.2421 42.8583L24.8185 43.2708C24.5856 43.4976 24.3949 43.7169 24.3949 43.7579C24.3949 43.9312 24.5464 43.8032 24.8835 43.3454L25.2421 42.8583ZM34.2727 43.6161C34.2176 43.6161 34.0959 43.8353 34.0022 44.1032C33.7592 44.7987 33.7815 44.8656 34.0965 44.3866C34.3767 43.9607 34.4554 43.6161 34.2727 43.6161ZM28.6801 43.7736C28.5252 43.7699 28.3554 43.8296 28.1893 43.9634C27.7151 44.3454 27.6629 44.9633 28.0717 45.3535C28.5114 45.7732 29.2898 45.2934 29.2898 44.6027C29.2898 44.096 29.0209 43.7815 28.6801 43.7736V43.7736ZM115.321 44.1722C114.063 44.1696 112.725 44.8208 111.119 46.1671L110.206 46.9326L109.242 46.578C108.658 46.3632 108.21 46.3017 108.105 46.4218C107.906 46.6506 108.412 49.179 108.853 50.1596C109.084 50.6726 109.098 50.9311 108.925 51.4828C108.611 52.4843 108.485 56.0298 108.697 57.9175C109.109 61.5956 111.001 64.6457 114.022 66.502L115.665 67.512L115.088 68.3383C114.656 68.9569 114.365 69.17 113.93 69.1856C113.611 69.197 112.926 69.3223 112.409 69.464C111.512 69.7094 111.403 69.6879 110.105 69.0053C108.578 68.2016 106.401 67.7821 104.882 67.9986C103.952 68.1311 101.715 69.0181 101.254 69.4369C100.747 69.8978 101.037 70.0711 102.101 69.9419C103.445 69.7788 107.699 70.4759 108.088 70.9229C108.324 71.1943 108.205 71.3684 107.172 72.2657C105.817 73.4428 103.466 76.3338 103.466 76.8229C103.466 77.0029 103.551 77.2105 103.654 77.284C103.947 77.4919 105.992 76.1444 107.145 74.9847C108.355 73.7666 109.481 72.9728 110.839 72.379L111.81 71.955L111.498 72.4544C110.908 73.4004 110.665 74.0396 110.448 75.2183C110.329 75.8684 110.098 76.5687 109.936 76.7745C109.626 77.1689 109.726 77.6088 110.127 77.6088C110.48 77.6088 112.031 75.827 112.61 74.7559C113.264 73.5453 113.9 72.941 114.957 72.5267C115.426 72.3426 115.955 71.998 116.132 71.7609C116.401 71.3991 116.688 71.3299 117.918 71.3299C120.014 71.3299 122.35 70.9567 124.013 70.3561C125.706 69.7445 129.491 68.8808 129.964 68.998C130.2 69.0566 130.069 69.2143 129.502 69.5549C128.998 69.857 128.535 70.3735 128.229 70.973C127.644 72.1208 127.227 72.5691 126.087 73.276C125.507 73.6363 125.19 73.9843 125.15 74.307C125.117 74.5749 125.184 74.7941 125.298 74.7941C125.652 74.7941 126.86 74.1533 127.764 73.4862C128.239 73.1355 129.066 72.753 129.601 72.6363C130.267 72.4911 130.871 72.1546 131.513 71.5711C132.523 70.6525 133.666 70.1446 135.236 69.9171C136.031 69.8017 136.224 69.6947 136.224 69.3686C136.224 68.7481 135.59 68.4867 133.613 68.2919C131.397 68.0735 128.341 68.3381 126.142 68.9388C124.591 69.3623 124.474 69.3672 124.142 69.0221C123.948 68.8204 123.855 68.5799 123.935 68.4876C124.016 68.3954 124.824 68.1207 125.732 67.8772C126.64 67.6337 127.883 67.1442 128.495 66.7893C130.227 65.7836 130.656 65.7822 134.116 66.7715C135.804 67.2542 137.229 67.6492 137.283 67.6492C137.337 67.6492 137.354 67.4922 137.32 67.3003C137.228 66.7707 132.583 65.4353 130.764 65.4154C129.53 65.4019 129.204 65.4874 128.174 66.0959C127.525 66.4786 126.223 66.996 125.28 67.2458L123.565 67.6998L123.132 67.0791L122.698 66.4583L123.6 65.5461C124.192 64.9482 124.773 64.0359 125.287 62.8988C126.041 61.2331 126.072 61.0835 126.079 59.156C126.087 56.5805 125.678 55.0598 124.303 52.5577C122.229 48.7856 120.076 46.3622 117.398 44.7865C116.708 44.3809 116.027 44.1737 115.321 44.1722V44.1722ZM28.6004 44.2581C28.7751 44.2635 28.9165 44.4112 28.8774 44.6445C28.8425 44.8529 28.6951 45.0235 28.5498 45.0235C28.2526 45.0235 28.0845 44.6414 28.2818 44.4145C28.3788 44.3029 28.4956 44.2549 28.6004 44.2581ZM22.4135 44.5546C22.3869 44.5558 22.3564 44.5674 22.324 44.5904C22.2205 44.664 22.1358 44.7671 22.1358 44.8197C22.1358 44.8722 22.2205 44.9151 22.324 44.9151C22.4275 44.9151 22.5123 44.812 22.5123 44.6859C22.5123 44.5992 22.4722 44.5518 22.4135 44.5546ZM24.0338 44.6987C23.9387 44.6987 23.6678 45.064 23.4318 45.5105C23.1959 45.9571 22.9475 46.3712 22.8799 46.4307C22.8123 46.4903 22.7086 46.6851 22.6495 46.8638C22.3177 47.866 22.7615 47.5666 23.2542 46.4557C23.4523 46.0093 23.7476 45.5168 23.9105 45.3614C24.2376 45.0492 24.3028 44.6987 24.0338 44.6987ZM115.222 45.2259C116.204 45.2451 117.239 45.882 119.11 47.4979C121.89 49.898 123.023 51.3777 124.187 54.1256L125.146 56.3893L124.587 56.9305C124.28 57.2282 123.975 57.7156 123.91 58.0136C123.833 58.3637 123.659 58.5555 123.418 58.5555C123.213 58.5555 123.045 58.634 123.045 58.7298C123.045 59.1753 121.74 60.5042 121.302 60.5042C121.044 60.5042 120.727 60.6503 120.598 60.829C120.469 61.0076 120.163 61.1537 119.918 61.1537C119.672 61.1537 119.366 61.3486 119.236 61.5868C118.923 62.1646 118.635 62.1326 118.262 61.4785C117.904 60.8493 117.65 60.8032 117.189 61.2832C116.828 61.6587 116.456 61.5314 116.456 61.0327C116.456 60.6193 115.722 60.6301 115.583 61.0455C115.413 61.555 114.969 61.4258 114.839 60.829C114.702 60.2009 114.299 60.12 114.029 60.6666C113.87 60.9881 113.782 61.004 113.452 60.7714C113.232 60.6165 112.854 60.5575 112.583 60.6358C112.198 60.747 112.082 60.6838 111.999 60.3145C111.941 60.0616 111.805 59.8547 111.695 59.8547C111.586 59.8547 111.341 59.6925 111.151 59.4943C110.826 59.1565 110.777 59.1634 110.369 59.6048L109.933 60.0757L109.711 59.5863C109.589 59.3171 109.405 58.572 109.301 57.9306C109.074 56.5143 109.081 56.2549 109.429 53.2742C109.813 49.9791 110.667 47.5697 111.661 46.9719C111.865 46.8493 112.371 46.4881 112.785 46.1694C113.199 45.8507 113.935 45.4769 114.42 45.3387C114.661 45.27 114.893 45.2308 115.127 45.226C115.158 45.2253 115.19 45.2253 115.222 45.2259V45.2259ZM33.5828 45.6078C33.5499 45.6087 33.4943 45.6696 33.4316 45.7813C33.3312 45.9599 33.2491 46.2034 33.2491 46.3225C33.2491 46.4416 33.3312 46.3929 33.4316 46.2143C33.532 46.0357 33.6141 45.792 33.6141 45.6729C33.6141 45.6283 33.6025 45.6073 33.5828 45.6078ZM22.1052 45.7887C22.0761 45.7899 21.9757 45.8924 21.7866 46.0854C21.5645 46.3123 21.3827 46.6289 21.3827 46.7891C21.3827 46.9493 21.3076 47.0803 21.2158 47.0803C21.124 47.0803 21.0024 47.3483 20.9456 47.6757C20.6467 49.398 20.4389 50.2933 20.1791 50.9776C20.0208 51.3944 19.8954 51.979 19.9005 52.2767C19.908 52.7223 20.4769 51.0012 21.5545 47.2729C21.6444 46.962 21.8242 46.4748 21.9542 46.1903C22.0796 45.9159 22.1382 45.7873 22.1052 45.7887V45.7887ZM116.433 46.2143C116.146 46.2143 116.253 46.4067 116.692 46.6751C117.076 46.9105 117.091 46.9011 116.857 46.5745C116.715 46.3764 116.524 46.2143 116.433 46.2143V46.2143ZM117.372 46.6473C117.231 46.6473 117.239 46.7527 117.398 46.9721C117.559 47.1965 117.567 47.2968 117.421 47.2968C117.084 47.2968 117.175 47.6009 117.602 47.9079C117.962 48.1665 117.984 48.1512 117.867 47.7252C117.741 47.2684 117.748 47.2667 118.274 47.629C118.79 47.9843 118.787 47.973 118.195 47.3226C117.857 46.9512 117.486 46.6473 117.372 46.6473V46.6473ZM23.5121 46.6676C23.4841 46.6699 23.5024 46.7537 23.5599 46.9273C23.6306 47.1408 23.7358 47.2609 23.7938 47.1943C23.8517 47.1276 23.7939 46.9529 23.6652 46.806C23.5839 46.7132 23.534 46.6657 23.5121 46.6676V46.6676ZM22.2075 47.339C22.2033 47.3385 22.1992 47.3386 22.1954 47.3392C22.1555 47.3453 22.1358 47.408 22.1358 47.5275C22.1358 47.7021 21.9712 48.1843 21.77 48.5993C21.414 49.3337 21.2868 49.895 21.4764 49.895C21.5279 49.895 21.7824 49.3888 22.042 48.77C22.3579 48.0169 22.4513 47.5732 22.3248 47.4276C22.2763 47.3719 22.2373 47.3423 22.2075 47.339V47.339ZM109.113 47.3686C109.483 47.3603 110.244 47.6559 110.244 47.8435C110.244 48.043 109.677 49.2454 109.584 49.2454C109.537 49.2454 109.324 48.8538 109.112 48.3751C108.804 47.6799 108.777 47.4821 108.982 47.392C109.015 47.3772 109.06 47.3698 109.113 47.3686V47.3686ZM23.0064 47.5359C22.897 47.5429 22.6898 47.9486 22.5992 48.436C22.5275 48.8217 22.3835 49.259 22.2792 49.4078C22.175 49.5567 22.1635 49.68 22.2539 49.6818C22.3442 49.6836 22.3262 49.7567 22.2138 49.8442C22.1014 49.9316 21.9134 50.1981 21.796 50.4363C21.5138 51.0084 21.5156 51.4237 21.7999 51.3565C21.9259 51.3267 22.1704 50.7924 22.3434 50.1692C22.8576 48.3164 22.8891 48.2462 23.0619 48.5677C23.1704 48.7695 23.2416 48.691 23.307 48.2976C23.3577 47.9925 23.3267 47.7944 23.2381 47.8574C23.1495 47.9204 23.077 47.863 23.077 47.7298C23.077 47.5915 23.0493 47.5332 23.0064 47.5359V47.5359ZM114.594 48.1716C114.454 48.1733 114.298 48.2148 114.118 48.2943C113.64 48.5054 113.743 49.6099 114.279 50.0137C115.184 50.6962 115.995 49.395 115.219 48.5031C115.022 48.2764 114.829 48.1687 114.594 48.1716ZM118.495 48.6315C118.413 48.6338 118.396 48.7313 118.453 48.9026C118.516 49.0912 118.65 49.2454 118.751 49.2454C118.999 49.2454 118.844 48.7534 118.562 48.6455C118.537 48.6356 118.514 48.631 118.495 48.6315ZM114.649 48.6731C114.799 48.6735 114.95 48.8787 114.95 49.15C114.95 49.3216 114.823 49.462 114.668 49.462C114.384 49.462 114.281 49.0049 114.506 48.7461C114.55 48.6956 114.599 48.673 114.649 48.6731ZM111.641 49.7777C111.611 49.7853 111.591 49.9068 111.591 50.1115C111.591 50.4092 111.634 50.531 111.686 50.3822C111.738 50.2333 111.738 49.9897 111.686 49.8408C111.67 49.7943 111.654 49.7742 111.641 49.7777ZM119.885 49.9011C119.862 49.906 119.845 50.0038 119.845 50.1501C119.845 50.3301 120.028 50.663 120.251 50.8899L120.656 51.3023L120.308 50.6528C120.116 50.2956 119.933 49.9627 119.902 49.913C119.896 49.9037 119.89 49.8999 119.885 49.9011V49.9011ZM21.5116 50.1989C21.4841 50.203 21.4401 50.2827 21.3827 50.4363C21.2937 50.6744 21.2209 51.0154 21.2209 51.1941C21.2209 51.3988 21.2807 51.3588 21.3827 51.0858C21.4717 50.8477 21.5445 50.5067 21.5445 50.328C21.5445 50.2385 21.533 50.1958 21.5116 50.1989V50.1989ZM117.665 51.0768C117.636 51.0844 117.616 51.206 117.616 51.4106C117.616 51.7083 117.658 51.8301 117.711 51.6813C117.763 51.5324 117.763 51.2888 117.711 51.1399C117.694 51.0934 117.679 51.0734 117.665 51.0768V51.0768ZM21.1548 52.0026C21.0909 52.0004 21.0047 52.2955 20.9137 52.9148C20.8448 53.3837 20.668 53.8823 20.5208 54.0229C20.3735 54.1634 20.2531 54.3302 20.2531 54.3936C20.2531 54.457 20.4204 54.3348 20.6249 54.122C20.9888 53.7433 20.996 53.7517 20.9708 54.5224C20.9567 54.9555 21.0012 55.3743 21.0698 55.4532C21.1383 55.532 21.1967 55.4585 21.1996 55.2898C21.2023 55.1211 21.2265 54.2839 21.2532 53.4293C21.2822 52.4998 21.2369 52.0054 21.1548 52.0026ZM19.8619 53.0737C19.677 53.0772 19.3973 53.9224 19.4813 54.3213C19.505 54.4337 19.3767 54.9021 19.1963 55.3623C18.9176 56.0731 18.8411 56.1432 18.6878 55.8281C18.5387 55.5216 18.4477 55.638 18.1636 56.4989C17.9745 57.0718 17.872 57.6379 17.9359 57.7568C17.9998 57.8757 17.9595 57.9071 17.8463 57.8266C17.7331 57.7462 17.5532 57.853 17.4464 58.0639C17.2662 58.4199 17.251 58.4163 17.2334 58.0143L17.2144 57.5813L17.0526 58.0143C16.9636 58.2524 16.8916 58.6421 16.8925 58.8803C16.8934 59.1185 16.9368 59.1916 16.9891 59.0427C17.0413 58.8939 17.1666 58.7721 17.2677 58.7721C17.3687 58.7721 17.3909 58.8845 17.317 59.022C17.233 59.1783 17.2654 59.2132 17.4036 59.115C17.5251 59.0286 17.8362 58.4777 18.0948 57.8907C18.3534 57.3037 18.6166 56.8234 18.6796 56.8234C18.7913 56.8234 18.6962 57.5773 18.4749 58.4473C18.4143 58.6855 18.4893 58.5881 18.6416 58.2308C18.7938 57.8736 18.9221 57.3694 18.9268 57.1105C18.9314 56.8515 19.1963 55.89 19.5153 54.9737C19.8835 53.9163 20.0297 53.2323 19.9157 53.1011C19.8991 53.0821 19.881 53.0734 19.8619 53.0737V53.0737ZM18.4201 53.8268C18.387 53.8257 18.3746 53.9084 18.3733 54.0809C18.3702 54.509 18.7885 54.4774 18.8623 54.044C18.8928 53.865 18.8743 53.8598 18.8043 54.0279C18.732 54.2009 18.653 54.1864 18.5388 53.9791C18.4839 53.8794 18.4457 53.8277 18.4201 53.8268V53.8268ZM23.4698 54.6665C23.5638 54.6724 23.6419 54.7703 23.6419 54.9565C23.6419 55.1206 23.769 55.3761 23.9243 55.5244C24.0796 55.6726 24.2067 55.8899 24.2067 56.0071C24.2067 56.1243 24.0796 56.1642 23.9243 56.0956C23.769 56.0271 23.6419 56.0773 23.6419 56.2072C23.6419 56.3631 23.5457 56.3518 23.3595 56.174C23.0786 55.9059 23.0203 55.4459 23.2017 54.929C23.2656 54.7468 23.3757 54.6606 23.4698 54.6665ZM25.5455 55.3383C25.5898 55.3391 25.6232 55.3492 25.6418 55.3705C25.7894 55.5403 25.2827 56.6653 25.0538 56.6757C24.9503 56.6804 24.7536 56.813 24.6168 56.9704C24.48 57.1278 24.2893 57.2565 24.1932 57.2565C23.8511 57.2565 24.0249 56.5644 24.3949 56.4531C24.602 56.3909 24.7714 56.2481 24.7714 56.1359C24.7714 56.0236 24.6868 55.992 24.5832 56.0656C24.4797 56.1392 24.3949 56.1081 24.3949 55.9965C24.3949 55.7816 25.2357 55.3327 25.5455 55.3383V55.3383ZM23.6021 56.607C23.8244 56.607 23.8319 56.6683 23.6419 56.9317C23.513 57.1103 23.3332 57.2565 23.2423 57.2565C23.0473 57.2565 23.0238 56.9569 23.2026 56.7513C23.2716 56.6719 23.4514 56.607 23.6021 56.607V56.607ZM27.2295 56.6919C27.4558 56.7024 27.6908 56.8278 27.7521 57.0393C27.8073 57.2298 27.732 57.28 27.527 57.1895C27.3575 57.1148 27.2189 57.1479 27.2189 57.2632C27.2189 57.3786 27.0918 57.473 26.9365 57.473C26.6262 57.473 26.5835 57.2863 26.8029 56.8896C26.8827 56.7452 27.0535 56.6838 27.2295 56.6919V56.6919ZM26.1764 56.8631C26.4343 56.8696 26.4732 56.9755 26.4318 57.3096C26.397 57.5898 26.2133 57.8269 25.9952 57.873C25.4754 57.983 25.0813 58.3744 25.3198 58.5439C25.4295 58.6219 25.3615 58.785 25.1586 58.9307C24.8652 59.1414 24.8161 59.1225 24.8593 58.8151C24.9362 58.2672 24.7843 58.0928 24.4936 58.3954C24.2831 58.6145 24.2796 58.7434 24.4742 59.0969C24.6054 59.335 24.6989 59.7293 24.6822 59.9731C24.6591 60.3093 24.7685 60.4211 25.1352 60.4361C25.4065 60.4472 25.474 60.412 25.2892 60.3559C24.4983 60.1159 25.3332 58.8179 26.1834 58.9655C26.3905 59.0015 26.5005 58.9611 26.4277 58.8758C26.3013 58.7273 26.699 58.1225 26.923 58.1225C26.9822 58.1225 27.1969 58.3139 27.4003 58.5477C27.8351 59.0478 27.5875 59.3313 27.0206 58.9824C26.6853 58.776 26.6109 58.8071 26.5241 59.189C26.4679 59.436 26.3047 59.6381 26.1615 59.6381C26.0182 59.6381 25.901 59.7356 25.901 59.8547C25.901 59.9738 26.026 60.0711 26.1788 60.0711C26.3853 60.0711 26.4282 60.2334 26.3463 60.7043C26.2753 61.1127 26.3438 61.514 26.5393 61.835C26.9337 62.4826 26.9223 62.6049 26.44 62.9018C26.0698 63.1296 26.0451 63.1042 26.1315 62.5846C26.1831 62.2739 26.1524 62.0198 26.0632 62.0198C25.974 62.0198 25.901 61.8794 25.901 61.7078C25.901 61.2282 25.5768 61.1053 25.1048 61.4063C24.8697 61.5561 24.6075 61.6556 24.5222 61.6274C24.4368 61.5991 24.4206 61.6758 24.4862 61.7979C24.5517 61.9199 24.5157 62.0198 24.406 62.0198C24.2963 62.0198 24.2067 61.8736 24.2067 61.695C24.2067 61.5164 24.2914 61.3703 24.3949 61.3703C24.4985 61.3703 24.5832 61.2046 24.5832 61.0021C24.5832 60.7159 24.533 60.6918 24.3573 60.8939C24.233 61.0368 24.0636 61.1537 23.9808 61.1537C23.7295 61.1537 23.8121 60.5559 24.1109 60.2123C24.3221 59.9694 24.3337 59.8663 24.1579 59.7961C24.0097 59.7368 23.8517 60.0671 23.7259 60.6989C23.6025 61.3184 23.4246 61.695 23.2553 61.695C22.7658 61.695 22.9354 59.8999 23.4701 59.4217C23.5367 59.3621 23.6489 59.0698 23.7196 58.7721C23.8265 58.3217 23.8134 58.2944 23.6415 58.6097C23.3262 59.1878 23.1583 59.0655 23.1393 58.244C23.1195 57.3906 23.611 56.9657 23.7764 57.6931C23.8531 58.0305 23.934 58.0764 24.1272 57.8919C24.2654 57.7601 24.4601 57.7103 24.5599 57.7812C24.6596 57.8521 24.8963 57.6874 25.0858 57.4151C25.2753 57.1429 25.6692 56.8989 25.9611 56.873C26.0456 56.8654 26.1168 56.8617 26.1764 56.8631V56.8631ZM29.0103 57.1658C29.2169 57.1598 29.4104 57.2688 29.7493 57.5243L30.3847 58.0034L30.0127 58.6042C29.644 59.1998 29.1016 59.4194 29.1016 58.9731C29.1016 58.8455 28.9821 58.6037 28.836 58.4357C28.6899 58.2677 28.5302 58.0068 28.481 57.8558C28.4173 57.6601 28.3132 57.6985 28.1183 57.9899C27.968 58.2147 27.7646 58.3609 27.6664 58.3147C27.4142 58.1962 27.578 57.4532 27.8455 57.5021C27.9669 57.5243 28.3018 57.4306 28.59 57.2938C28.7576 57.2143 28.8864 57.1694 29.0103 57.1658ZM29.0323 57.3082C28.9959 57.3157 28.9571 57.4104 28.8936 57.597C28.6972 58.1736 28.6967 58.1703 28.9604 58.0616C29.0898 58.0082 29.3439 58.0523 29.5251 58.1594C29.7358 58.2841 29.8546 58.2735 29.8546 58.1302C29.8546 58.0069 29.7249 57.906 29.5663 57.906C29.4077 57.906 29.2234 57.7427 29.1568 57.543C29.1026 57.3805 29.0686 57.3007 29.0323 57.3082V57.3082ZM21.8842 57.3363C21.8897 57.3371 21.8944 57.3398 21.8984 57.3444C21.9489 57.4024 21.7283 57.9666 21.4082 58.5982C21.0881 59.2297 20.8277 59.6003 20.8294 59.4217C20.8332 59.0339 21.7137 57.3109 21.8842 57.3363V57.3363ZM125.232 57.3394C125.254 57.3383 125.279 57.3464 125.305 57.3648C125.408 57.4384 125.493 57.5903 125.493 57.7023C125.493 57.8144 125.408 57.906 125.305 57.906C125.201 57.906 125.116 57.7541 125.116 57.5685C125.116 57.4293 125.164 57.3429 125.232 57.3394ZM30.7838 57.473C31.2989 57.473 32.0069 58.348 32.0829 59.0787C32.1227 59.4603 32.0731 59.6349 31.95 59.5473C31.842 59.4706 31.7923 59.2891 31.8396 59.1441C31.8869 58.999 31.7065 58.7637 31.4386 58.6212C31.0299 58.4038 30.9684 58.4125 31.0561 58.6754C31.1158 58.8542 31.0506 58.9886 30.9043 58.9886C30.7633 58.9886 30.5971 59.1409 30.535 59.3271C30.4728 59.5133 30.3367 59.605 30.2324 59.5309C30.1282 59.4568 30.0496 59.28 30.0577 59.1382C30.0869 58.6312 30.2666 58.3387 30.463 58.4783C30.5952 58.5722 30.6203 58.4264 30.5374 58.0466C30.4336 57.5713 30.4759 57.473 30.7838 57.473ZM125.11 58.1778C125.224 58.1943 125.277 58.4527 125.271 58.9548C125.265 59.4275 125.312 59.9098 125.375 60.0264C125.437 60.1431 125.356 60.3652 125.194 60.5199C124.951 60.7521 124.87 60.7469 124.728 60.4903C124.611 60.2765 124.556 60.2636 124.554 60.4488C124.551 60.7304 124.061 60.7206 123.657 60.431C123.323 60.1907 123.366 59.4329 123.723 59.2751C123.889 59.2019 124.106 59.278 124.206 59.4442C124.342 59.6707 124.362 59.638 124.286 59.3134C124.23 59.0753 124.257 58.7469 124.346 58.5837C124.476 58.3442 124.549 58.365 124.723 58.692C124.932 59.0858 124.936 59.0857 124.886 58.6863C124.857 58.4605 124.935 58.2352 125.058 58.1856C125.076 58.1781 125.094 58.1755 125.11 58.1778V58.1778ZM32.5904 58.2758C32.9194 58.2599 33.8054 58.8094 33.807 59.0555C33.8076 59.1518 33.7405 59.1826 33.6579 59.1239C33.5753 59.0652 33.3955 59.097 33.2583 59.1945C33.1066 59.3023 32.8703 59.2353 32.6554 59.0238C32.2448 58.6194 32.2099 58.4104 32.5325 58.2868C32.5491 58.2804 32.5685 58.2769 32.5904 58.2758V58.2758ZM22.5592 58.3826C22.6048 58.3785 22.679 58.466 22.8007 58.6511C23.1529 59.1866 23.1511 59.4217 22.7947 59.4217C22.6378 59.4217 22.5123 59.6141 22.5123 59.8547C22.5123 60.1179 22.3868 60.2877 22.1923 60.2877C21.9549 60.2877 21.927 60.3507 22.0843 60.5317C22.2313 60.7006 22.2398 60.9471 22.1122 61.3333C21.9375 61.8618 21.9456 61.8724 22.2688 61.536C22.5907 61.201 22.6373 61.2406 23.1016 62.2418C23.3721 62.8252 23.5429 63.3606 23.4811 63.4316C23.4193 63.5027 23.3585 63.823 23.346 64.1435C23.3054 65.1802 23.2708 65.2675 22.8999 65.2675C22.6989 65.2675 22.4801 65.3688 22.4135 65.4927C22.3351 65.6386 22.4631 65.6687 22.7772 65.578C23.1275 65.4769 23.294 65.5344 23.3778 65.7858C23.4417 65.9771 23.6331 66.1306 23.8032 66.127C24.0776 66.1212 24.0753 66.0955 23.7831 65.8998C23.391 65.6371 23.3308 64.9505 23.7147 65.1199C23.894 65.199 23.9478 65.1122 23.8866 64.8427C23.8375 64.6269 23.8895 64.3848 24.002 64.3048C24.1146 64.2248 24.2067 64.0558 24.2067 63.9292C24.2067 63.784 24.1024 63.7985 23.9243 63.9684C23.6927 64.1895 23.6419 64.1738 23.6419 63.8813C23.6419 63.6852 23.8592 63.4296 24.1248 63.3135C24.8468 62.9978 24.9959 63.0524 24.8801 63.5896C24.8222 63.8575 24.8236 63.9549 24.883 63.806C25.0452 63.3999 25.5241 63.4804 25.5274 63.9143C25.5298 64.2326 25.5583 64.2422 25.7057 63.9741C25.8537 63.7051 25.9566 63.7364 26.3618 64.1742C26.6261 64.4598 26.8423 64.8389 26.8423 65.0166C26.8423 65.1943 26.9059 65.2666 26.9836 65.1773C27.0612 65.088 27.1248 64.9094 27.1248 64.7804C27.1248 64.3528 27.5249 64.3836 28.0414 64.8508C28.4452 65.2161 28.5056 65.3746 28.3325 65.6144C27.9968 66.0797 27.7429 65.9738 27.8901 65.4299C28.0208 64.947 28.0185 64.9463 27.6205 65.3552C27.2019 65.7852 27.0821 66.0399 27.4072 65.8088C27.5107 65.7352 27.5954 65.8204 27.5954 65.9981C27.5954 66.2156 27.4139 66.3152 27.0399 66.303C26.4598 66.284 26.2134 65.9283 26.3978 65.3758C26.5186 65.0138 26.1788 64.9258 25.9932 65.2711C25.8145 65.6036 25.5265 65.3036 25.5097 64.7676C25.5015 64.5066 25.4519 64.4156 25.3994 64.5652C25.347 64.7148 25.2334 64.7869 25.1469 64.7255C25.0605 64.6641 24.8132 64.8721 24.5973 65.1878C24.2935 65.6321 24.2536 65.8294 24.4208 66.0612C24.7394 66.5026 24.5401 66.5984 23.6455 66.4339C22.6727 66.255 21.8303 65.498 22.0088 64.9631C22.0772 64.7582 22.1972 64.6352 22.2756 64.6897C22.439 64.8036 22.7713 64.4047 22.8435 64.008C22.8704 63.8605 22.7645 63.6834 22.6082 63.6145C22.2641 63.4626 22.2337 62.9639 22.5593 62.8128C22.7061 62.7447 22.6765 62.6971 22.4809 62.6864C22.3083 62.677 22.1316 62.5963 22.0881 62.507C22.0447 62.4177 22.0319 62.4572 22.0597 62.5949C22.1191 62.8884 21.546 63.5354 21.2267 63.5354C21.1054 63.5354 21.0061 63.6816 21.0061 63.8602C21.0061 64.2401 20.7092 64.2917 20.5225 63.9442C20.4513 63.8119 20.5099 63.6185 20.6526 63.5145C20.7953 63.4106 20.8354 63.324 20.7416 63.3222C20.6479 63.3204 20.7264 63.1217 20.9161 62.8807C21.1623 62.5678 21.2029 62.376 21.058 62.2094C20.9132 62.0428 20.8194 62.1061 20.7298 62.431C20.6607 62.6812 20.4899 62.8858 20.3502 62.8858C20.2105 62.8858 20.0535 63.0076 20.0012 63.1565C19.8638 63.5482 19.892 63.0723 20.0365 62.561C20.2042 61.9681 20.6874 61.1537 20.8714 61.1537C21.1872 61.1537 21.939 60.1567 22.0144 59.6381C22.0577 59.3404 22.1875 59.1212 22.3027 59.1509C22.418 59.1807 22.5022 59.132 22.49 59.0427C22.4777 58.9534 22.4805 58.7342 22.496 58.5555C22.5057 58.4443 22.5238 58.3858 22.5592 58.3826V58.3826ZM28.2774 58.5555C28.5275 58.5555 28.5405 58.6143 28.3485 58.8803C28.2196 59.0589 28.0822 59.2051 28.0431 59.2051C28.004 59.2051 27.9719 59.0589 27.9719 58.8803C27.9719 58.7017 28.1094 58.5555 28.2774 58.5555ZM18.4282 58.9913C18.2892 58.9938 17.8409 59.6756 17.0193 61.1345C16.5257 62.0109 16.6338 61.9874 17.3169 61.0696C18.0634 60.0668 18.6404 58.9876 18.4282 58.9913ZM31.1012 59.2884C31.1241 59.2881 31.1492 59.2969 31.1755 59.3156C31.2807 59.3904 31.3187 59.5411 31.2598 59.6506C31.201 59.7601 31.2843 59.7917 31.445 59.7208C31.6102 59.6479 31.7372 59.7061 31.7372 59.8547C31.7372 59.9993 31.8436 60.0706 31.9735 60.0132C32.1035 59.9559 32.3579 60.1346 32.5388 60.4104C32.8564 60.8946 32.8532 60.9238 32.4437 61.2557C32.0383 61.5844 32.017 61.5754 31.96 61.0518C31.8931 60.4367 31.8556 60.4161 31.3598 60.7213C30.9151 60.9949 30.6598 60.6134 31.0985 60.331C31.3103 60.1947 31.3415 60.0831 31.1966 59.9801C31.0798 59.8971 30.9842 59.683 30.9842 59.5044C30.9842 59.3704 31.0326 59.2891 31.1012 59.2884V59.2884ZM29.7279 59.2897C29.8011 59.2944 29.8546 59.4262 29.8546 59.6254C29.8546 59.8706 29.8213 60.0711 29.7806 60.0711C29.602 60.0711 29.512 59.4231 29.6745 59.3075C29.6931 59.2943 29.711 59.2886 29.7279 59.2897V59.2897ZM27.6004 59.4292C27.7364 59.4385 27.8523 59.6964 27.8936 60.1254C27.9195 60.3933 27.9476 60.6358 27.9562 60.6644C27.9649 60.693 28.1202 60.5704 28.3014 60.392C28.7222 59.9777 28.9729 59.9737 29.0248 60.3805C29.0933 60.9173 28.6436 61.1898 28.089 60.9473C27.7017 60.7779 27.5954 60.7968 27.5954 61.0353C27.5954 61.4383 27.0465 62.0566 26.8272 61.9008C26.505 61.6717 26.6807 61.048 27.22 60.5074C27.5766 60.1498 27.6841 59.9177 27.5403 59.8155C27.4213 59.7309 27.385 59.5914 27.4597 59.5055C27.5075 59.4505 27.5551 59.426 27.6004 59.4292V59.4292ZM124.718 59.6381C124.614 59.6381 124.582 59.7356 124.646 59.8547C124.71 59.9738 124.847 60.0711 124.95 60.0711C125.054 60.0711 125.086 59.9738 125.022 59.8547C124.958 59.7356 124.821 59.6381 124.718 59.6381ZM32.6284 59.6475C32.7229 59.6485 32.8667 59.7132 33.0535 59.849C33.2821 60.0151 33.2893 60.1049 33.0927 60.331C32.8961 60.5571 32.8181 60.5488 32.6736 60.2859C32.4481 59.8758 32.4482 59.6456 32.6284 59.6475V59.6475ZM30.5997 59.6909C30.6088 59.6906 30.6178 59.6908 30.6266 59.6913C30.7814 59.7011 30.8765 59.8342 30.7449 59.9855C30.6823 60.0574 30.5242 60.0753 30.3934 60.0251C30.202 59.9518 30.2022 59.9008 30.3941 59.7644C30.4636 59.715 30.5356 59.6927 30.5997 59.6909L30.5997 59.6909ZM26.9181 59.7154C27.0678 59.7158 27.2189 59.9209 27.2189 60.1922C27.2189 60.3638 27.0918 60.5042 26.9365 60.5042C26.6529 60.5042 26.5495 60.0472 26.7745 59.7884C26.8184 59.7379 26.8682 59.7153 26.9181 59.7154V59.7154ZM110.79 60.3021C110.905 60.2977 111.055 60.4428 111.19 60.7314C111.438 61.2646 111.363 62.2796 111.067 62.3912C110.95 62.4351 110.675 62.1204 110.455 61.6918C109.998 60.8011 109.995 60.7888 110.227 60.6239C110.322 60.5566 110.443 60.6239 110.495 60.7735C110.553 60.9375 110.596 60.8951 110.605 60.6666C110.615 60.4261 110.688 60.3059 110.79 60.3021V60.3021ZM122.795 60.5115C122.932 60.5068 123.062 60.5758 123.142 60.726C123.31 61.0379 123.056 62.2363 122.822 62.2363C122.716 62.2363 122.677 62.0902 122.737 61.9116C122.802 61.7175 122.739 61.5868 122.58 61.5868C122.205 61.5868 122.105 61.3153 122.317 60.8785C122.431 60.6452 122.619 60.5175 122.795 60.5115V60.5115ZM29.3702 60.7207C29.5331 60.7207 29.6663 60.819 29.6663 60.9391C29.6663 61.0702 29.8133 61.0518 30.0343 60.8931C30.2367 60.7478 30.4605 60.6959 30.5318 60.7778C30.7719 61.054 30.2563 61.4941 29.7239 61.4674C29.1619 61.4392 28.8215 60.7207 29.3702 60.7207ZM124.224 60.9638C124.616 60.9681 125.037 61.174 125.083 61.4457C125.154 61.8631 124.637 61.9368 124.473 61.5326C124.385 61.3161 124.341 61.3161 124.254 61.5326C124.193 61.6815 124.075 61.8033 123.991 61.8033C123.723 61.8033 123.607 61.1415 123.856 61.0317C123.966 60.9833 124.093 60.9623 124.224 60.9638V60.9638ZM111.766 61.1542C111.852 61.1551 111.954 61.2253 112.037 61.379C112.103 61.503 112.31 61.5488 112.496 61.4809C112.714 61.4013 112.88 61.4923 112.961 61.7367C113.059 62.0299 113.122 62.0518 113.24 61.8332C113.359 61.6102 113.416 61.6229 113.506 61.8934C113.569 62.082 113.528 62.2363 113.415 62.2363C112.963 62.2363 113.628 62.7909 114.138 62.8393C114.429 62.867 114.696 62.9868 114.731 63.1056C114.766 63.2244 114.868 63.2692 114.958 63.2051C115.048 63.141 115.07 62.9322 115.006 62.7411C114.927 62.5044 114.975 62.4261 115.155 62.4954C115.573 62.6551 115.569 63.2247 115.149 63.4443C114.774 63.6405 114.774 63.6473 115.193 63.8708C115.598 64.0873 115.617 64.057 115.598 63.2213C115.57 61.9906 115.8 61.5155 116.282 61.8122C116.577 61.9933 116.636 62.1927 116.557 62.7351C116.292 64.5588 116.292 64.594 116.557 64.4768C116.721 64.4043 116.86 64.5608 116.935 64.9026C117.096 65.6414 116.543 66.5977 116.009 66.5039C115.407 66.3983 113.865 65.5232 114.244 65.5022C114.425 65.4922 114.574 65.4001 114.574 65.2976C114.574 65.195 114.361 65.1577 114.102 65.2148C113.542 65.3377 112.978 64.8945 113.237 64.5351C113.358 64.3671 113.234 64.2784 112.831 64.2449C112.501 64.2174 112.022 63.9439 111.718 63.609C111.105 62.9338 111.096 62.8917 111.441 62.3489C111.582 62.1272 111.657 61.7675 111.607 61.5497C111.551 61.2996 111.641 61.1529 111.766 61.1542V61.1542ZM18.1185 61.1882C18.0938 61.1929 17.9997 61.3145 17.8163 61.5566C17.3984 62.1083 17.317 62.3416 17.6164 62.1287C17.7194 62.0555 17.8936 61.7819 18.0036 61.5206C18.0983 61.2955 18.1431 61.1834 18.1185 61.1882V61.1882ZM121.297 61.1935C121.511 61.1909 121.661 61.4549 121.588 61.8976C121.478 62.5596 121.306 62.719 120.897 62.5386C120.531 62.3769 120.524 62.0415 120.877 61.5055C121.017 61.2928 121.169 61.1951 121.297 61.1935V61.1935ZM30.9995 61.2647C31.1067 61.2584 31.1724 61.328 31.1724 61.4601C31.1724 61.8263 31.8302 62.0427 32.0779 61.7579C32.1792 61.6414 32.4097 61.5796 32.5903 61.6206C32.8691 61.6838 32.8333 61.7999 32.3527 62.3911C32.0415 62.7739 31.8253 63.1315 31.8724 63.1857C31.9196 63.2399 31.7364 63.4514 31.4653 63.6557C30.9264 64.0617 30.6839 63.967 30.8659 63.4216C30.9492 63.1717 31.1026 63.1164 31.4054 63.2269C31.7772 63.3627 31.7981 63.3394 31.5783 63.0348C31.4376 62.8398 31.3932 62.5676 31.4767 62.4122C31.5583 62.2603 31.3908 62.348 31.1044 62.6071C30.8179 62.8662 30.4549 63.0213 30.2975 62.9519C30.0882 62.8595 30.0718 62.7826 30.2366 62.6654C30.4105 62.5418 30.4094 62.4851 30.2317 62.417C30.0616 62.3518 30.0729 62.2606 30.2749 62.0679C30.4252 61.9244 30.6084 61.8763 30.682 61.961C30.7556 62.0456 30.7641 61.9599 30.7009 61.7705C30.6322 61.5646 30.7039 61.3741 30.8792 61.2968C30.9233 61.2773 30.9637 61.2667 30.9995 61.2647V61.2647ZM114.3 61.3359L114.643 61.7725C115.046 62.2844 114.896 62.7634 114.421 62.4827C114.246 62.3794 113.997 62.3385 113.868 62.3919C113.546 62.5245 113.572 62.3697 113.966 61.8101L114.3 61.3359ZM28.5503 61.3703C28.8137 61.3703 28.8992 61.5082 28.8718 61.889C28.8392 62.341 28.7769 62.3825 28.3874 62.2122C28.1415 62.1047 27.8627 62.0718 27.7679 62.1393C27.673 62.2067 27.5968 62.0369 27.5983 61.7619C27.6007 61.3495 27.6361 61.3188 27.8009 61.5868C27.9512 61.8312 28.0243 61.8446 28.0961 61.6409C28.1486 61.4921 28.353 61.3703 28.5503 61.3703V61.3703ZM122.104 61.5868C122.208 61.5868 122.292 61.6842 122.292 61.8033C122.292 61.9224 122.208 62.0198 122.104 62.0198C122.001 62.0198 121.916 61.9224 121.916 61.8033C121.916 61.6842 122.001 61.5868 122.104 61.5868ZM117.563 61.8033C117.654 61.8033 117.836 61.9535 117.969 62.1372C118.244 62.5181 117.952 63.0376 117.602 62.7893C117.358 62.616 117.326 61.8033 117.563 61.8033ZM119.944 61.8288C120.025 61.8371 120.036 61.9902 119.999 62.2904C119.963 62.5843 119.788 62.8025 119.558 62.8403C119.231 62.8943 119.188 63.0308 119.252 63.8147C119.293 64.3161 119.422 64.7978 119.538 64.8853C119.655 64.9728 119.666 65.0443 119.563 65.0443C119.459 65.0443 119.256 64.9584 119.112 64.8533C118.968 64.7482 118.747 64.3199 118.622 63.9014C118.421 63.2292 118.43 63.1557 118.696 63.2703C118.957 63.3827 118.963 63.3511 118.739 63.0347C118.517 62.7199 118.523 62.6694 118.786 62.6694C118.954 62.6694 119.261 62.4745 119.468 62.2363C119.711 61.9571 119.862 61.8206 119.944 61.8288V61.8288ZM24.0295 62.0198C24.1391 62.0198 24.1767 62.1169 24.1129 62.2356C24.0375 62.3759 24.1745 62.3738 24.5044 62.2296C24.7835 62.1075 25.0637 62.0675 25.127 62.1406C25.2975 62.3375 24.4081 63.1024 24.0086 63.1024C23.8191 63.1024 23.6118 63.0049 23.5478 62.8858C23.4838 62.7667 23.5211 62.6694 23.6308 62.6694C23.7404 62.6694 23.8302 62.5232 23.8302 62.3446C23.8302 62.166 23.9198 62.0198 24.0295 62.0198V62.0198ZM29.2898 62.0198C29.3933 62.0198 29.4781 62.1173 29.4781 62.2363C29.4781 62.3554 29.3933 62.4528 29.2898 62.4528C29.1862 62.4528 29.1016 62.3554 29.1016 62.2363C29.1016 62.1173 29.1862 62.0198 29.2898 62.0198ZM112.175 62.2835C112.129 62.2816 112.065 62.2848 111.983 62.2919C111.751 62.312 111.561 62.4052 111.561 62.4989C111.561 62.7249 111.78 62.7093 112.124 62.4591C112.289 62.339 112.313 62.2889 112.175 62.2835V62.2835ZM28.1221 62.2877C28.3083 62.2906 28.2598 62.6945 27.9675 62.9987C27.755 63.2199 27.5954 63.2787 27.5954 63.1359C27.5954 62.9984 27.6851 62.8858 27.7948 62.8858C27.9044 62.8858 27.9454 62.7951 27.8859 62.6843C27.8263 62.5734 27.8578 62.4257 27.9559 62.356C28.0237 62.3078 28.0792 62.2871 28.1221 62.2877ZM25.797 62.329C25.8029 62.3284 25.8085 62.3286 25.8139 62.3297C25.8848 62.3435 25.901 62.5059 25.901 62.8748C25.901 63.4894 25.8697 63.5303 25.6187 63.2416C25.4633 63.063 25.3363 62.873 25.3363 62.8195C25.3363 62.7661 25.4633 62.6011 25.6187 62.4528C25.6977 62.3773 25.7553 62.3333 25.797 62.329V62.329ZM19.7291 62.3545C19.7324 62.3541 19.7354 62.3541 19.7384 62.3547C19.8071 62.3669 19.8052 62.6349 19.7968 63.2874C19.7889 63.9 19.7557 64.4012 19.723 64.4013C19.388 64.4021 18.9678 63.893 19.0506 63.5863C19.1455 63.2344 19.1389 63.234 18.9445 63.5806C18.8304 63.784 18.6122 63.8953 18.4596 63.828C18.307 63.7606 18.1822 63.6252 18.1822 63.5268C18.1822 63.3544 18.6815 63.1002 18.9926 63.1144C19.0758 63.1182 19.2941 62.9082 19.4775 62.6476C19.6029 62.4695 19.6811 62.3605 19.7291 62.3545V62.3545ZM112.693 62.3546C112.608 62.3606 112.591 62.4688 112.64 62.6855C112.753 63.183 112.806 63.2022 112.941 62.7955C112.998 62.6268 112.932 62.4391 112.794 62.3787C112.763 62.3646 112.735 62.3566 112.712 62.3547C112.705 62.3542 112.699 62.3542 112.693 62.3546V62.3546ZM124.704 62.4668C124.736 62.4703 124.691 62.5829 124.576 62.8318C124.452 63.0997 124.32 63.3189 124.283 63.3189C124.246 63.3189 124.159 63.1514 124.091 62.9466C124.023 62.7418 124.027 62.6435 124.101 62.7282C124.174 62.8128 124.362 62.7611 124.518 62.6133C124.611 62.5255 124.67 62.4745 124.697 62.4675C124.7 62.4668 124.702 62.4666 124.704 62.4668V62.4668ZM27.3513 62.5556C27.3824 62.5524 27.3775 62.7082 27.347 63.0482C27.3124 63.4352 27.3591 63.7519 27.4508 63.7519C27.5426 63.7519 27.5653 63.8493 27.5013 63.9684C27.4373 64.0875 27.3052 64.185 27.2078 64.185C26.9849 64.185 27.0002 63.3502 27.2335 62.7776C27.2919 62.6344 27.33 62.5578 27.3513 62.5556ZM121.62 62.6694C121.794 62.6694 121.916 62.8545 121.916 63.1204C121.916 63.385 121.819 63.5342 121.681 63.4813C121.324 63.3449 121.274 62.6694 121.62 62.6694ZM28.9114 62.711C28.9735 62.7119 29.0413 62.7348 29.1107 62.7841C29.2457 62.88 29.2383 63.021 29.0876 63.2299C28.8237 63.5956 29.121 63.6429 29.4325 63.2848C29.5975 63.0949 29.7208 63.1013 29.9407 63.3113C30.1004 63.4637 30.2365 63.5034 30.2431 63.3995C30.2496 63.2956 30.3345 63.4389 30.4317 63.7178C30.5289 63.9967 30.5608 64.3134 30.5028 64.4214C30.32 64.7615 29.5241 64.635 29.394 64.2451C29.3143 64.0062 29.2225 63.9569 29.1385 64.1077C29.0664 64.2372 28.8168 64.4115 28.5838 64.4951C28.3509 64.5786 28.17 64.6163 28.182 64.5785C28.194 64.5407 28.2427 64.3392 28.29 64.1308C28.3374 63.9224 28.4603 63.7519 28.5633 63.7519C28.6662 63.7519 28.6989 63.5653 28.6359 63.3371C28.5388 62.9852 28.6895 62.7079 28.9114 62.711ZM120.29 62.8858C120.594 62.8858 120.823 63.9167 120.56 64.1035C120.464 64.1721 120.36 64.1942 120.33 64.1525C120.299 64.1108 120.219 63.8087 120.15 63.4812C120.06 63.0468 120.097 62.8858 120.29 62.8858V62.8858ZM122.814 62.9353C122.839 62.9346 122.854 62.9677 122.854 63.0355C122.856 63.1773 122.772 63.3536 122.669 63.4272C122.435 63.5933 122.435 63.5183 122.669 63.1024C122.731 62.9926 122.781 62.9361 122.814 62.9353ZM117.501 62.9801C117.56 62.9832 117.648 63.0245 117.774 63.1024C117.981 63.2298 118.151 63.4769 118.151 63.6513C118.151 64.0359 117.929 64.0599 117.623 63.7086C117.499 63.5657 117.398 63.3187 117.398 63.1597C117.398 63.0348 117.425 62.976 117.501 62.9801V62.9801ZM113.581 63.2302C113.521 63.23 113.466 63.2734 113.416 63.3628C113.19 63.7736 113.222 63.9684 113.515 63.9684C113.658 63.9684 113.882 64.1169 114.013 64.2984C114.144 64.4799 114.294 64.5782 114.348 64.5168C114.401 64.4554 114.552 64.5073 114.683 64.6322C114.865 64.8061 114.896 64.7539 114.818 64.4093C114.738 64.0571 114.66 64.0127 114.459 64.2048C114.259 64.3951 114.173 64.3597 114.076 64.0469C113.911 63.5164 113.733 63.2309 113.581 63.2302ZM116.833 63.3189C116.936 63.3189 117.021 63.4045 117.021 63.5092C117.021 63.6138 117.28 63.8225 117.596 63.9731C117.942 64.1382 118.132 64.3606 118.074 64.5337C118.022 64.6915 118.046 64.8682 118.127 64.9263C118.209 64.9844 118.237 65.3384 118.189 65.7129C118.128 66.195 118.055 66.3085 117.941 66.1014C117.852 65.9405 117.778 65.9111 117.777 66.0361C117.775 66.1611 117.866 66.3694 117.979 66.4988C118.126 66.6683 118.126 66.7752 117.977 66.8808C117.75 67.0424 117.38 66.1458 117.543 65.8294C117.598 65.7217 117.562 65.6923 117.461 65.764C117.353 65.8405 117.308 65.6515 117.353 65.3053C117.404 64.9051 117.302 64.586 117.036 64.3089C116.626 63.8821 116.51 63.3189 116.833 63.3189H116.833ZM21.9749 63.3266C21.9888 63.3266 21.9992 63.3315 22.0053 63.3421C22.0321 63.3889 22.1668 63.5967 22.3047 63.8039C22.5233 64.1326 22.4985 64.205 22.1102 64.372C21.8163 64.4984 21.6181 64.4808 21.5268 64.3201C21.4507 64.1862 21.3871 64.0155 21.3856 63.9408C21.3823 63.784 21.8405 63.3265 21.9749 63.3266ZM26.4658 63.5354C26.5694 63.5354 26.6541 63.6328 26.6541 63.7519C26.6541 63.871 26.5694 63.9684 26.4658 63.9684C26.3623 63.9684 26.2776 63.871 26.2776 63.7519C26.2776 63.6328 26.3623 63.5354 26.4658 63.5354ZM123.063 63.5723C123.123 63.5764 123.191 63.6216 123.28 63.7065C123.481 63.8978 123.597 63.897 123.765 63.7034C123.9 63.5489 123.987 63.5365 123.987 63.672C123.987 63.7948 123.773 64.0267 123.512 64.1873C122.976 64.5177 122.581 64.2654 122.851 63.764C122.923 63.6299 122.985 63.5671 123.063 63.5723V63.5723ZM29.8546 63.7519C29.7511 63.7519 29.6663 63.7949 29.6663 63.8474C29.6663 63.8999 29.7511 64.0031 29.8546 64.0767C29.9581 64.1503 30.0428 64.1073 30.0428 63.9812C30.0428 63.8551 29.9581 63.7519 29.8546 63.7519ZM122.27 63.7613C122.39 63.7581 122.411 63.9336 122.299 64.2747C122.169 64.6669 122.194 64.8276 122.397 64.9175C122.547 64.9835 122.669 64.943 122.669 64.8277C122.669 64.7123 122.812 64.618 122.987 64.618C123.263 64.618 123.254 64.6724 122.923 65.0275C122.266 65.7311 120.724 66.5838 120.582 66.3212C120.497 66.1612 120.425 66.1802 120.363 66.3797C120.291 66.6068 120.188 66.6196 119.916 66.4351C119.722 66.3033 119.537 66.0444 119.505 65.8599C119.405 65.2764 119.855 65.2031 120.338 65.7242C120.754 66.1744 120.845 66.1951 121.218 65.925C121.446 65.7593 121.845 65.4955 122.104 65.3387C122.413 65.1519 122.469 65.0532 122.268 65.0524C121.736 65.05 121.482 64.4988 121.829 64.0996C122.024 63.8745 122.177 63.7639 122.27 63.7613ZM20.8951 64.3402C21.1979 64.3542 21.6425 64.822 21.8147 65.3382C21.9737 65.8145 21.7177 65.7954 20.8104 65.2631C19.8506 64.7 19.8504 64.6505 20.8061 64.3509C20.8339 64.3422 20.8638 64.3388 20.8951 64.3402ZM121.161 64.4157C121.245 64.4155 121.359 64.4973 121.502 64.6613C121.848 65.0597 121.77 65.484 121.351 65.484C121.075 65.484 120.975 65.3396 120.975 64.9427C120.975 64.5918 121.037 64.4161 121.161 64.4157V64.4157ZM118.386 64.4542C118.435 64.4511 118.543 64.5467 118.715 64.7262C119.115 65.1426 119.221 65.7005 118.899 65.7005C118.793 65.7005 118.623 65.4506 118.522 65.1452C118.367 64.6737 118.314 64.4586 118.386 64.4542V64.4542ZM120.631 64.727C120.737 64.7336 120.786 64.8492 120.786 65.0843C120.786 65.4622 120.74 65.4925 120.504 65.2675C120.349 65.1192 120.221 64.9716 120.221 64.9394C120.221 64.9072 120.349 64.8248 120.504 64.7562C120.553 64.7346 120.595 64.7247 120.631 64.727ZM25.1342 65.0601C25.217 65.0626 25.3169 65.1597 25.5031 65.3534C25.7171 65.5761 25.85 65.8368 25.7985 65.9327C25.747 66.0285 25.8542 66.2031 26.0367 66.3206C26.5243 66.6344 26.2609 66.7879 25.4837 66.6428C24.7228 66.5008 24.4695 65.9622 24.8685 65.3346C24.9859 65.1499 25.0515 65.0577 25.1342 65.0601V65.0601ZM115.333 65.2675C115.084 65.2675 115.298 65.858 115.594 65.9885C115.724 66.0463 115.951 66.0066 116.097 65.9004C116.298 65.7538 116.26 65.7063 115.938 65.7038C115.705 65.702 115.515 65.6031 115.515 65.484C115.515 65.365 115.433 65.2675 115.333 65.2675ZM29.0451 65.484C29.4473 65.484 29.3219 65.8569 28.8744 65.9915C28.6459 66.0602 28.4356 66.0894 28.4069 66.0564C28.3026 65.9364 28.8069 65.484 29.0451 65.484ZM119.063 65.9511C119.261 65.9587 119.32 66.1 119.192 66.3392C119.123 66.4682 118.973 66.5074 118.859 66.4264C118.725 66.3316 118.694 66.4075 118.772 66.6394C118.844 66.8575 118.799 66.9997 118.655 66.9997C118.257 66.9997 118.33 66.1661 118.742 66.0157C118.851 65.976 118.945 65.955 119.021 65.9513C119.036 65.9506 119.05 65.9506 119.063 65.9511V65.9511ZM117.029 66.1813C117.223 66.1915 117.398 66.4008 117.398 66.6876C117.398 67.0388 117.361 67.0532 116.942 66.8682C116.604 66.7188 116.555 66.4394 116.833 66.2419C116.896 66.1965 116.964 66.1779 117.029 66.1813V66.1813ZM119.48 66.3501C119.589 66.3501 119.627 66.4475 119.563 66.5666C119.499 66.6856 119.409 66.7831 119.363 66.7831C119.318 66.7831 119.28 66.6856 119.28 66.5666C119.28 66.4475 119.37 66.3501 119.48 66.3501V66.3501ZM121.863 66.9359C121.897 66.9346 121.916 66.94 121.916 66.9528C121.916 67.0212 121.815 67.3965 121.693 67.7868C121.5 68.3995 121.344 68.5274 120.554 68.7224C120.05 68.8466 119.016 68.9482 118.256 68.9482C116.851 68.9482 116.633 68.8178 116.781 68.0631C116.835 67.7884 117.122 67.7183 118.206 67.7148C119.051 67.7121 120.007 67.5441 120.739 67.2695C121.265 67.0724 121.713 66.9414 121.863 66.9359V66.9359ZM24.412 67.4327H25.6793H26.9467L27.7323 69.2189C28.1644 70.2014 28.8239 71.6148 29.1979 72.36C29.6916 73.3435 29.8103 73.7427 29.631 73.8165C29.4951 73.8724 28.1979 73.8473 26.7482 73.7607L24.1125 73.6033L24.0976 72.629C24.0768 71.2769 24.1847 68.9787 24.3086 68.1363L24.412 67.4327ZM122.871 68.1905L123.329 68.8355C123.799 69.4974 123.704 69.9852 123.152 69.7416C122.965 69.659 122.86 69.3517 122.864 68.9009L122.871 68.1905ZM106.078 68.5462C107.361 68.5505 108.804 68.8741 109.867 69.416L110.714 69.8479L109.882 70.3412L109.051 70.8345L108.397 70.3244C108.038 70.0438 107.565 69.8157 107.346 69.8172C107.128 69.8188 106.165 69.7004 105.207 69.5542C102.844 69.1933 102.912 68.8188 105.386 68.5774C105.609 68.5556 105.841 68.5455 106.078 68.5462V68.5462ZM122.177 68.5939C122.245 68.5891 122.294 68.6562 122.295 68.7731C122.296 68.9289 122.349 69.2757 122.411 69.5436C122.495 69.9018 122.444 70.0308 122.22 70.0308C121.877 70.0308 121.78 68.854 122.104 68.6235C122.13 68.6051 122.155 68.5955 122.177 68.5939V68.5939ZM133.224 68.8168C133.877 68.8049 134.947 68.9904 134.777 69.1602C134.693 69.2441 134.14 69.4316 133.55 69.5768C132.794 69.7627 132.107 70.1503 131.231 70.8849C130.447 71.5422 129.702 71.981 129.22 72.0696C128.799 72.147 128.427 72.1782 128.393 72.139C128.359 72.0998 128.492 71.7632 128.689 71.391C129.19 70.4422 130.277 69.6554 131.506 69.3519C132.082 69.2096 132.651 69.0074 132.771 68.9024C132.835 68.8467 133.006 68.8208 133.224 68.8168V68.8168ZM116.08 68.8567L116.453 69.6996C116.853 70.6005 116.834 70.8101 116.37 70.6056C116.18 70.5217 116.08 70.1977 116.08 69.667V68.8567ZM115.448 68.993C115.5 68.996 115.506 69.1603 115.509 69.526C115.512 69.9032 115.566 70.366 115.629 70.5544C115.711 70.7999 115.631 70.8969 115.347 70.8969C115.038 70.8969 114.95 70.7628 114.95 70.2887C114.95 69.9542 115.075 69.4914 115.227 69.2602C115.341 69.086 115.408 68.9907 115.448 68.993ZM120.524 69.4371C121.079 69.4359 121.3 69.4992 121.377 69.6382C121.768 70.3485 121.144 70.6133 118.98 70.6548C117.906 70.6754 117.583 70.6027 117.333 70.2844C117.161 70.0666 117.021 69.8369 117.021 69.7739C117.021 69.7109 117.966 69.5906 119.12 69.5066C119.736 69.4618 120.19 69.4378 120.524 69.4371V69.4371ZM114.114 69.8392C114.356 69.8439 114.385 69.9496 114.385 70.2186C114.385 70.7013 114.234 70.7688 112.608 71.0128C110.815 71.2817 108.426 72.7032 106.343 74.7402C104.788 76.2607 104.789 75.6988 106.344 74.0001C108.624 71.5093 110.573 70.395 113.491 69.9129C113.748 69.8704 113.932 69.8436 114.063 69.8395C114.081 69.839 114.098 69.8388 114.114 69.8392H114.114ZM114.387 71.4151C114.467 71.4149 114.538 71.4253 114.599 71.4474C114.914 71.5623 114.815 71.6924 113.977 72.2688C113.429 72.6455 112.81 73.2809 112.6 73.6807C112.391 74.0805 111.947 74.7625 111.614 75.1963C111.023 75.9633 111.007 75.9701 111.006 75.4437C111.004 74.6696 111.612 73.2679 112.244 72.5864C112.847 71.9353 113.827 71.4164 114.387 71.4151V71.4151ZM16.9585 72.6083L16.582 72.8633C16.3749 73.0036 15.9089 73.4389 15.5465 73.8307C15.1393 74.271 14.4686 74.6815 13.7911 74.9052C13.188 75.1043 12.6551 75.2217 12.6067 75.1661C12.5584 75.1105 12.7401 74.7626 13.0106 74.3929C13.4642 73.7729 14.4709 73.2993 16.582 72.7129L16.9585 72.6083ZM22.955 74.3C23.0013 74.3017 23.0342 74.3216 23.0468 74.3649C23.1699 74.7897 22.9018 75.2272 22.5182 75.2272C22.3079 75.2272 22.1358 75.1352 22.1358 75.0229C22.1358 74.7638 22.6868 74.3172 22.9344 74.3004C22.9415 74.2999 22.9484 74.2998 22.955 74.3V74.3ZM27.1875 74.3611C28.1022 74.3611 28.904 74.4226 28.9694 74.4978C29.0348 74.573 29.0035 74.8166 28.9 75.0392C28.7441 75.3741 28.4887 75.4437 27.4159 75.4437C26.7032 75.4437 25.9861 75.3846 25.8223 75.3123C25.6585 75.24 25.5245 74.9964 25.5245 74.7709C25.5245 74.3997 25.6814 74.3611 27.1875 74.3611V74.3611ZM24.0784 74.3745C24.2627 74.3737 24.5112 74.5125 24.7977 74.7869L25.2421 75.2127L24.5472 75.2199C23.8212 75.2275 23.6355 75.0856 23.7771 74.6317C23.8306 74.4603 23.9351 74.3752 24.0784 74.3745ZM31.2664 74.3887C31.4519 74.3945 31.7448 74.5364 32.1905 74.8111C32.7472 75.1543 32.9548 75.1973 33.0649 74.9925C33.1758 74.786 33.6378 74.863 35.0618 75.3254C36.0808 75.6562 37.1263 76.0579 37.3851 76.2179L37.8558 76.5089L37.3851 76.5123C37.1263 76.5142 36.5754 76.4255 36.1609 76.3154C35.7464 76.2052 34.6027 76.0097 33.6194 75.8809C32.636 75.7521 31.6408 75.5992 31.4078 75.5411C31.107 75.466 30.9842 75.2797 30.9842 74.8983C30.9842 74.5504 31.0563 74.3821 31.2664 74.3887V74.3887ZM30.2067 74.6864C30.2426 74.6866 30.2733 74.6982 30.2955 74.7238C30.5533 75.0202 30.4046 75.4437 30.0428 75.4437C29.8357 75.4437 29.6663 75.3582 29.6663 75.2537C29.6663 75.0141 30.0128 74.6849 30.2067 74.6864V74.6864ZM28.1157 76.0938C28.3501 76.0935 28.6889 76.1901 28.8687 76.3085C29.0485 76.4269 29.6841 76.7268 30.2811 76.9749C31.4855 77.4754 32.3235 78.1916 32.8078 79.1344C32.9841 79.4776 33.493 79.981 33.9389 80.253C34.3847 80.525 34.7495 80.8208 34.7495 80.9103C34.7495 80.9998 34.3097 81.0731 33.7722 81.0731C32.7959 81.0731 32.7934 81.0713 31.3718 79.3516C30.5891 78.4048 29.4404 77.2846 28.8191 76.8623C27.9951 76.3021 27.8048 76.0943 28.1157 76.0938V76.0938ZM9.27745 79.1993C9.60647 79.1999 10.0649 79.2399 10.6634 79.3182C11.5382 79.4325 12.7741 79.4717 13.4098 79.4054C14.8008 79.2604 16.6701 79.8405 18.041 80.8428C19.2122 81.6991 19.1806 82.0048 17.9753 81.4781C17.4474 81.2474 16.6638 81.074 16.2339 81.0928C15.745 81.1142 14.9966 80.904 14.2351 80.5313C13.1622 80.0062 12.8614 79.9506 11.6998 80.0626C10.9683 80.1331 10.0217 80.0853 9.57227 79.9551C9.12695 79.8262 8.71629 79.6345 8.65971 79.5293C8.53995 79.3064 8.72908 79.1982 9.27745 79.1993V79.1993Z" fill="black"/>
<g opacity="0.87" filter="url(#filter1_f_3:2)">
<path d="M34.2184 44.1993C34.1314 44.2052 33.7174 44.6251 32.968 45.4678L32.1055 46.4376L31.866 46.8989C31.404 47.7889 31.0739 48.5082 30.9889 48.8105C30.8169 49.4221 30.6513 49.7076 29.9466 50.6085C29.2301 51.5245 29.3 51.4424 28.3221 52.5168L27.5973 53.3131L27.3875 53.8156C26.9708 54.8132 26.8954 55.1117 26.9954 55.3685C27.0582 55.5298 27.5986 56.2914 28.0456 56.8483C28.2673 57.1246 28.5014 57.3984 28.5659 57.4569C28.7727 57.644 30.4462 58.2958 30.7017 58.2886C30.8519 58.2845 31.3845 58.1526 32.1943 57.9191C32.9368 57.7051 33.2142 57.5989 33.3049 57.4942C33.3689 57.4204 33.6372 56.7138 33.7268 56.3832C33.7551 56.2788 33.952 55.8087 34.1643 55.3384L34.4894 54.6188C34.4928 54.5283 34.4963 54.4377 34.5 54.3472C34.505 54.2256 34.51 54.104 34.5153 53.9824C34.5204 53.8685 34.5258 53.7545 34.5299 53.6405C34.5342 53.5211 34.5387 53.4018 34.5434 53.2824C34.5478 53.1702 34.5525 53.0579 34.5558 52.9456C34.5594 52.8268 34.563 52.708 34.5669 52.5892C34.5709 52.4706 34.5749 52.3521 34.5791 52.2335C34.5833 52.1169 34.5877 52.0004 34.592 51.8838C34.596 51.7716 34.599 51.6592 34.6022 51.547C34.6056 51.4296 34.6091 51.3123 34.6128 51.195C34.6165 51.0788 34.6203 50.9627 34.6242 50.8466C34.6278 50.7374 34.6311 50.6281 34.6333 50.5188C34.6361 50.4031 34.639 50.2873 34.642 50.1716C34.6451 50.0563 34.6483 49.941 34.6517 49.8258C34.6531 49.7748 34.6547 49.7239 34.6562 49.6729C34.621 49.2504 34.599 48.872 34.5989 48.6382C34.5988 48.4212 34.6376 47.9732 34.6851 47.6426C34.7388 47.269 34.7607 46.9154 34.7431 46.708C34.708 46.2959 34.7011 46.2704 34.5438 45.9677C34.271 45.4427 34.125 44.7129 34.2193 44.3462C34.2364 44.2797 34.2419 44.2156 34.2315 44.2037C34.2286 44.2004 34.2242 44.199 34.2184 44.1993V44.1993Z" fill="url(#paint3_radial_3:2)"/>
</g>
<g filter="url(#filter2_d_3:2)">
<path d="M25.5529 105.014H21.2969V104.58L22.6129 103.544V95.802L18.8749 105.014H18.1049L14.3949 95.704V103.712L15.8649 104.454L15.5849 105.014H12.3089V104.58L13.6249 103.544V95.34L12.1689 94.556L12.4489 93.996H15.4869L18.9869 102.788L22.4729 93.996H25.6929V94.43L24.3629 95.466V103.936L25.8329 104.454L25.5529 105.014ZM36.9514 105H34.2914V103.544L32.5134 105.028C32.3174 105.103 32.0607 105.14 31.7434 105.14C31.1087 105.14 30.6047 104.949 30.2314 104.566C29.858 104.174 29.6714 103.647 29.6714 102.984V99.638L28.4254 98.91V98.476L30.8194 97.3H31.3514V102.284C31.3514 102.797 31.4307 103.157 31.5894 103.362C31.748 103.567 32.0327 103.67 32.4434 103.67C32.7327 103.67 33.0174 103.619 33.2974 103.516C33.5774 103.404 33.9087 103.189 34.2914 102.872V99.638L33.0454 98.91V98.476L35.4394 97.3H35.9714V103.95L37.2314 104.44L36.9514 105ZM44.4024 103.488C44.4024 103.227 44.2577 102.989 43.9684 102.774C43.6791 102.55 43.2357 102.284 42.6384 101.976C42.1531 101.724 41.7611 101.505 41.4624 101.318C41.1637 101.131 40.9071 100.917 40.6924 100.674C40.4871 100.422 40.3844 100.151 40.3844 99.862C40.3844 99.526 40.5244 99.1667 40.8044 98.784C41.0844 98.4013 41.4297 98.0793 41.8404 97.818C42.2511 97.5567 42.6337 97.426 42.9884 97.426C43.4177 97.426 43.9124 97.482 44.4724 97.594C45.0417 97.6967 45.4524 97.8133 45.7044 97.944V100.1H45.1724C44.8737 99.5213 44.5284 99.0733 44.1364 98.756C43.7444 98.4293 43.3431 98.266 42.9324 98.266C42.6431 98.266 42.4097 98.3453 42.2324 98.504C42.0551 98.6533 41.9664 98.8447 41.9664 99.078C41.9664 99.3673 42.1157 99.6287 42.4144 99.862C42.7224 100.086 43.1844 100.352 43.8004 100.66C44.2764 100.903 44.6591 101.113 44.9484 101.29C45.2377 101.467 45.4804 101.677 45.6764 101.92C45.8817 102.153 45.9844 102.415 45.9844 102.704C45.9844 103.049 45.8351 103.413 45.5364 103.796C45.2471 104.169 44.8877 104.487 44.4584 104.748C44.0384 105.009 43.6511 105.14 43.2964 105.14C42.8391 105.14 42.2931 105.089 41.6584 104.986C41.0331 104.874 40.5851 104.753 40.3144 104.622V102.466H40.8464C41.1731 103.045 41.5604 103.497 42.0084 103.824C42.4564 104.141 42.9091 104.3 43.3664 104.3C43.6744 104.3 43.9217 104.221 44.1084 104.062C44.3044 103.903 44.4024 103.712 44.4024 103.488ZM53.0207 105H49.1147V104.566L50.3607 103.586V99.498L49.1147 98.63V98.196L51.5087 97.3H52.0407V103.95L53.3007 104.44L53.0207 105ZM51.1447 93.1C51.4247 93.1 51.6534 93.2027 51.8307 93.408C52.0174 93.6133 52.1107 93.87 52.1107 94.178C52.1107 94.3927 52.0454 94.598 51.9147 94.794C51.7841 94.9807 51.6207 95.13 51.4247 95.242C51.2287 95.354 51.0374 95.41 50.8507 95.41C50.5707 95.41 50.3374 95.3073 50.1507 95.102C49.9734 94.8967 49.8847 94.64 49.8847 94.332C49.8847 94.1173 49.9501 93.9167 50.0807 93.73C50.2114 93.534 50.3747 93.38 50.5707 93.268C50.7667 93.156 50.9581 93.1 51.1447 93.1ZM60.1001 97.426C60.4828 97.426 60.9261 97.482 61.4301 97.594C61.9435 97.6967 62.3121 97.8133 62.5361 97.944V100.1H62.0041C61.6401 99.6333 61.2201 99.2693 60.7441 99.008C60.2775 98.7373 59.7921 98.602 59.2881 98.602C58.8588 98.602 58.5321 98.7933 58.3081 99.176C58.0935 99.5587 57.9861 100.119 57.9861 100.856C57.9861 101.733 58.1775 102.471 58.5601 103.068C58.9428 103.656 59.4888 103.95 60.1981 103.95C60.7301 103.95 61.4861 103.567 62.4661 102.802L62.8861 103.334L60.7301 105.028C60.3568 105.103 59.9088 105.14 59.3861 105.14C58.7701 105.14 58.2148 104.981 57.7201 104.664C57.2348 104.337 56.8521 103.899 56.5721 103.348C56.3015 102.797 56.1661 102.191 56.1661 101.528C56.1661 100.809 56.3668 100.133 56.7681 99.498C57.1788 98.8633 57.6921 98.3593 58.3081 97.986C58.9241 97.6127 59.5215 97.426 60.1001 97.426ZM82.3822 105H78.1262V104.566L79.4422 103.544L78.3642 100.954H73.6602L72.5122 103.6L74.9762 104.44L74.6962 105H70.4402V104.566L71.7562 103.53L75.7182 94.444L77.1742 93.73L81.2622 103.586L82.6622 104.44L82.3822 105ZM76.0682 95.41L73.9402 100.324H78.1122L76.0682 95.41ZM88.9779 97.426C89.3605 97.426 89.8039 97.482 90.3079 97.594C90.8212 97.6967 91.1899 97.8133 91.4139 97.944V100.1H90.8819C90.5179 99.6333 90.0979 99.2693 89.6219 99.008C89.1552 98.7373 88.6699 98.602 88.1659 98.602C87.7365 98.602 87.4099 98.7933 87.1859 99.176C86.9712 99.5587 86.8639 100.119 86.8639 100.856C86.8639 101.733 87.0552 102.471 87.4379 103.068C87.8205 103.656 88.3665 103.95 89.0759 103.95C89.6079 103.95 90.3639 103.567 91.3439 102.802L91.7639 103.334L89.6079 105.028C89.2345 105.103 88.7865 105.14 88.2639 105.14C87.6479 105.14 87.0925 104.981 86.5979 104.664C86.1125 104.337 85.7299 103.899 85.4499 103.348C85.1792 102.797 85.0439 102.191 85.0439 101.528C85.0439 100.809 85.2445 100.133 85.6459 99.498C86.0565 98.8633 86.5699 98.3593 87.1859 97.986C87.8019 97.6127 88.3992 97.426 88.9779 97.426ZM98.8098 105.028C98.5951 105.103 98.3338 105.14 98.0258 105.14C97.2511 105.14 96.6818 104.939 96.3178 104.538C95.9631 104.127 95.7858 103.497 95.7858 102.648V98.56H94.2738V97.986L96.9338 94.892H97.4658V97.986H99.9858V98.56H97.4658V102.816C97.4658 103.572 97.8298 103.95 98.5578 103.95C98.7538 103.95 98.9405 103.908 99.1178 103.824C99.3045 103.74 99.5331 103.591 99.8038 103.376L100.224 103.908L98.8098 105.028ZM106.511 105H102.605V104.566L103.851 103.586V99.498L102.605 98.63V98.196L104.999 97.3H105.531V103.95L106.791 104.44L106.511 105ZM104.635 93.1C104.915 93.1 105.143 93.2027 105.321 93.408C105.507 93.6133 105.601 93.87 105.601 94.178C105.601 94.3927 105.535 94.598 105.405 94.794C105.274 94.9807 105.111 95.13 104.915 95.242C104.719 95.354 104.527 95.41 104.341 95.41C104.061 95.41 103.827 95.3073 103.641 95.102C103.463 94.8967 103.375 94.64 103.375 94.332C103.375 94.1173 103.44 93.9167 103.571 93.73C103.701 93.534 103.865 93.38 104.061 93.268C104.257 93.156 104.448 93.1 104.635 93.1ZM113.87 97.426C114.486 97.426 115.037 97.5893 115.522 97.916C116.017 98.2333 116.399 98.6673 116.67 99.218C116.95 99.7687 117.09 100.375 117.09 101.038C117.09 101.757 116.871 102.433 116.432 103.068C115.993 103.693 115.443 104.197 114.78 104.58C114.127 104.953 113.492 105.14 112.876 105.14C112.26 105.14 111.705 104.981 111.21 104.664C110.725 104.337 110.342 103.899 110.062 103.348C109.791 102.797 109.656 102.191 109.656 101.528C109.656 100.809 109.875 100.137 110.314 99.512C110.753 98.8773 111.299 98.3733 111.952 98C112.615 97.6173 113.254 97.426 113.87 97.426ZM113.058 98.602C112.003 98.602 111.476 99.3533 111.476 100.856C111.476 101.743 111.667 102.485 112.05 103.082C112.433 103.67 112.979 103.964 113.688 103.964C114.743 103.964 115.27 103.208 115.27 101.696C115.27 100.819 115.079 100.086 114.696 99.498C114.313 98.9007 113.767 98.602 113.058 98.602ZM128.905 105.014H126.245V100.296C126.245 99.7827 126.165 99.4233 126.007 99.218C125.848 99.0127 125.563 98.91 125.153 98.91C124.845 98.91 124.537 98.966 124.229 99.078C123.93 99.19 123.575 99.4047 123.165 99.722V103.964L124.425 104.454L124.145 105.014H120.239V104.58L121.485 103.6V99.638L120.239 98.91V98.476L122.633 97.3L123.095 99.12L125.083 97.538C125.279 97.4633 125.535 97.426 125.853 97.426C126.487 97.426 126.991 97.622 127.365 98.014C127.738 98.3967 127.925 98.9193 127.925 99.582V103.95L129.185 104.454L128.905 105.014Z" fill="black"/>
</g>
<defs>
<filter id="filter0_f_3:2" x="103.115" y="42.3715" width="19.3901" height="25.6004" filterUnits="userSpaceOnUse" color-interpolation-filters="sRGB">
<feFlood flood-opacity="0" result="BackgroundImageFix"/>
<feBlend mode="normal" in="SourceGraphic" in2="BackgroundImageFix" result="shape"/>
<feGaussianBlur stdDeviation="2.87776" result="effect1_foregroundBlur_3:2"/>
</filter>
<filter id="filter1_f_3:2" x="21.2003" y="38.4438" width="19.3043" height="25.6005" filterUnits="userSpaceOnUse" color-interpolation-filters="sRGB">
<feFlood flood-opacity="0" result="BackgroundImageFix"/>
<feBlend mode="normal" in="SourceGraphic" in2="BackgroundImageFix" result="shape"/>
<feGaussianBlur stdDeviation="2.87776" result="effect1_foregroundBlur_3:2"/>
</filter>
<filter id="filter2_d_3:2" x="8.16895" y="93.1" width="125.016" height="20.04" filterUnits="userSpaceOnUse" color-interpolation-filters="sRGB">
<feFlood flood-opacity="0" result="BackgroundImageFix"/>
<feColorMatrix in="SourceAlpha" type="matrix" values="0 0 0 0 0 0 0 0 0 0 0 0 0 0 0 0 0 0 127 0" result="hardAlpha"/>
<feOffset dy="4"/>
<feGaussianBlur stdDeviation="2"/>
<feComposite in2="hardAlpha" operator="out"/>
<feColorMatrix type="matrix" values="0 0 0 0 0 0 0 0 0 0 0 0 0 0 0 0 0 0 0.25 0"/>
<feBlend mode="normal" in2="BackgroundImageFix" result="effect1_dropShadow_3:2"/>
<feBlend mode="normal" in="SourceGraphic" in2="effect1_dropShadow_3:2" result="shape"/>
</filter>
<radialGradient id="paint0_radial_3:2" cx="0" cy="0" r="1" gradientUnits="userSpaceOnUse" gradientTransform="translate(117.713 62.7089) scale(8.12638 5.30458)">
<stop stop-color="#B3B3B3"/>
<stop offset="1" stop-color="#B3B3B3" stop-opacity="0"/>
</radialGradient>
<radialGradient id="paint1_radial_3:2" cx="0" cy="0" r="1" gradientUnits="userSpaceOnUse" gradientTransform="translate(25.7699 61.2678) scale(8.49917 6.63421)">
<stop stop-color="#B3B3B3"/>
<stop offset="1" stop-color="#B3B3B3" stop-opacity="0"/>
</radialGradient>
<radialGradient id="paint2_radial_3:2" cx="0" cy="0" r="1" gradientUnits="userSpaceOnUse" gradientTransform="translate(111.153 56.0717) rotate(131.368) scale(4.09591 6.50782)">
<stop stop-color="#FFAAAA"/>
<stop offset="1" stop-color="#FFAAAA" stop-opacity="0"/>
</radialGradient>
<radialGradient id="paint3_radial_3:2" cx="0" cy="0" r="1" gradientUnits="userSpaceOnUse" gradientTransform="translate(32.5523 52.144) rotate(48.632) scale(4.0959 6.50782)">
<stop stop-color="#FFAAAA"/>
<stop offset="1" stop-color="#FFAAAA" stop-opacity="0"/>
</radialGradient>
</defs>
</svg>
